<?xml version="1.0" encoding="UTF-8" standalone="no"?>
<!DOCTYPE svg PUBLIC "-//W3C//DTD SVG 1.1//EN"
 "http://www.w3.org/Graphics/SVG/1.1/DTD/svg11.dtd">
<!-- Generated by graphviz version 2.47.0 (20210316.0004)
 -->
<!-- Title: dependencies Pages: 1 -->
<svg width="2487pt" height="284pt"
 viewBox="0.00 0.00 2487.00 284.00" xmlns="http://www.w3.org/2000/svg" xmlns:xlink="http://www.w3.org/1999/xlink">
<g id="graph0" class="graph" transform="scale(1 1) rotate(0) translate(4 280)">
<title>dependencies</title>
<polygon fill="white" stroke="transparent" points="-4,4 -4,-280 2483,-280 2483,4 -4,4"/>
<text text-anchor="start" x="1218.51" y="-42.4" font-family="Times-12" font-weight="bold" font-size="14.00">Legend</text>
<polygon fill="#ffffb3" stroke="transparent" points="1005.5,-10 1005.5,-30 1025.5,-30 1025.5,-10 1005.5,-10"/>
<text text-anchor="start" x="1029.13" y="-15.4" font-family="Times-12" font-size="14.00"> &#160;Declarations</text>
<polygon fill="#8dd3c7" stroke="transparent" points="1118.5,-10 1118.5,-30 1138.5,-30 1138.5,-10 1118.5,-10"/>
<text text-anchor="start" x="1142.23" y="-15.4" font-family="Times-12" font-size="14.00"> &#160;Module</text>
<polygon fill="#80b1d3" stroke="transparent" points="1204.5,-10 1204.5,-30 1224.5,-30 1224.5,-10 1204.5,-10"/>
<text text-anchor="start" x="1228.28" y="-15.4" font-family="Times-12" font-size="14.00"> &#160;Bootstrap</text>
<polygon fill="#fdb462" stroke="transparent" points="1301.5,-10 1301.5,-30 1321.5,-30 1321.5,-10 1301.5,-10"/>
<text text-anchor="start" x="1325.17" y="-15.4" font-family="Times-12" font-size="14.00"> &#160;Providers</text>
<polygon fill="#fb8072" stroke="transparent" points="1397.5,-10 1397.5,-30 1417.5,-30 1417.5,-10 1397.5,-10"/>
<text text-anchor="start" x="1421.23" y="-15.4" font-family="Times-12" font-size="14.00"> &#160;Exports</text>
<g id="clust1" class="cluster">
<title>cluster_PdfModule</title>
<polygon fill="none" stroke="black" stroke-dasharray="1,5" points="8,-70 8,-268 2471,-268 2471,-70 8,-70"/>
</g>
<g id="clust11" class="cluster">
<title>cluster_PdfModule_imports</title>
<polygon fill="none" stroke="black" points="1254,-78 1254,-130 2463,-130 2463,-78 1254,-78"/>
</g>
<g id="clust12" class="cluster">
<title>cluster_PdfModule_exports</title>
<polygon fill="none" stroke="black" points="888,-208 888,-260 1792,-260 1792,-208 888,-208"/>
</g>
<g id="clust2" class="cluster">
<title>cluster_PdfModule_declarations</title>
<polygon fill="none" stroke="black" points="16,-78 16,-130 1246,-130 1246,-78 16,-78"/>
</g>
<!-- CreatePdfComponent -->
<g id="node1" class="node">
<title>CreatePdfComponent</title>
<polygon fill="#ffffb3" stroke="black" points="1237.81,-122 1100.19,-122 1100.19,-86 1237.81,-86 1237.81,-122"/>
<text text-anchor="middle" x="1169" y="-99.8" font-family="Times,serif" font-size="14.00">CreatePdfComponent</text>
</g>
<!-- PdfModule -->
<g id="node9" class="node">
<title>PdfModule</title>
<polygon fill="#8dd3c7" stroke="black" points="1363.49,-187 1360.49,-191 1339.49,-191 1336.49,-187 1284.51,-187 1284.51,-151 1363.49,-151 1363.49,-187"/>
<text text-anchor="middle" x="1324" y="-164.8" font-family="Times,serif" font-size="14.00">PdfModule</text>
</g>
<!-- CreatePdfComponent&#45;&gt;PdfModule -->
<g id="edge1" class="edge">
<title>CreatePdfComponent&#45;&gt;PdfModule</title>
<path fill="none" stroke="black" d="M1221.76,-122.12C1221.76,-136.78 1221.76,-155 1221.76,-155 1221.76,-155 1274.47,-155 1274.47,-155"/>
<polygon fill="black" stroke="black" points="1274.47,-158.5 1284.47,-155 1274.47,-151.5 1274.47,-158.5"/>
</g>
<!-- LinkPdfModuloComponent -->
<g id="node2" class="node">
<title>LinkPdfModuloComponent</title>
<polygon fill="#ffffb3" stroke="black" points="1082.55,-122 911.45,-122 911.45,-86 1082.55,-86 1082.55,-122"/>
<text text-anchor="middle" x="997" y="-99.8" font-family="Times,serif" font-size="14.00">LinkPdfModuloComponent</text>
</g>
<!-- LinkPdfModuloComponent&#45;&gt;PdfModule -->
<g id="edge2" class="edge">
<title>LinkPdfModuloComponent&#45;&gt;PdfModule</title>
<path fill="none" stroke="black" d="M1070.41,-122.28C1070.41,-137.95 1070.41,-158 1070.41,-158 1070.41,-158 1274.38,-158 1274.38,-158"/>
<polygon fill="black" stroke="black" points="1274.38,-161.5 1284.38,-158 1274.38,-154.5 1274.38,-161.5"/>
</g>
<!-- ListPdfCardComponent -->
<g id="node3" class="node">
<title>ListPdfCardComponent</title>
<polygon fill="#ffffb3" stroke="black" points="892.77,-122 743.23,-122 743.23,-86 892.77,-86 892.77,-122"/>
<text text-anchor="middle" x="818" y="-99.8" font-family="Times,serif" font-size="14.00">ListPdfCardComponent</text>
</g>
<!-- ListPdfCardComponent&#45;&gt;PdfModule -->
<g id="edge3" class="edge">
<title>ListPdfCardComponent&#45;&gt;PdfModule</title>
<path fill="none" stroke="black" d="M818,-122.04C818,-138.73 818,-161 818,-161 818,-161 1274.3,-161 1274.3,-161"/>
<polygon fill="black" stroke="black" points="1274.3,-164.5 1284.3,-161 1274.29,-157.5 1274.3,-164.5"/>
</g>
<!-- ListPdfComponent -->
<g id="node4" class="node">
<title>ListPdfComponent</title>
<polygon fill="#ffffb3" stroke="black" points="725.05,-122 602.95,-122 602.95,-86 725.05,-86 725.05,-122"/>
<text text-anchor="middle" x="664" y="-99.8" font-family="Times,serif" font-size="14.00">ListPdfComponent</text>
</g>
<!-- ListPdfComponent&#45;&gt;PdfModule -->
<g id="edge4" class="edge">
<title>ListPdfComponent&#45;&gt;PdfModule</title>
<path fill="none" stroke="black" d="M664,-122.3C664,-140.27 664,-165 664,-165 664,-165 1274.2,-165 1274.2,-165"/>
<polygon fill="black" stroke="black" points="1274.2,-168.5 1284.2,-165 1274.2,-161.5 1274.2,-168.5"/>
</g>
<!-- PdfComponent -->
<g id="node5" class="node">
<title>PdfComponent</title>
<polygon fill="#ffffb3" stroke="black" points="584.28,-122 483.72,-122 483.72,-86 584.28,-86 584.28,-122"/>
<text text-anchor="middle" x="534" y="-99.8" font-family="Times,serif" font-size="14.00">PdfComponent</text>
</g>
<!-- PdfComponent&#45;&gt;PdfModule -->
<g id="edge5" class="edge">
<title>PdfComponent&#45;&gt;PdfModule</title>
<path fill="none" stroke="black" d="M534,-122.17C534,-141.09 534,-168 534,-168 534,-168 1274.28,-168 1274.28,-168"/>
<polygon fill="black" stroke="black" points="1274.28,-171.5 1284.28,-168 1274.28,-164.5 1274.28,-171.5"/>
</g>
<!-- PdfItemComponent -->
<g id="node6" class="node">
<title>PdfItemComponent</title>
<polygon fill="#ffffb3" stroke="black" points="465.43,-122 338.57,-122 338.57,-86 465.43,-86 465.43,-122"/>
<text text-anchor="middle" x="402" y="-99.8" font-family="Times,serif" font-size="14.00">PdfItemComponent</text>
</g>
<!-- PdfItemComponent&#45;&gt;PdfModule -->
<g id="edge6" class="edge">
<title>PdfItemComponent&#45;&gt;PdfModule</title>
<path fill="none" stroke="black" d="M402,-122.31C402,-142.15 402,-171 402,-171 402,-171 1274.38,-171 1274.38,-171"/>
<polygon fill="black" stroke="black" points="1274.38,-174.5 1284.38,-171 1274.38,-167.5 1274.38,-174.5"/>
</g>
<!-- PdfModalComponent -->
<g id="node7" class="node">
<title>PdfModalComponent</title>
<polygon fill="#ffffb3" stroke="black" points="320.83,-122 183.17,-122 183.17,-86 320.83,-86 320.83,-122"/>
<text text-anchor="middle" x="252" y="-99.8" font-family="Times,serif" font-size="14.00">PdfModalComponent</text>
</g>
<!-- PdfModalComponent&#45;&gt;PdfModule -->
<g id="edge7" class="edge">
<title>PdfModalComponent&#45;&gt;PdfModule</title>
<path fill="none" stroke="black" d="M252,-122.03C252,-142.77 252,-174 252,-174 252,-174 1274.25,-174 1274.25,-174"/>
<polygon fill="black" stroke="black" points="1274.25,-177.5 1284.25,-174 1274.25,-170.5 1274.25,-177.5"/>
</g>
<!-- UpdatePdfComponent -->
<g id="node8" class="node">
<title>UpdatePdfComponent</title>
<polygon fill="#ffffb3" stroke="black" points="165.7,-122 24.3,-122 24.3,-86 165.7,-86 165.7,-122"/>
<text text-anchor="middle" x="95" y="-99.8" font-family="Times,serif" font-size="14.00">UpdatePdfComponent</text>
</g>
<!-- UpdatePdfComponent&#45;&gt;PdfModule -->
<g id="edge8" class="edge">
<title>UpdatePdfComponent&#45;&gt;PdfModule</title>
<path fill="none" stroke="black" d="M95,-122.29C95,-144.21 95,-178 95,-178 95,-178 1274.5,-178 1274.5,-178"/>
<polygon fill="black" stroke="black" points="1274.5,-181.5 1284.5,-178 1274.5,-174.5 1274.5,-181.5"/>
</g>
<!-- CreatePdfComponent  -->
<g id="node18" class="node">
<title>CreatePdfComponent </title>
<polygon fill="#fb8072" stroke="black" points="1784.31,-252 1643.69,-252 1643.69,-216 1784.31,-216 1784.31,-252"/>
<text text-anchor="middle" x="1714" y="-229.8" font-family="Times,serif" font-size="14.00">CreatePdfComponent </text>
</g>
<!-- PdfModule&#45;&gt;CreatePdfComponent  -->
<g id="edge18" class="edge">
<title>PdfModule&#45;&gt;CreatePdfComponent </title>
<path fill="none" stroke="black" stroke-dasharray="5,2" d="M1363.7,-181C1457.56,-181 1685.32,-181 1685.32,-181 1685.32,-181 1685.32,-205.76 1685.32,-205.76"/>
<polygon fill="black" stroke="black" points="1681.82,-205.76 1685.32,-215.76 1688.82,-205.76 1681.82,-205.76"/>
</g>
<!-- ListPdfCardComponent  -->
<g id="node19" class="node">
<title>ListPdfCardComponent </title>
<polygon fill="#fb8072" stroke="black" points="1625.77,-252 1472.23,-252 1472.23,-216 1625.77,-216 1625.77,-252"/>
<text text-anchor="middle" x="1549" y="-229.8" font-family="Times,serif" font-size="14.00">ListPdfCardComponent </text>
</g>
<!-- PdfModule&#45;&gt;ListPdfCardComponent  -->
<g id="edge19" class="edge">
<title>PdfModule&#45;&gt;ListPdfCardComponent </title>
<path fill="none" stroke="black" stroke-dasharray="5,2" d="M1363.89,-184C1413.66,-184 1492.32,-184 1492.32,-184 1492.32,-184 1492.32,-205.95 1492.32,-205.95"/>
<polygon fill="black" stroke="black" points="1488.82,-205.95 1492.32,-215.95 1495.82,-205.95 1488.82,-205.95"/>
</g>
<!-- ListPdfComponent  -->
<g id="node20" class="node">
<title>ListPdfComponent </title>
<polygon fill="#fb8072" stroke="black" points="1454.05,-252 1327.95,-252 1327.95,-216 1454.05,-216 1454.05,-252"/>
<text text-anchor="middle" x="1391" y="-229.8" font-family="Times,serif" font-size="14.00">ListPdfComponent </text>
</g>
<!-- PdfModule&#45;&gt;ListPdfComponent  -->
<g id="edge20" class="edge">
<title>PdfModule&#45;&gt;ListPdfComponent </title>
<path fill="none" stroke="black" stroke-dasharray="5,2" d="M1345.73,-187.11C1345.73,-187.11 1345.73,-205.99 1345.73,-205.99"/>
<polygon fill="black" stroke="black" points="1342.23,-205.99 1345.73,-215.99 1349.23,-205.99 1342.23,-205.99"/>
</g>
<!-- PdfComponent  -->
<g id="node21" class="node">
<title>PdfComponent </title>
<polygon fill="#fb8072" stroke="black" points="1310.28,-252 1205.72,-252 1205.72,-216 1310.28,-216 1310.28,-252"/>
<text text-anchor="middle" x="1258" y="-229.8" font-family="Times,serif" font-size="14.00">PdfComponent </text>
</g>
<!-- PdfModule&#45;&gt;PdfComponent  -->
<g id="edge21" class="edge">
<title>PdfModule&#45;&gt;PdfComponent </title>
<path fill="none" stroke="black" stroke-dasharray="5,2" d="M1297.32,-187.11C1297.32,-187.11 1297.32,-205.99 1297.32,-205.99"/>
<polygon fill="black" stroke="black" points="1293.82,-205.99 1297.32,-215.99 1300.82,-205.99 1293.82,-205.99"/>
</g>
<!-- PdfItemComponent  -->
<g id="node22" class="node">
<title>PdfItemComponent </title>
<polygon fill="#fb8072" stroke="black" points="1187.93,-252 1058.07,-252 1058.07,-216 1187.93,-216 1187.93,-252"/>
<text text-anchor="middle" x="1123" y="-229.8" font-family="Times,serif" font-size="14.00">PdfItemComponent </text>
</g>
<!-- PdfModule&#45;&gt;PdfItemComponent  -->
<g id="edge22" class="edge">
<title>PdfModule&#45;&gt;PdfItemComponent </title>
<path fill="none" stroke="black" stroke-dasharray="5,2" d="M1284.09,-184C1231.1,-184 1144.16,-184 1144.16,-184 1144.16,-184 1144.16,-205.95 1144.16,-205.95"/>
<polygon fill="black" stroke="black" points="1140.66,-205.95 1144.16,-215.95 1147.66,-205.95 1140.66,-205.95"/>
</g>
<!-- UpdatePdfComponent  -->
<g id="node23" class="node">
<title>UpdatePdfComponent </title>
<polygon fill="#fb8072" stroke="black" points="1040.2,-252 895.8,-252 895.8,-216 1040.2,-216 1040.2,-252"/>
<text text-anchor="middle" x="968" y="-229.8" font-family="Times,serif" font-size="14.00">UpdatePdfComponent </text>
</g>
<!-- PdfModule&#45;&gt;UpdatePdfComponent  -->
<g id="edge23" class="edge">
<title>PdfModule&#45;&gt;UpdatePdfComponent </title>
<path fill="none" stroke="black" stroke-dasharray="5,2" d="M1284.39,-181C1193.13,-181 975.79,-181 975.79,-181 975.79,-181 975.79,-205.76 975.79,-205.76"/>
<polygon fill="black" stroke="black" points="972.29,-205.76 975.79,-215.76 979.29,-205.76 972.29,-205.76"/>
</g>
<!-- CollapseAccordionModule -->
<g id="node10" class="node">
<title>CollapseAccordionModule</title>
<polygon fill="#8dd3c7" stroke="black" points="2454.63,-122 2451.63,-126 2430.63,-126 2427.63,-122 2287.37,-122 2287.37,-86 2454.63,-86 2454.63,-122"/>
<text text-anchor="middle" x="2371" y="-99.8" font-family="Times,serif" font-size="14.00">CollapseAccordionModule</text>
</g>
<!-- CollapseAccordionModule&#45;&gt;PdfModule -->
<g id="edge9" class="edge">
<title>CollapseAccordionModule&#45;&gt;PdfModule</title>
<path fill="none" stroke="black" d="M2371,-122.29C2371,-144.21 2371,-178 2371,-178 2371,-178 1373.77,-178 1373.77,-178"/>
<polygon fill="black" stroke="black" points="1373.77,-174.5 1363.77,-178 1373.77,-181.5 1373.77,-174.5"/>
</g>
<!-- DyamicSelectModule -->
<g id="node11" class="node">
<title>DyamicSelectModule</title>
<polygon fill="#8dd3c7" stroke="black" points="2269.07,-122 2266.07,-126 2245.07,-126 2242.07,-122 2130.93,-122 2130.93,-86 2269.07,-86 2269.07,-122"/>
<text text-anchor="middle" x="2200" y="-99.8" font-family="Times,serif" font-size="14.00">DyamicSelectModule</text>
</g>
<!-- DyamicSelectModule&#45;&gt;PdfModule -->
<g id="edge10" class="edge">
<title>DyamicSelectModule&#45;&gt;PdfModule</title>
<path fill="none" stroke="black" d="M2200,-122.03C2200,-142.77 2200,-174 2200,-174 2200,-174 1373.63,-174 1373.63,-174"/>
<polygon fill="black" stroke="black" points="1373.63,-170.5 1363.63,-174 1373.63,-177.5 1373.63,-170.5"/>
</g>
<!-- DynamicTableModule -->
<g id="node12" class="node">
<title>DynamicTableModule</title>
<polygon fill="#8dd3c7" stroke="black" points="2113.24,-122 2110.24,-126 2089.24,-126 2086.24,-122 1970.76,-122 1970.76,-86 2113.24,-86 2113.24,-122"/>
<text text-anchor="middle" x="2042" y="-99.8" font-family="Times,serif" font-size="14.00">DynamicTableModule</text>
</g>
<!-- DynamicTableModule&#45;&gt;PdfModule -->
<g id="edge11" class="edge">
<title>DynamicTableModule&#45;&gt;PdfModule</title>
<path fill="none" stroke="black" d="M2042,-122.31C2042,-142.15 2042,-171 2042,-171 2042,-171 1373.63,-171 1373.63,-171"/>
<polygon fill="black" stroke="black" points="1373.63,-167.5 1363.63,-171 1373.63,-174.5 1373.63,-167.5"/>
</g>
<!-- DynamicVideoListModule -->
<g id="node13" class="node">
<title>DynamicVideoListModule</title>
<polygon fill="#8dd3c7" stroke="black" points="1952.36,-122 1949.36,-126 1928.36,-126 1925.36,-122 1785.64,-122 1785.64,-86 1952.36,-86 1952.36,-122"/>
<text text-anchor="middle" x="1869" y="-99.8" font-family="Times,serif" font-size="14.00">DynamicVideoListModule</text>
</g>
<!-- DynamicVideoListModule&#45;&gt;PdfModule -->
<g id="edge12" class="edge">
<title>DynamicVideoListModule&#45;&gt;PdfModule</title>
<path fill="none" stroke="black" d="M1869,-122.17C1869,-141.09 1869,-168 1869,-168 1869,-168 1373.63,-168 1373.63,-168"/>
<polygon fill="black" stroke="black" points="1373.63,-164.5 1363.63,-168 1373.63,-171.5 1373.63,-164.5"/>
</g>
<!-- ImageInputModule -->
<g id="node14" class="node">
<title>ImageInputModule</title>
<polygon fill="#8dd3c7" stroke="black" points="1768.08,-122 1765.08,-126 1744.08,-126 1741.08,-122 1643.92,-122 1643.92,-86 1768.08,-86 1768.08,-122"/>
<text text-anchor="middle" x="1706" y="-99.8" font-family="Times,serif" font-size="14.00">ImageInputModule</text>
</g>
<!-- ImageInputModule&#45;&gt;PdfModule -->
<g id="edge13" class="edge">
<title>ImageInputModule&#45;&gt;PdfModule</title>
<path fill="none" stroke="black" d="M1726.68,-122.3C1726.68,-140.27 1726.68,-165 1726.68,-165 1726.68,-165 1373.71,-165 1373.71,-165"/>
<polygon fill="black" stroke="black" points="1373.71,-161.5 1363.71,-165 1373.71,-168.5 1373.71,-161.5"/>
</g>
<!-- ModalModule -->
<g id="node15" class="node">
<title>ModalModule</title>
<polygon fill="#8dd3c7" stroke="black" points="1626.1,-122 1623.1,-126 1602.1,-126 1599.1,-122 1529.9,-122 1529.9,-86 1626.1,-86 1626.1,-122"/>
<text text-anchor="middle" x="1578" y="-99.8" font-family="Times,serif" font-size="14.00">ModalModule</text>
</g>
<!-- ModalModule&#45;&gt;PdfModule -->
<g id="edge14" class="edge">
<title>ModalModule&#45;&gt;PdfModule</title>
<path fill="none" stroke="black" d="M1577.79,-122.04C1577.79,-138.73 1577.79,-161 1577.79,-161 1577.79,-161 1373.65,-161 1373.65,-161"/>
<polygon fill="black" stroke="black" points="1373.65,-157.5 1363.65,-161 1373.65,-164.5 1373.65,-157.5"/>
</g>
<!-- PdfInputModule -->
<g id="node16" class="node">
<title>PdfInputModule</title>
<polygon fill="#8dd3c7" stroke="black" points="1512.05,-122 1509.05,-126 1488.05,-126 1485.05,-122 1403.95,-122 1403.95,-86 1512.05,-86 1512.05,-122"/>
<text text-anchor="middle" x="1458" y="-99.8" font-family="Times,serif" font-size="14.00">PdfInputModule</text>
</g>
<!-- PdfInputModule&#45;&gt;PdfModule -->
<g id="edge15" class="edge">
<title>PdfInputModule&#45;&gt;PdfModule</title>
<path fill="none" stroke="black" d="M1420.49,-122.12C1420.49,-136.78 1420.49,-155 1420.49,-155 1420.49,-155 1373.53,-155 1373.53,-155"/>
<polygon fill="black" stroke="black" points="1373.53,-151.5 1363.53,-155 1373.53,-158.5 1373.53,-151.5"/>
</g>
<!-- PdfInputModule&#45;&gt;PdfModule -->
<g id="edge16" class="edge">
<title>PdfInputModule&#45;&gt;PdfModule</title>
<path fill="none" stroke="black" d="M1437.26,-122.28C1437.26,-137.95 1437.26,-158 1437.26,-158 1437.26,-158 1373.61,-158 1373.61,-158"/>
<polygon fill="black" stroke="black" points="1373.61,-154.5 1363.61,-158 1373.61,-161.5 1373.61,-154.5"/>
</g>
<!-- PdfRoutingModule -->
<g id="node17" class="node">
<title>PdfRoutingModule</title>
<polygon fill="#8dd3c7" stroke="black" points="1386.11,-122 1383.11,-126 1362.11,-126 1359.11,-122 1261.89,-122 1261.89,-86 1386.11,-86 1386.11,-122"/>
<text text-anchor="middle" x="1324" y="-99.8" font-family="Times,serif" font-size="14.00">PdfRoutingModule</text>
</g>
<!-- PdfRoutingModule&#45;&gt;PdfModule -->
<g id="edge17" class="edge">
<title>PdfRoutingModule&#45;&gt;PdfModule</title>
<path fill="none" stroke="black" d="M1324,-122.11C1324,-122.11 1324,-140.99 1324,-140.99"/>
<polygon fill="black" stroke="black" points="1320.5,-140.99 1324,-150.99 1327.5,-140.99 1320.5,-140.99"/>
</g>
</g>
</svg>
