<?xml version="1.0" encoding="UTF-8" standalone="no"?>
<!DOCTYPE svg PUBLIC "-//W3C//DTD SVG 1.1//EN"
 "http://www.w3.org/Graphics/SVG/1.1/DTD/svg11.dtd">
<!-- Generated by graphviz version 2.47.0 (20210316.0004)
 -->
<!-- Title: dependencies Pages: 1 -->
<svg width="1122pt" height="211pt"
 viewBox="0.00 0.00 1122.00 211.00" xmlns="http://www.w3.org/2000/svg" xmlns:xlink="http://www.w3.org/1999/xlink">
<g id="graph0" class="graph" transform="scale(1 1) rotate(0) translate(4 207)">
<title>dependencies</title>
<polygon fill="white" stroke="transparent" points="-4,4 -4,-207 1118,-207 1118,4 -4,4"/>
<text text-anchor="start" x="536.01" y="-42.4" font-family="Times-12" font-weight="bold" font-size="14.00">Legend</text>
<polygon fill="#ffffb3" stroke="transparent" points="323,-10 323,-30 343,-30 343,-10 323,-10"/>
<text text-anchor="start" x="346.63" y="-15.4" font-family="Times-12" font-size="14.00"> &#160;Declarations</text>
<polygon fill="#8dd3c7" stroke="transparent" points="436,-10 436,-30 456,-30 456,-10 436,-10"/>
<text text-anchor="start" x="459.73" y="-15.4" font-family="Times-12" font-size="14.00"> &#160;Module</text>
<polygon fill="#80b1d3" stroke="transparent" points="522,-10 522,-30 542,-30 542,-10 522,-10"/>
<text text-anchor="start" x="545.78" y="-15.4" font-family="Times-12" font-size="14.00"> &#160;Bootstrap</text>
<polygon fill="#fdb462" stroke="transparent" points="619,-10 619,-30 639,-30 639,-10 619,-10"/>
<text text-anchor="start" x="642.67" y="-15.4" font-family="Times-12" font-size="14.00"> &#160;Providers</text>
<polygon fill="#fb8072" stroke="transparent" points="715,-10 715,-30 735,-30 735,-10 715,-10"/>
<text text-anchor="start" x="738.73" y="-15.4" font-family="Times-12" font-size="14.00"> &#160;Exports</text>
<g id="clust1" class="cluster">
<title>cluster_RolesModule</title>
<polygon fill="none" stroke="black" stroke-dasharray="1,5" points="8,-70 8,-195 1106,-195 1106,-70 8,-70"/>
</g>
<g id="clust2" class="cluster">
<title>cluster_RolesModule_declarations</title>
<polygon fill="none" stroke="black" points="493,-78 493,-130 1098,-130 1098,-78 493,-78"/>
</g>
<g id="clust7" class="cluster">
<title>cluster_RolesModule_imports</title>
<polygon fill="none" stroke="black" points="16,-78 16,-130 485,-130 485,-78 16,-78"/>
</g>
<!-- CreateRoleComponent -->
<g id="node1" class="node">
<title>CreateRoleComponent</title>
<polygon fill="#ffffb3" stroke="black" points="1090.31,-122 945.69,-122 945.69,-86 1090.31,-86 1090.31,-122"/>
<text text-anchor="middle" x="1018" y="-99.8" font-family="Times,serif" font-size="14.00">CreateRoleComponent</text>
</g>
<!-- RolesModule -->
<g id="node5" class="node">
<title>RolesModule</title>
<polygon fill="#8dd3c7" stroke="black" points="620.94,-187 617.94,-191 596.94,-191 593.94,-187 529.06,-187 529.06,-151 620.94,-151 620.94,-187"/>
<text text-anchor="middle" x="575" y="-164.8" font-family="Times,serif" font-size="14.00">RolesModule</text>
</g>
<!-- CreateRoleComponent&#45;&gt;RolesModule -->
<g id="edge1" class="edge">
<title>CreateRoleComponent&#45;&gt;RolesModule</title>
<path fill="none" stroke="black" d="M1018,-122.29C1018,-144.21 1018,-178 1018,-178 1018,-178 630.74,-178 630.74,-178"/>
<polygon fill="black" stroke="black" points="630.74,-174.5 620.74,-178 630.74,-181.5 630.74,-174.5"/>
</g>
<!-- ListRoleComponent -->
<g id="node2" class="node">
<title>ListRoleComponent</title>
<polygon fill="#ffffb3" stroke="black" points="927.55,-122 798.45,-122 798.45,-86 927.55,-86 927.55,-122"/>
<text text-anchor="middle" x="863" y="-99.8" font-family="Times,serif" font-size="14.00">ListRoleComponent</text>
</g>
<!-- ListRoleComponent&#45;&gt;RolesModule -->
<g id="edge2" class="edge">
<title>ListRoleComponent&#45;&gt;RolesModule</title>
<path fill="none" stroke="black" d="M863,-122.11C863,-141.34 863,-169 863,-169 863,-169 630.95,-169 630.95,-169"/>
<polygon fill="black" stroke="black" points="630.95,-165.5 620.95,-169 630.95,-172.5 630.95,-165.5"/>
</g>
<!-- RolesComponent -->
<g id="node3" class="node">
<title>RolesComponent</title>
<polygon fill="#ffffb3" stroke="black" points="780.72,-122 667.28,-122 667.28,-86 780.72,-86 780.72,-122"/>
<text text-anchor="middle" x="724" y="-99.8" font-family="Times,serif" font-size="14.00">RolesComponent</text>
</g>
<!-- RolesComponent&#45;&gt;RolesModule -->
<g id="edge3" class="edge">
<title>RolesComponent&#45;&gt;RolesModule</title>
<path fill="none" stroke="black" d="M724,-122.03C724,-138.4 724,-160 724,-160 724,-160 630.92,-160 630.92,-160"/>
<polygon fill="black" stroke="black" points="630.92,-156.5 620.92,-160 630.92,-163.5 630.92,-156.5"/>
</g>
<!-- UpdateRoleComponent -->
<g id="node4" class="node">
<title>UpdateRoleComponent</title>
<polygon fill="#ffffb3" stroke="black" points="649.2,-122 500.8,-122 500.8,-86 649.2,-86 649.2,-122"/>
<text text-anchor="middle" x="575" y="-99.8" font-family="Times,serif" font-size="14.00">UpdateRoleComponent</text>
</g>
<!-- UpdateRoleComponent&#45;&gt;RolesModule -->
<g id="edge4" class="edge">
<title>UpdateRoleComponent&#45;&gt;RolesModule</title>
<path fill="none" stroke="black" d="M575,-122.11C575,-122.11 575,-140.99 575,-140.99"/>
<polygon fill="black" stroke="black" points="571.5,-140.99 575,-150.99 578.5,-140.99 571.5,-140.99"/>
</g>
<!-- DyamicSelectModule -->
<g id="node6" class="node">
<title>DyamicSelectModule</title>
<polygon fill="#8dd3c7" stroke="black" points="477.07,-122 474.07,-126 453.07,-126 450.07,-122 338.93,-122 338.93,-86 477.07,-86 477.07,-122"/>
<text text-anchor="middle" x="408" y="-99.8" font-family="Times,serif" font-size="14.00">DyamicSelectModule</text>
</g>
<!-- DyamicSelectModule&#45;&gt;RolesModule -->
<g id="edge5" class="edge">
<title>DyamicSelectModule&#45;&gt;RolesModule</title>
<path fill="none" stroke="black" d="M408,-122.03C408,-138.4 408,-160 408,-160 408,-160 518.92,-160 518.92,-160"/>
<polygon fill="black" stroke="black" points="518.92,-163.5 528.92,-160 518.92,-156.5 518.92,-163.5"/>
</g>
<!-- DynamicTableModule -->
<g id="node7" class="node">
<title>DynamicTableModule</title>
<polygon fill="#8dd3c7" stroke="black" points="321.24,-122 318.24,-126 297.24,-126 294.24,-122 178.76,-122 178.76,-86 321.24,-86 321.24,-122"/>
<text text-anchor="middle" x="250" y="-99.8" font-family="Times,serif" font-size="14.00">DynamicTableModule</text>
</g>
<!-- DynamicTableModule&#45;&gt;RolesModule -->
<g id="edge6" class="edge">
<title>DynamicTableModule&#45;&gt;RolesModule</title>
<path fill="none" stroke="black" d="M250,-122.11C250,-141.34 250,-169 250,-169 250,-169 519.12,-169 519.12,-169"/>
<polygon fill="black" stroke="black" points="519.12,-172.5 529.12,-169 519.12,-165.5 519.12,-172.5"/>
</g>
<!-- RolesRoutingModule -->
<g id="node8" class="node">
<title>RolesRoutingModule</title>
<polygon fill="#8dd3c7" stroke="black" points="160.05,-122 157.05,-126 136.05,-126 133.05,-122 23.95,-122 23.95,-86 160.05,-86 160.05,-122"/>
<text text-anchor="middle" x="92" y="-99.8" font-family="Times,serif" font-size="14.00">RolesRoutingModule</text>
</g>
<!-- RolesRoutingModule&#45;&gt;RolesModule -->
<g id="edge7" class="edge">
<title>RolesRoutingModule&#45;&gt;RolesModule</title>
<path fill="none" stroke="black" d="M92,-122.29C92,-144.21 92,-178 92,-178 92,-178 519.13,-178 519.13,-178"/>
<polygon fill="black" stroke="black" points="519.13,-181.5 529.13,-178 519.13,-174.5 519.13,-181.5"/>
</g>
</g>
</svg>
