<?xml version="1.0" encoding="UTF-8" standalone="no"?>
<!DOCTYPE svg PUBLIC "-//W3C//DTD SVG 1.1//EN"
 "http://www.w3.org/Graphics/SVG/1.1/DTD/svg11.dtd">
<!-- Generated by graphviz version 2.47.0 (20210316.0004)
 -->
<!-- Title: dependencies Pages: 1 -->
<svg width="3861pt" height="284pt"
 viewBox="0.00 0.00 3861.00 284.00" xmlns="http://www.w3.org/2000/svg" xmlns:xlink="http://www.w3.org/1999/xlink">
<g id="graph0" class="graph" transform="scale(1 1) rotate(0) translate(4 280)">
<title>dependencies</title>
<polygon fill="white" stroke="transparent" points="-4,4 -4,-280 3857,-280 3857,4 -4,4"/>
<text text-anchor="start" x="1905.51" y="-42.4" font-family="Times-12" font-weight="bold" font-size="14.00">Legend</text>
<polygon fill="#ffffb3" stroke="transparent" points="1692.5,-10 1692.5,-30 1712.5,-30 1712.5,-10 1692.5,-10"/>
<text text-anchor="start" x="1716.13" y="-15.4" font-family="Times-12" font-size="14.00"> &#160;Declarations</text>
<polygon fill="#8dd3c7" stroke="transparent" points="1805.5,-10 1805.5,-30 1825.5,-30 1825.5,-10 1805.5,-10"/>
<text text-anchor="start" x="1829.23" y="-15.4" font-family="Times-12" font-size="14.00"> &#160;Module</text>
<polygon fill="#80b1d3" stroke="transparent" points="1891.5,-10 1891.5,-30 1911.5,-30 1911.5,-10 1891.5,-10"/>
<text text-anchor="start" x="1915.28" y="-15.4" font-family="Times-12" font-size="14.00"> &#160;Bootstrap</text>
<polygon fill="#fdb462" stroke="transparent" points="1988.5,-10 1988.5,-30 2008.5,-30 2008.5,-10 1988.5,-10"/>
<text text-anchor="start" x="2012.17" y="-15.4" font-family="Times-12" font-size="14.00"> &#160;Providers</text>
<polygon fill="#fb8072" stroke="transparent" points="2084.5,-10 2084.5,-30 2104.5,-30 2104.5,-10 2084.5,-10"/>
<text text-anchor="start" x="2108.23" y="-15.4" font-family="Times-12" font-size="14.00"> &#160;Exports</text>
<g id="clust1" class="cluster">
<title>cluster_QuestaoModule</title>
<polygon fill="none" stroke="black" stroke-dasharray="1,5" points="8,-70 8,-268 3845,-268 3845,-70 8,-70"/>
</g>
<g id="clust16" class="cluster">
<title>cluster_QuestaoModule_imports</title>
<polygon fill="none" stroke="black" points="2338,-78 2338,-130 3837,-130 3837,-78 2338,-78"/>
</g>
<g id="clust17" class="cluster">
<title>cluster_QuestaoModule_exports</title>
<polygon fill="none" stroke="black" points="1364,-208 1364,-260 2639,-260 2639,-208 1364,-208"/>
</g>
<g id="clust2" class="cluster">
<title>cluster_QuestaoModule_declarations</title>
<polygon fill="none" stroke="black" points="16,-78 16,-130 2330,-130 2330,-78 16,-78"/>
</g>
<!-- CreateQuestaoComponent -->
<g id="node1" class="node">
<title>CreateQuestaoComponent</title>
<polygon fill="#ffffb3" stroke="black" points="2321.74,-122 2158.26,-122 2158.26,-86 2321.74,-86 2321.74,-122"/>
<text text-anchor="middle" x="2240" y="-99.8" font-family="Times,serif" font-size="14.00">CreateQuestaoComponent</text>
</g>
<!-- QuestaoModule -->
<g id="node14" class="node">
<title>QuestaoModule</title>
<polygon fill="#8dd3c7" stroke="black" points="2099.92,-187 2096.92,-191 2075.92,-191 2072.92,-187 1994.08,-187 1994.08,-151 2099.92,-151 2099.92,-187"/>
<text text-anchor="middle" x="2047" y="-164.8" font-family="Times,serif" font-size="14.00">QuestaoModule</text>
</g>
<!-- CreateQuestaoComponent&#45;&gt;QuestaoModule -->
<g id="edge1" class="edge">
<title>CreateQuestaoComponent&#45;&gt;QuestaoModule</title>
<path fill="none" stroke="black" d="M2216.24,-122.05C2216.24,-136.37 2216.24,-154 2216.24,-154 2216.24,-154 2110.08,-154 2110.08,-154"/>
<polygon fill="black" stroke="black" points="2110.08,-150.5 2100.08,-154 2110.08,-157.5 2110.08,-150.5"/>
</g>
<!-- GetSolvedByTrainComponent -->
<g id="node2" class="node">
<title>GetSolvedByTrainComponent</title>
<polygon fill="#ffffb3" stroke="black" points="2140.59,-122 1953.41,-122 1953.41,-86 2140.59,-86 2140.59,-122"/>
<text text-anchor="middle" x="2047" y="-99.8" font-family="Times,serif" font-size="14.00">GetSolvedByTrainComponent</text>
</g>
<!-- GetSolvedByTrainComponent&#45;&gt;QuestaoModule -->
<g id="edge2" class="edge">
<title>GetSolvedByTrainComponent&#45;&gt;QuestaoModule</title>
<path fill="none" stroke="black" d="M2047,-122.11C2047,-122.11 2047,-140.99 2047,-140.99"/>
<polygon fill="black" stroke="black" points="2043.5,-140.99 2047,-150.99 2050.5,-140.99 2043.5,-140.99"/>
</g>
<!-- ListQuestaoComponent -->
<g id="node3" class="node">
<title>ListQuestaoComponent</title>
<polygon fill="#ffffb3" stroke="black" points="1935.48,-122 1786.52,-122 1786.52,-86 1935.48,-86 1935.48,-122"/>
<text text-anchor="middle" x="1861" y="-99.8" font-family="Times,serif" font-size="14.00">ListQuestaoComponent</text>
</g>
<!-- ListQuestaoComponent&#45;&gt;QuestaoModule -->
<g id="edge3" class="edge">
<title>ListQuestaoComponent&#45;&gt;QuestaoModule</title>
<path fill="none" stroke="black" d="M1861,-122.05C1861,-136.37 1861,-154 1861,-154 1861,-154 1984.2,-154 1984.2,-154"/>
<polygon fill="black" stroke="black" points="1984.2,-157.5 1994.2,-154 1984.2,-150.5 1984.2,-157.5"/>
</g>
<!-- QualifierComponent -->
<g id="node4" class="node">
<title>QualifierComponent</title>
<polygon fill="#ffffb3" stroke="black" points="1768.86,-122 1637.14,-122 1637.14,-86 1768.86,-86 1768.86,-122"/>
<text text-anchor="middle" x="1703" y="-99.8" font-family="Times,serif" font-size="14.00">QualifierComponent</text>
</g>
<!-- QualifierComponent&#45;&gt;QuestaoModule -->
<g id="edge4" class="edge">
<title>QualifierComponent&#45;&gt;QuestaoModule</title>
<path fill="none" stroke="black" d="M1754.96,-122.19C1754.96,-137.18 1754.96,-156 1754.96,-156 1754.96,-156 1984.11,-156 1984.11,-156"/>
<polygon fill="black" stroke="black" points="1984.11,-159.5 1994.11,-156 1984.11,-152.5 1984.11,-159.5"/>
</g>
<!-- QuestaoComponent -->
<g id="node5" class="node">
<title>QuestaoComponent</title>
<polygon fill="#ffffb3" stroke="black" points="1618.7,-122 1491.3,-122 1491.3,-86 1618.7,-86 1618.7,-122"/>
<text text-anchor="middle" x="1555" y="-99.8" font-family="Times,serif" font-size="14.00">QuestaoComponent</text>
</g>
<!-- QuestaoComponent&#45;&gt;QuestaoModule -->
<g id="edge5" class="edge">
<title>QuestaoComponent&#45;&gt;QuestaoModule</title>
<path fill="none" stroke="black" d="M1585.02,-122.01C1585.02,-138.05 1585.02,-159 1585.02,-159 1585.02,-159 1984,-159 1984,-159"/>
<polygon fill="black" stroke="black" points="1984,-162.5 1994,-159 1984,-155.5 1984,-162.5"/>
</g>
<!-- QuestaoItemComponent -->
<g id="node6" class="node">
<title>QuestaoItemComponent</title>
<polygon fill="#ffffb3" stroke="black" points="1473.36,-122 1320.64,-122 1320.64,-86 1473.36,-86 1473.36,-122"/>
<text text-anchor="middle" x="1397" y="-99.8" font-family="Times,serif" font-size="14.00">QuestaoItemComponent</text>
</g>
<!-- QuestaoItemComponent&#45;&gt;QuestaoModule -->
<g id="edge6" class="edge">
<title>QuestaoItemComponent&#45;&gt;QuestaoModule</title>
<path fill="none" stroke="black" d="M1422.96,-122.04C1422.96,-138.73 1422.96,-161 1422.96,-161 1422.96,-161 1984.06,-161 1984.06,-161"/>
<polygon fill="black" stroke="black" points="1984.06,-164.5 1994.06,-161 1984.06,-157.5 1984.06,-164.5"/>
</g>
<!-- QuestionFilterComponent -->
<g id="node7" class="node">
<title>QuestionFilterComponent</title>
<polygon fill="#ffffb3" stroke="black" points="1302.21,-122 1139.79,-122 1139.79,-86 1302.21,-86 1302.21,-122"/>
<text text-anchor="middle" x="1221" y="-99.8" font-family="Times,serif" font-size="14.00">QuestionFilterComponent</text>
</g>
<!-- QuestionFilterComponent&#45;&gt;QuestaoModule -->
<g id="edge7" class="edge">
<title>QuestionFilterComponent&#45;&gt;QuestaoModule</title>
<path fill="none" stroke="black" d="M1221,-122.02C1221,-139.37 1221,-163 1221,-163 1221,-163 1984.07,-163 1984.07,-163"/>
<polygon fill="black" stroke="black" points="1984.07,-166.5 1994.07,-163 1984.07,-159.5 1984.07,-166.5"/>
</g>
<!-- SearchQuestionComponent -->
<g id="node8" class="node">
<title>SearchQuestionComponent</title>
<polygon fill="#ffffb3" stroke="black" points="1121.97,-122 952.03,-122 952.03,-86 1121.97,-86 1121.97,-122"/>
<text text-anchor="middle" x="1037" y="-99.8" font-family="Times,serif" font-size="14.00">SearchQuestionComponent</text>
</g>
<!-- SearchQuestionComponent&#45;&gt;QuestaoModule -->
<g id="edge8" class="edge">
<title>SearchQuestionComponent&#45;&gt;QuestaoModule</title>
<path fill="none" stroke="black" d="M1037,-122.27C1037,-140.56 1037,-166 1037,-166 1037,-166 1984.12,-166 1984.12,-166"/>
<polygon fill="black" stroke="black" points="1984.12,-169.5 1994.12,-166 1984.12,-162.5 1984.12,-169.5"/>
</g>
<!-- SelectToTrainComponent -->
<g id="node9" class="node">
<title>SelectToTrainComponent</title>
<polygon fill="#ffffb3" stroke="black" points="933.91,-122 772.09,-122 772.09,-86 933.91,-86 933.91,-122"/>
<text text-anchor="middle" x="853" y="-99.8" font-family="Times,serif" font-size="14.00">SelectToTrainComponent</text>
</g>
<!-- SelectToTrainComponent&#45;&gt;QuestaoModule -->
<g id="edge9" class="edge">
<title>SelectToTrainComponent&#45;&gt;QuestaoModule</title>
<path fill="none" stroke="black" d="M853,-122.17C853,-141.09 853,-168 853,-168 853,-168 1984.15,-168 1984.15,-168"/>
<polygon fill="black" stroke="black" points="1984.15,-171.5 1994.15,-168 1984.15,-164.5 1984.15,-171.5"/>
</g>
<!-- SelectableQuestaoListComponent -->
<g id="node10" class="node">
<title>SelectableQuestaoListComponent</title>
<polygon fill="#ffffb3" stroke="black" points="754.01,-122 547.99,-122 547.99,-86 754.01,-86 754.01,-122"/>
<text text-anchor="middle" x="651" y="-99.8" font-family="Times,serif" font-size="14.00">SelectableQuestaoListComponent</text>
</g>
<!-- SelectableQuestaoListComponent&#45;&gt;QuestaoModule -->
<g id="edge10" class="edge">
<title>SelectableQuestaoListComponent&#45;&gt;QuestaoModule</title>
<path fill="none" stroke="black" d="M651,-122.31C651,-142.15 651,-171 651,-171 651,-171 1983.98,-171 1983.98,-171"/>
<polygon fill="black" stroke="black" points="1983.98,-174.5 1993.98,-171 1983.98,-167.5 1983.98,-174.5"/>
</g>
<!-- SolveTrainComponent -->
<g id="node11" class="node">
<title>SolveTrainComponent</title>
<polygon fill="#ffffb3" stroke="black" points="529.54,-122 386.46,-122 386.46,-86 529.54,-86 529.54,-122"/>
<text text-anchor="middle" x="458" y="-99.8" font-family="Times,serif" font-size="14.00">SolveTrainComponent</text>
</g>
<!-- SolveTrainComponent&#45;&gt;QuestaoModule -->
<g id="edge11" class="edge">
<title>SolveTrainComponent&#45;&gt;QuestaoModule</title>
<path fill="none" stroke="black" d="M458,-122.13C458,-142.57 458,-173 458,-173 458,-173 1984.13,-173 1984.13,-173"/>
<polygon fill="black" stroke="black" points="1984.13,-176.5 1994.13,-173 1984.13,-169.5 1984.13,-176.5"/>
</g>
<!-- UpdateQuestaoComponent -->
<g id="node12" class="node">
<title>UpdateQuestaoComponent</title>
<polygon fill="#ffffb3" stroke="black" points="367.63,-122 200.37,-122 200.37,-86 367.63,-86 367.63,-122"/>
<text text-anchor="middle" x="284" y="-99.8" font-family="Times,serif" font-size="14.00">UpdateQuestaoComponent</text>
</g>
<!-- UpdateQuestaoComponent&#45;&gt;QuestaoModule -->
<g id="edge12" class="edge">
<title>UpdateQuestaoComponent&#45;&gt;QuestaoModule</title>
<path fill="none" stroke="black" d="M284,-122.28C284,-143.32 284,-175 284,-175 284,-175 1984.24,-175 1984.24,-175"/>
<polygon fill="black" stroke="black" points="1984.24,-178.5 1994.24,-175 1984.24,-171.5 1984.24,-178.5"/>
</g>
<!-- ViewQuestaoComponent -->
<g id="node13" class="node">
<title>ViewQuestaoComponent</title>
<polygon fill="#ffffb3" stroke="black" points="181.52,-122 24.48,-122 24.48,-86 181.52,-86 181.52,-122"/>
<text text-anchor="middle" x="103" y="-99.8" font-family="Times,serif" font-size="14.00">ViewQuestaoComponent</text>
</g>
<!-- ViewQuestaoComponent&#45;&gt;QuestaoModule -->
<g id="edge13" class="edge">
<title>ViewQuestaoComponent&#45;&gt;QuestaoModule</title>
<path fill="none" stroke="black" d="M103,-122.29C103,-144.21 103,-178 103,-178 103,-178 1984.25,-178 1984.25,-178"/>
<polygon fill="black" stroke="black" points="1984.25,-181.5 1994.25,-178 1984.25,-174.5 1984.25,-181.5"/>
</g>
<!-- CreateQuestaoComponent  -->
<g id="node25" class="node">
<title>CreateQuestaoComponent </title>
<polygon fill="#fb8072" stroke="black" points="2630.74,-252 2463.26,-252 2463.26,-216 2630.74,-216 2630.74,-252"/>
<text text-anchor="middle" x="2547" y="-229.8" font-family="Times,serif" font-size="14.00">CreateQuestaoComponent </text>
</g>
<!-- QuestaoModule&#45;&gt;CreateQuestaoComponent  -->
<g id="edge24" class="edge">
<title>QuestaoModule&#45;&gt;CreateQuestaoComponent </title>
<path fill="none" stroke="black" stroke-dasharray="5,2" d="M2100.07,-180C2215.65,-180 2479.83,-180 2479.83,-180 2479.83,-180 2479.83,-205.72 2479.83,-205.72"/>
<polygon fill="black" stroke="black" points="2476.33,-205.72 2479.83,-215.72 2483.33,-205.72 2476.33,-205.72"/>
</g>
<!-- ListQuestaoComponent  -->
<g id="node26" class="node">
<title>ListQuestaoComponent </title>
<polygon fill="#fb8072" stroke="black" points="2445.48,-252 2292.52,-252 2292.52,-216 2445.48,-216 2445.48,-252"/>
<text text-anchor="middle" x="2369" y="-229.8" font-family="Times,serif" font-size="14.00">ListQuestaoComponent </text>
</g>
<!-- QuestaoModule&#45;&gt;ListQuestaoComponent  -->
<g id="edge25" class="edge">
<title>QuestaoModule&#45;&gt;ListQuestaoComponent </title>
<path fill="none" stroke="black" stroke-dasharray="5,2" d="M2099.99,-183C2176.1,-183 2307.31,-183 2307.31,-183 2307.31,-183 2307.31,-205.88 2307.31,-205.88"/>
<polygon fill="black" stroke="black" points="2303.81,-205.88 2307.31,-215.88 2310.81,-205.88 2303.81,-205.88"/>
</g>
<!-- QuestaoComponent  -->
<g id="node27" class="node">
<title>QuestaoComponent </title>
<polygon fill="#fb8072" stroke="black" points="2274.2,-252 2143.8,-252 2143.8,-216 2274.2,-216 2274.2,-252"/>
<text text-anchor="middle" x="2209" y="-229.8" font-family="Times,serif" font-size="14.00">QuestaoComponent </text>
</g>
<!-- QuestaoModule&#45;&gt;QuestaoComponent  -->
<g id="edge26" class="edge">
<title>QuestaoModule&#45;&gt;QuestaoComponent </title>
<path fill="none" stroke="black" stroke-dasharray="5,2" d="M2099.86,-185C2125.52,-185 2150.89,-185 2150.89,-185 2150.89,-185 2150.89,-205.75 2150.89,-205.75"/>
<polygon fill="black" stroke="black" points="2147.39,-205.75 2150.89,-215.75 2154.39,-205.75 2147.39,-205.75"/>
</g>
<!-- QuestaoItemComponent  -->
<g id="node28" class="node">
<title>QuestaoItemComponent </title>
<polygon fill="#fb8072" stroke="black" points="2125.36,-252 1968.64,-252 1968.64,-216 2125.36,-216 2125.36,-252"/>
<text text-anchor="middle" x="2047" y="-229.8" font-family="Times,serif" font-size="14.00">QuestaoItemComponent </text>
</g>
<!-- QuestaoModule&#45;&gt;QuestaoItemComponent  -->
<g id="edge27" class="edge">
<title>QuestaoModule&#45;&gt;QuestaoItemComponent </title>
<path fill="none" stroke="black" stroke-dasharray="5,2" d="M2047,-187.11C2047,-187.11 2047,-205.99 2047,-205.99"/>
<polygon fill="black" stroke="black" points="2043.5,-205.99 2047,-215.99 2050.5,-205.99 2043.5,-205.99"/>
</g>
<!-- SelectableQuestaoListComponent  -->
<g id="node29" class="node">
<title>SelectableQuestaoListComponent </title>
<polygon fill="#fb8072" stroke="black" points="1951.01,-252 1740.99,-252 1740.99,-216 1951.01,-216 1951.01,-252"/>
<text text-anchor="middle" x="1846" y="-229.8" font-family="Times,serif" font-size="14.00">SelectableQuestaoListComponent </text>
</g>
<!-- QuestaoModule&#45;&gt;SelectableQuestaoListComponent  -->
<g id="edge28" class="edge">
<title>QuestaoModule&#45;&gt;SelectableQuestaoListComponent </title>
<path fill="none" stroke="black" stroke-dasharray="5,2" d="M1994.21,-185C1968.58,-185 1943.25,-185 1943.25,-185 1943.25,-185 1943.25,-205.75 1943.25,-205.75"/>
<polygon fill="black" stroke="black" points="1939.75,-205.75 1943.25,-215.75 1946.75,-205.75 1939.75,-205.75"/>
</g>
<!-- UpdateQuestaoComponent  -->
<g id="node30" class="node">
<title>UpdateQuestaoComponent </title>
<polygon fill="#fb8072" stroke="black" points="1722.63,-252 1551.37,-252 1551.37,-216 1722.63,-216 1722.63,-252"/>
<text text-anchor="middle" x="1637" y="-229.8" font-family="Times,serif" font-size="14.00">UpdateQuestaoComponent </text>
</g>
<!-- QuestaoModule&#45;&gt;UpdateQuestaoComponent  -->
<g id="edge29" class="edge">
<title>QuestaoModule&#45;&gt;UpdateQuestaoComponent </title>
<path fill="none" stroke="black" stroke-dasharray="5,2" d="M1994,-183C1892.32,-183 1679.82,-183 1679.82,-183 1679.82,-183 1679.82,-205.88 1679.82,-205.88"/>
<polygon fill="black" stroke="black" points="1676.32,-205.88 1679.82,-215.88 1683.32,-205.88 1676.32,-205.88"/>
</g>
<!-- ViewQuestaoComponent  -->
<g id="node31" class="node">
<title>ViewQuestaoComponent </title>
<polygon fill="#fb8072" stroke="black" points="1533.52,-252 1372.48,-252 1372.48,-216 1533.52,-216 1533.52,-252"/>
<text text-anchor="middle" x="1453" y="-229.8" font-family="Times,serif" font-size="14.00">ViewQuestaoComponent </text>
</g>
<!-- QuestaoModule&#45;&gt;ViewQuestaoComponent  -->
<g id="edge30" class="edge">
<title>QuestaoModule&#45;&gt;ViewQuestaoComponent </title>
<path fill="none" stroke="black" stroke-dasharray="5,2" d="M1994.28,-180C1859.43,-180 1512.45,-180 1512.45,-180 1512.45,-180 1512.45,-205.72 1512.45,-205.72"/>
<polygon fill="black" stroke="black" points="1508.95,-205.72 1512.45,-215.72 1515.95,-205.72 1508.95,-205.72"/>
</g>
<!-- AlternativaModule -->
<g id="node15" class="node">
<title>AlternativaModule</title>
<polygon fill="#8dd3c7" stroke="black" points="3829.02,-122 3826.02,-126 3805.02,-126 3802.02,-122 3706.98,-122 3706.98,-86 3829.02,-86 3829.02,-122"/>
<text text-anchor="middle" x="3768" y="-99.8" font-family="Times,serif" font-size="14.00">AlternativaModule</text>
</g>
<!-- AlternativaModule&#45;&gt;QuestaoModule -->
<g id="edge14" class="edge">
<title>AlternativaModule&#45;&gt;QuestaoModule</title>
<path fill="none" stroke="black" d="M3768,-122.29C3768,-144.21 3768,-178 3768,-178 3768,-178 2109.92,-178 2109.92,-178"/>
<polygon fill="black" stroke="black" points="2109.92,-174.5 2099.92,-178 2109.92,-181.5 2109.92,-174.5"/>
</g>
<!-- CollapseAccordionModule -->
<g id="node16" class="node">
<title>CollapseAccordionModule</title>
<polygon fill="#8dd3c7" stroke="black" points="3688.63,-122 3685.63,-126 3664.63,-126 3661.63,-122 3521.37,-122 3521.37,-86 3688.63,-86 3688.63,-122"/>
<text text-anchor="middle" x="3605" y="-99.8" font-family="Times,serif" font-size="14.00">CollapseAccordionModule</text>
</g>
<!-- CollapseAccordionModule&#45;&gt;QuestaoModule -->
<g id="edge15" class="edge">
<title>CollapseAccordionModule&#45;&gt;QuestaoModule</title>
<path fill="none" stroke="black" d="M3605,-122.28C3605,-143.32 3605,-175 3605,-175 3605,-175 2109.73,-175 2109.73,-175"/>
<polygon fill="black" stroke="black" points="2109.73,-171.5 2099.73,-175 2109.73,-178.5 2109.73,-171.5"/>
</g>
<!-- CorrecaoModule -->
<g id="node17" class="node">
<title>CorrecaoModule</title>
<polygon fill="#8dd3c7" stroke="black" points="3503.35,-122 3500.35,-126 3479.35,-126 3476.35,-122 3392.65,-122 3392.65,-86 3503.35,-86 3503.35,-122"/>
<text text-anchor="middle" x="3448" y="-99.8" font-family="Times,serif" font-size="14.00">CorrecaoModule</text>
</g>
<!-- CorrecaoModule&#45;&gt;QuestaoModule -->
<g id="edge16" class="edge">
<title>CorrecaoModule&#45;&gt;QuestaoModule</title>
<path fill="none" stroke="black" d="M3448,-122.13C3448,-142.57 3448,-173 3448,-173 3448,-173 2109.79,-173 2109.79,-173"/>
<polygon fill="black" stroke="black" points="2109.79,-169.5 2099.79,-173 2109.79,-176.5 2109.79,-169.5"/>
</g>
<!-- DyamicSelectModule -->
<g id="node18" class="node">
<title>DyamicSelectModule</title>
<polygon fill="#8dd3c7" stroke="black" points="3375.07,-122 3372.07,-126 3351.07,-126 3348.07,-122 3236.93,-122 3236.93,-86 3375.07,-86 3375.07,-122"/>
<text text-anchor="middle" x="3306" y="-99.8" font-family="Times,serif" font-size="14.00">DyamicSelectModule</text>
</g>
<!-- DyamicSelectModule&#45;&gt;QuestaoModule -->
<g id="edge17" class="edge">
<title>DyamicSelectModule&#45;&gt;QuestaoModule</title>
<path fill="none" stroke="black" d="M3306,-122.31C3306,-142.15 3306,-171 3306,-171 3306,-171 2109.89,-171 2109.89,-171"/>
<polygon fill="black" stroke="black" points="2109.89,-167.5 2099.89,-171 2109.89,-174.5 2109.89,-167.5"/>
</g>
<!-- DynamicTableModule -->
<g id="node19" class="node">
<title>DynamicTableModule</title>
<polygon fill="#8dd3c7" stroke="black" points="3219.24,-122 3216.24,-126 3195.24,-126 3192.24,-122 3076.76,-122 3076.76,-86 3219.24,-86 3219.24,-122"/>
<text text-anchor="middle" x="3148" y="-99.8" font-family="Times,serif" font-size="14.00">DynamicTableModule</text>
</g>
<!-- DynamicTableModule&#45;&gt;QuestaoModule -->
<g id="edge18" class="edge">
<title>DynamicTableModule&#45;&gt;QuestaoModule</title>
<path fill="none" stroke="black" d="M3148,-122.17C3148,-141.09 3148,-168 3148,-168 3148,-168 2109.73,-168 2109.73,-168"/>
<polygon fill="black" stroke="black" points="2109.73,-164.5 2099.73,-168 2109.73,-171.5 2109.73,-164.5"/>
</g>
<!-- DynamicVideoListModule -->
<g id="node20" class="node">
<title>DynamicVideoListModule</title>
<polygon fill="#8dd3c7" stroke="black" points="3058.36,-122 3055.36,-126 3034.36,-126 3031.36,-122 2891.64,-122 2891.64,-86 3058.36,-86 3058.36,-122"/>
<text text-anchor="middle" x="2975" y="-99.8" font-family="Times,serif" font-size="14.00">DynamicVideoListModule</text>
</g>
<!-- DynamicVideoListModule&#45;&gt;QuestaoModule -->
<g id="edge19" class="edge">
<title>DynamicVideoListModule&#45;&gt;QuestaoModule</title>
<path fill="none" stroke="black" d="M2975,-122.27C2975,-140.56 2975,-166 2975,-166 2975,-166 2109.89,-166 2109.89,-166"/>
<polygon fill="black" stroke="black" points="2109.89,-162.5 2099.89,-166 2109.89,-169.5 2109.89,-162.5"/>
</g>
<!-- ImageInputModule -->
<g id="node21" class="node">
<title>ImageInputModule</title>
<polygon fill="#8dd3c7" stroke="black" points="2874.08,-122 2871.08,-126 2850.08,-126 2847.08,-122 2749.92,-122 2749.92,-86 2874.08,-86 2874.08,-122"/>
<text text-anchor="middle" x="2812" y="-99.8" font-family="Times,serif" font-size="14.00">ImageInputModule</text>
</g>
<!-- ImageInputModule&#45;&gt;QuestaoModule -->
<g id="edge20" class="edge">
<title>ImageInputModule&#45;&gt;QuestaoModule</title>
<path fill="none" stroke="black" d="M2812,-122.02C2812,-139.37 2812,-163 2812,-163 2812,-163 2109.88,-163 2109.88,-163"/>
<polygon fill="black" stroke="black" points="2109.88,-159.5 2099.88,-163 2109.88,-166.5 2109.88,-159.5"/>
</g>
<!-- ModalModule -->
<g id="node22" class="node">
<title>ModalModule</title>
<polygon fill="#8dd3c7" stroke="black" points="2732.1,-122 2729.1,-126 2708.1,-126 2705.1,-122 2635.9,-122 2635.9,-86 2732.1,-86 2732.1,-122"/>
<text text-anchor="middle" x="2684" y="-99.8" font-family="Times,serif" font-size="14.00">ModalModule</text>
</g>
<!-- ModalModule&#45;&gt;QuestaoModule -->
<g id="edge21" class="edge">
<title>ModalModule&#45;&gt;QuestaoModule</title>
<path fill="none" stroke="black" d="M2684,-122.04C2684,-138.73 2684,-161 2684,-161 2684,-161 2109.94,-161 2109.94,-161"/>
<polygon fill="black" stroke="black" points="2109.94,-157.5 2099.94,-161 2109.94,-164.5 2109.94,-157.5"/>
</g>
<!-- ModuloModule -->
<g id="node23" class="node">
<title>ModuloModule</title>
<polygon fill="#8dd3c7" stroke="black" points="2617.89,-122 2614.89,-126 2593.89,-126 2590.89,-122 2514.11,-122 2514.11,-86 2617.89,-86 2617.89,-122"/>
<text text-anchor="middle" x="2566" y="-99.8" font-family="Times,serif" font-size="14.00">ModuloModule</text>
</g>
<!-- ModuloModule&#45;&gt;QuestaoModule -->
<g id="edge22" class="edge">
<title>ModuloModule&#45;&gt;QuestaoModule</title>
<path fill="none" stroke="black" d="M2566,-122.01C2566,-138.05 2566,-159 2566,-159 2566,-159 2110.1,-159 2110.1,-159"/>
<polygon fill="black" stroke="black" points="2110.1,-155.5 2100.1,-159 2110.1,-162.5 2110.1,-155.5"/>
</g>
<!-- QuestaoRoutingModule -->
<g id="node24" class="node">
<title>QuestaoRoutingModule</title>
<polygon fill="#8dd3c7" stroke="black" points="2496.04,-122 2493.04,-126 2472.04,-126 2469.04,-122 2345.96,-122 2345.96,-86 2496.04,-86 2496.04,-122"/>
<text text-anchor="middle" x="2421" y="-99.8" font-family="Times,serif" font-size="14.00">QuestaoRoutingModule</text>
</g>
<!-- QuestaoRoutingModule&#45;&gt;QuestaoModule -->
<g id="edge23" class="edge">
<title>QuestaoRoutingModule&#45;&gt;QuestaoModule</title>
<path fill="none" stroke="black" d="M2395.49,-122.19C2395.49,-137.18 2395.49,-156 2395.49,-156 2395.49,-156 2109.93,-156 2109.93,-156"/>
<polygon fill="black" stroke="black" points="2109.93,-152.5 2099.93,-156 2109.93,-159.5 2109.93,-152.5"/>
</g>
</g>
</svg>
