<?xml version="1.0" encoding="UTF-8" standalone="no"?>
<!DOCTYPE svg PUBLIC "-//W3C//DTD SVG 1.1//EN"
 "http://www.w3.org/Graphics/SVG/1.1/DTD/svg11.dtd">
<!-- Generated by graphviz version 2.47.0 (20210316.0004)
 -->
<!-- Title: dependencies Pages: 1 -->
<svg width="1014pt" height="211pt"
 viewBox="0.00 0.00 1014.00 211.00" xmlns="http://www.w3.org/2000/svg" xmlns:xlink="http://www.w3.org/1999/xlink">
<g id="graph0" class="graph" transform="scale(1 1) rotate(0) translate(4 207)">
<title>dependencies</title>
<polygon fill="white" stroke="transparent" points="-4,4 -4,-207 1010,-207 1010,4 -4,4"/>
<text text-anchor="start" x="482.01" y="-42.4" font-family="Times-12" font-weight="bold" font-size="14.00">Legend</text>
<polygon fill="#ffffb3" stroke="transparent" points="269,-10 269,-30 289,-30 289,-10 269,-10"/>
<text text-anchor="start" x="292.63" y="-15.4" font-family="Times-12" font-size="14.00"> &#160;Declarations</text>
<polygon fill="#8dd3c7" stroke="transparent" points="382,-10 382,-30 402,-30 402,-10 382,-10"/>
<text text-anchor="start" x="405.73" y="-15.4" font-family="Times-12" font-size="14.00"> &#160;Module</text>
<polygon fill="#80b1d3" stroke="transparent" points="468,-10 468,-30 488,-30 488,-10 468,-10"/>
<text text-anchor="start" x="491.78" y="-15.4" font-family="Times-12" font-size="14.00"> &#160;Bootstrap</text>
<polygon fill="#fdb462" stroke="transparent" points="565,-10 565,-30 585,-30 585,-10 565,-10"/>
<text text-anchor="start" x="588.67" y="-15.4" font-family="Times-12" font-size="14.00"> &#160;Providers</text>
<polygon fill="#fb8072" stroke="transparent" points="661,-10 661,-30 681,-30 681,-10 661,-10"/>
<text text-anchor="start" x="684.73" y="-15.4" font-family="Times-12" font-size="14.00"> &#160;Exports</text>
<g id="clust1" class="cluster">
<title>cluster_OrgaosModule</title>
<polygon fill="none" stroke="black" stroke-dasharray="1,5" points="8,-70 8,-195 998,-195 998,-70 8,-70"/>
</g>
<g id="clust2" class="cluster">
<title>cluster_OrgaosModule_declarations</title>
<polygon fill="none" stroke="black" points="346,-78 346,-130 990,-130 990,-78 346,-78"/>
</g>
<g id="clust7" class="cluster">
<title>cluster_OrgaosModule_imports</title>
<polygon fill="none" stroke="black" points="16,-78 16,-130 338,-130 338,-78 16,-78"/>
</g>
<!-- CreateOrgaoComponent -->
<g id="node1" class="node">
<title>CreateOrgaoComponent</title>
<polygon fill="#ffffb3" stroke="black" points="982.35,-122 829.65,-122 829.65,-86 982.35,-86 982.35,-122"/>
<text text-anchor="middle" x="906" y="-99.8" font-family="Times,serif" font-size="14.00">CreateOrgaoComponent</text>
</g>
<!-- OrgaosModule -->
<g id="node5" class="node">
<title>OrgaosModule</title>
<polygon fill="#8dd3c7" stroke="black" points="559.98,-187 556.98,-191 535.98,-191 532.98,-187 460.02,-187 460.02,-151 559.98,-151 559.98,-187"/>
<text text-anchor="middle" x="510" y="-164.8" font-family="Times,serif" font-size="14.00">OrgaosModule</text>
</g>
<!-- CreateOrgaoComponent&#45;&gt;OrgaosModule -->
<g id="edge1" class="edge">
<title>CreateOrgaoComponent&#45;&gt;OrgaosModule</title>
<path fill="none" stroke="black" d="M906,-122.28C906,-143.32 906,-175 906,-175 906,-175 570.15,-175 570.15,-175"/>
<polygon fill="black" stroke="black" points="570.15,-171.5 560.15,-175 570.15,-178.5 570.15,-171.5"/>
</g>
<!-- ListOrgaosComponent -->
<g id="node2" class="node">
<title>ListOrgaosComponent</title>
<polygon fill="#ffffb3" stroke="black" points="811.54,-122 668.46,-122 668.46,-86 811.54,-86 811.54,-122"/>
<text text-anchor="middle" x="740" y="-99.8" font-family="Times,serif" font-size="14.00">ListOrgaosComponent</text>
</g>
<!-- ListOrgaosComponent&#45;&gt;OrgaosModule -->
<g id="edge2" class="edge">
<title>ListOrgaosComponent&#45;&gt;OrgaosModule</title>
<path fill="none" stroke="black" d="M740,-122.02C740,-139.37 740,-163 740,-163 740,-163 570.19,-163 570.19,-163"/>
<polygon fill="black" stroke="black" points="570.19,-159.5 560.19,-163 570.19,-166.5 570.19,-159.5"/>
</g>
<!-- OrgaosComponent -->
<g id="node3" class="node">
<title>OrgaosComponent</title>
<polygon fill="#ffffb3" stroke="black" points="649.76,-122 528.24,-122 528.24,-86 649.76,-86 649.76,-122"/>
<text text-anchor="middle" x="589" y="-99.8" font-family="Times,serif" font-size="14.00">OrgaosComponent</text>
</g>
<!-- OrgaosComponent&#45;&gt;OrgaosModule -->
<g id="edge3" class="edge">
<title>OrgaosComponent&#45;&gt;OrgaosModule</title>
<path fill="none" stroke="black" d="M544.05,-122.11C544.05,-122.11 544.05,-140.99 544.05,-140.99"/>
<polygon fill="black" stroke="black" points="540.55,-140.99 544.05,-150.99 547.55,-140.99 540.55,-140.99"/>
</g>
<!-- UpdateOrgaoComponent -->
<g id="node4" class="node">
<title>UpdateOrgaoComponent</title>
<polygon fill="#ffffb3" stroke="black" points="510.24,-122 353.76,-122 353.76,-86 510.24,-86 510.24,-122"/>
<text text-anchor="middle" x="432" y="-99.8" font-family="Times,serif" font-size="14.00">UpdateOrgaoComponent</text>
</g>
<!-- UpdateOrgaoComponent&#45;&gt;OrgaosModule -->
<g id="edge4" class="edge">
<title>UpdateOrgaoComponent&#45;&gt;OrgaosModule</title>
<path fill="none" stroke="black" d="M485.19,-122.11C485.19,-122.11 485.19,-140.99 485.19,-140.99"/>
<polygon fill="black" stroke="black" points="481.69,-140.99 485.19,-150.99 488.69,-140.99 481.69,-140.99"/>
</g>
<!-- DynamicTableModule -->
<g id="node6" class="node">
<title>DynamicTableModule</title>
<polygon fill="#8dd3c7" stroke="black" points="330.24,-122 327.24,-126 306.24,-126 303.24,-122 187.76,-122 187.76,-86 330.24,-86 330.24,-122"/>
<text text-anchor="middle" x="259" y="-99.8" font-family="Times,serif" font-size="14.00">DynamicTableModule</text>
</g>
<!-- DynamicTableModule&#45;&gt;OrgaosModule -->
<g id="edge5" class="edge">
<title>DynamicTableModule&#45;&gt;OrgaosModule</title>
<path fill="none" stroke="black" d="M259,-122.02C259,-139.37 259,-163 259,-163 259,-163 449.81,-163 449.81,-163"/>
<polygon fill="black" stroke="black" points="449.81,-166.5 459.81,-163 449.81,-159.5 449.81,-166.5"/>
</g>
<!-- OrgaosRoutingModule -->
<g id="node7" class="node">
<title>OrgaosRoutingModule</title>
<polygon fill="#8dd3c7" stroke="black" points="169.59,-122 166.59,-126 145.59,-126 142.59,-122 24.41,-122 24.41,-86 169.59,-86 169.59,-122"/>
<text text-anchor="middle" x="97" y="-99.8" font-family="Times,serif" font-size="14.00">OrgaosRoutingModule</text>
</g>
<!-- OrgaosRoutingModule&#45;&gt;OrgaosModule -->
<g id="edge6" class="edge">
<title>OrgaosRoutingModule&#45;&gt;OrgaosModule</title>
<path fill="none" stroke="black" d="M97,-122.28C97,-143.32 97,-175 97,-175 97,-175 449.77,-175 449.77,-175"/>
<polygon fill="black" stroke="black" points="449.77,-178.5 459.77,-175 449.77,-171.5 449.77,-178.5"/>
</g>
</g>
</svg>
