<?xml version="1.0" encoding="UTF-8" standalone="no"?>
<!DOCTYPE svg PUBLIC "-//W3C//DTD SVG 1.1//EN"
 "http://www.w3.org/Graphics/SVG/1.1/DTD/svg11.dtd">
<!-- Generated by graphviz version 2.47.0 (20210316.0004)
 -->
<!-- Title: dependencies Pages: 1 -->
<svg width="712pt" height="284pt"
 viewBox="0.00 0.00 712.00 284.00" xmlns="http://www.w3.org/2000/svg" xmlns:xlink="http://www.w3.org/1999/xlink">
<g id="graph0" class="graph" transform="scale(1 1) rotate(0) translate(4 280)">
<title>dependencies</title>
<polygon fill="white" stroke="transparent" points="-4,4 -4,-280 708,-280 708,4 -4,4"/>
<text text-anchor="start" x="331.01" y="-42.4" font-family="Times-12" font-weight="bold" font-size="14.00">Legend</text>
<polygon fill="#ffffb3" stroke="transparent" points="118,-10 118,-30 138,-30 138,-10 118,-10"/>
<text text-anchor="start" x="141.63" y="-15.4" font-family="Times-12" font-size="14.00"> &#160;Declarations</text>
<polygon fill="#8dd3c7" stroke="transparent" points="231,-10 231,-30 251,-30 251,-10 231,-10"/>
<text text-anchor="start" x="254.73" y="-15.4" font-family="Times-12" font-size="14.00"> &#160;Module</text>
<polygon fill="#80b1d3" stroke="transparent" points="317,-10 317,-30 337,-30 337,-10 317,-10"/>
<text text-anchor="start" x="340.78" y="-15.4" font-family="Times-12" font-size="14.00"> &#160;Bootstrap</text>
<polygon fill="#fdb462" stroke="transparent" points="414,-10 414,-30 434,-30 434,-10 414,-10"/>
<text text-anchor="start" x="437.67" y="-15.4" font-family="Times-12" font-size="14.00"> &#160;Providers</text>
<polygon fill="#fb8072" stroke="transparent" points="510,-10 510,-30 530,-30 530,-10 510,-10"/>
<text text-anchor="start" x="533.73" y="-15.4" font-family="Times-12" font-size="14.00"> &#160;Exports</text>
<g id="clust1" class="cluster">
<title>cluster_DynamicTableModule</title>
<polygon fill="none" stroke="black" stroke-dasharray="1,5" points="8,-70 8,-268 696,-268 696,-70 8,-70"/>
</g>
<g id="clust5" class="cluster">
<title>cluster_DynamicTableModule_exports</title>
<polygon fill="none" stroke="black" points="267,-208 267,-260 451,-260 451,-208 267,-208"/>
</g>
<g id="clust4" class="cluster">
<title>cluster_DynamicTableModule_imports</title>
<polygon fill="none" stroke="black" points="204,-78 204,-130 688,-130 688,-78 204,-78"/>
</g>
<g id="clust2" class="cluster">
<title>cluster_DynamicTableModule_declarations</title>
<polygon fill="none" stroke="black" points="16,-78 16,-130 196,-130 196,-78 16,-78"/>
</g>
<!-- DynamicTableComponent -->
<g id="node1" class="node">
<title>DynamicTableComponent</title>
<polygon fill="#ffffb3" stroke="black" points="188.02,-122 23.98,-122 23.98,-86 188.02,-86 188.02,-122"/>
<text text-anchor="middle" x="106" y="-99.8" font-family="Times,serif" font-size="14.00">DynamicTableComponent</text>
</g>
<!-- DynamicTableModule -->
<g id="node2" class="node">
<title>DynamicTableModule</title>
<polygon fill="#8dd3c7" stroke="black" points="430.24,-187 427.24,-191 406.24,-191 403.24,-187 287.76,-187 287.76,-151 430.24,-151 430.24,-187"/>
<text text-anchor="middle" x="359" y="-164.8" font-family="Times,serif" font-size="14.00">DynamicTableModule</text>
</g>
<!-- DynamicTableComponent&#45;&gt;DynamicTableModule -->
<g id="edge1" class="edge">
<title>DynamicTableComponent&#45;&gt;DynamicTableModule</title>
<path fill="none" stroke="black" d="M106,-122.11C106,-141.34 106,-169 106,-169 106,-169 277.51,-169 277.51,-169"/>
<polygon fill="black" stroke="black" points="277.51,-172.5 287.51,-169 277.51,-165.5 277.51,-172.5"/>
</g>
<!-- DynamicTableComponent  -->
<g id="node6" class="node">
<title>DynamicTableComponent </title>
<polygon fill="#fb8072" stroke="black" points="443.02,-252 274.98,-252 274.98,-216 443.02,-216 443.02,-252"/>
<text text-anchor="middle" x="359" y="-229.8" font-family="Times,serif" font-size="14.00">DynamicTableComponent </text>
</g>
<!-- DynamicTableModule&#45;&gt;DynamicTableComponent  -->
<g id="edge5" class="edge">
<title>DynamicTableModule&#45;&gt;DynamicTableComponent </title>
<path fill="none" stroke="black" stroke-dasharray="5,2" d="M359,-187.11C359,-187.11 359,-205.99 359,-205.99"/>
<polygon fill="black" stroke="black" points="355.5,-205.99 359,-215.99 362.5,-205.99 355.5,-205.99"/>
</g>
<!-- DyamicSelectModule -->
<g id="node3" class="node">
<title>DyamicSelectModule</title>
<polygon fill="#8dd3c7" stroke="black" points="680.07,-122 677.07,-126 656.07,-126 653.07,-122 541.93,-122 541.93,-86 680.07,-86 680.07,-122"/>
<text text-anchor="middle" x="611" y="-99.8" font-family="Times,serif" font-size="14.00">DyamicSelectModule</text>
</g>
<!-- DyamicSelectModule&#45;&gt;DynamicTableModule -->
<g id="edge2" class="edge">
<title>DyamicSelectModule&#45;&gt;DynamicTableModule</title>
<path fill="none" stroke="black" d="M611,-122.11C611,-141.34 611,-169 611,-169 611,-169 440.54,-169 440.54,-169"/>
<polygon fill="black" stroke="black" points="440.54,-165.5 430.54,-169 440.54,-172.5 440.54,-165.5"/>
</g>
<!-- DynamicPaginatorModule -->
<g id="node4" class="node">
<title>DynamicPaginatorModule</title>
<polygon fill="#8dd3c7" stroke="black" points="524.02,-122 521.02,-126 500.02,-126 497.02,-122 359.98,-122 359.98,-86 524.02,-86 524.02,-122"/>
<text text-anchor="middle" x="442" y="-99.8" font-family="Times,serif" font-size="14.00">DynamicPaginatorModule</text>
</g>
<!-- DynamicPaginatorModule&#45;&gt;DynamicTableModule -->
<g id="edge3" class="edge">
<title>DynamicPaginatorModule&#45;&gt;DynamicTableModule</title>
<path fill="none" stroke="black" d="M395.05,-122.11C395.05,-122.11 395.05,-140.99 395.05,-140.99"/>
<polygon fill="black" stroke="black" points="391.55,-140.99 395.05,-150.99 398.55,-140.99 391.55,-140.99"/>
</g>
<!-- SearchTableModule -->
<g id="node5" class="node">
<title>SearchTableModule</title>
<polygon fill="#8dd3c7" stroke="black" points="341.51,-122 338.51,-126 317.51,-126 314.51,-122 212.49,-122 212.49,-86 341.51,-86 341.51,-122"/>
<text text-anchor="middle" x="277" y="-99.8" font-family="Times,serif" font-size="14.00">SearchTableModule</text>
</g>
<!-- SearchTableModule&#45;&gt;DynamicTableModule -->
<g id="edge4" class="edge">
<title>SearchTableModule&#45;&gt;DynamicTableModule</title>
<path fill="none" stroke="black" d="M314.69,-122.11C314.69,-122.11 314.69,-140.99 314.69,-140.99"/>
<polygon fill="black" stroke="black" points="311.19,-140.99 314.69,-150.99 318.19,-140.99 311.19,-140.99"/>
</g>
</g>
</svg>
