<?xml version="1.0" encoding="UTF-8" standalone="no"?>
<!DOCTYPE svg PUBLIC "-//W3C//DTD SVG 1.1//EN"
 "http://www.w3.org/Graphics/SVG/1.1/DTD/svg11.dtd">
<!-- Generated by graphviz version 2.47.0 (20210316.0004)
 -->
<!-- Title: dependencies Pages: 1 -->
<svg width="504pt" height="284pt"
 viewBox="0.00 0.00 504.00 284.00" xmlns="http://www.w3.org/2000/svg" xmlns:xlink="http://www.w3.org/1999/xlink">
<g id="graph0" class="graph" transform="scale(1 1) rotate(0) translate(4 280)">
<title>dependencies</title>
<polygon fill="white" stroke="transparent" points="-4,4 -4,-280 500,-280 500,4 -4,4"/>
<text text-anchor="start" x="227.01" y="-42.4" font-family="Times-12" font-weight="bold" font-size="14.00">Legend</text>
<polygon fill="#ffffb3" stroke="transparent" points="14,-10 14,-30 34,-30 34,-10 14,-10"/>
<text text-anchor="start" x="37.63" y="-15.4" font-family="Times-12" font-size="14.00"> &#160;Declarations</text>
<polygon fill="#8dd3c7" stroke="transparent" points="127,-10 127,-30 147,-30 147,-10 127,-10"/>
<text text-anchor="start" x="150.73" y="-15.4" font-family="Times-12" font-size="14.00"> &#160;Module</text>
<polygon fill="#80b1d3" stroke="transparent" points="213,-10 213,-30 233,-30 233,-10 213,-10"/>
<text text-anchor="start" x="236.78" y="-15.4" font-family="Times-12" font-size="14.00"> &#160;Bootstrap</text>
<polygon fill="#fdb462" stroke="transparent" points="310,-10 310,-30 330,-30 330,-10 310,-10"/>
<text text-anchor="start" x="333.67" y="-15.4" font-family="Times-12" font-size="14.00"> &#160;Providers</text>
<polygon fill="#fb8072" stroke="transparent" points="406,-10 406,-30 426,-30 426,-10 406,-10"/>
<text text-anchor="start" x="429.73" y="-15.4" font-family="Times-12" font-size="14.00"> &#160;Exports</text>
<g id="clust1" class="cluster">
<title>cluster_CollapseAccordionModule</title>
<polygon fill="none" stroke="black" stroke-dasharray="1,5" points="47,-70 47,-268 449,-268 449,-70 47,-70"/>
</g>
<g id="clust6" class="cluster">
<title>cluster_CollapseAccordionModule_exports</title>
<polygon fill="none" stroke="black" points="55,-208 55,-260 441,-260 441,-208 55,-208"/>
</g>
<g id="clust2" class="cluster">
<title>cluster_CollapseAccordionModule_declarations</title>
<polygon fill="none" stroke="black" points="58,-78 58,-130 438,-130 438,-78 58,-78"/>
</g>
<!-- CollapseAccordionComponent -->
<g id="node1" class="node">
<title>CollapseAccordionComponent</title>
<polygon fill="#ffffb3" stroke="black" points="429.91,-122 240.09,-122 240.09,-86 429.91,-86 429.91,-122"/>
<text text-anchor="middle" x="335" y="-99.8" font-family="Times,serif" font-size="14.00">CollapseAccordionComponent</text>
</g>
<!-- CollapseAccordionModule -->
<g id="node3" class="node">
<title>CollapseAccordionModule</title>
<polygon fill="#8dd3c7" stroke="black" points="228.63,-187 225.63,-191 204.63,-191 201.63,-187 61.37,-187 61.37,-151 228.63,-151 228.63,-187"/>
<text text-anchor="middle" x="145" y="-164.8" font-family="Times,serif" font-size="14.00">CollapseAccordionModule</text>
</g>
<!-- CollapseAccordionComponent&#45;&gt;CollapseAccordionModule -->
<g id="edge1" class="edge">
<title>CollapseAccordionComponent&#45;&gt;CollapseAccordionModule</title>
<path fill="none" stroke="black" d="M366.65,-122.02C366.65,-139.37 366.65,-163 366.65,-163 366.65,-163 238.8,-163 238.8,-163"/>
<polygon fill="black" stroke="black" points="238.8,-159.5 228.8,-163 238.8,-166.5 238.8,-159.5"/>
</g>
<!-- CollapseItemComponent -->
<g id="node2" class="node">
<title>CollapseItemComponent</title>
<polygon fill="#ffffb3" stroke="black" points="221.98,-122 66.02,-122 66.02,-86 221.98,-86 221.98,-122"/>
<text text-anchor="middle" x="144" y="-99.8" font-family="Times,serif" font-size="14.00">CollapseItemComponent</text>
</g>
<!-- CollapseItemComponent&#45;&gt;CollapseAccordionModule -->
<g id="edge2" class="edge">
<title>CollapseItemComponent&#45;&gt;CollapseAccordionModule</title>
<path fill="none" stroke="black" d="M144,-122.11C144,-122.11 144,-140.99 144,-140.99"/>
<polygon fill="black" stroke="black" points="140.5,-140.99 144,-150.99 147.5,-140.99 140.5,-140.99"/>
</g>
<!-- CollapseAccordionComponent  -->
<g id="node4" class="node">
<title>CollapseAccordionComponent </title>
<polygon fill="#fb8072" stroke="black" points="433.41,-252 240.59,-252 240.59,-216 433.41,-216 433.41,-252"/>
<text text-anchor="middle" x="337" y="-229.8" font-family="Times,serif" font-size="14.00">CollapseAccordionComponent </text>
</g>
<!-- CollapseAccordionModule&#45;&gt;CollapseAccordionComponent  -->
<g id="edge3" class="edge">
<title>CollapseAccordionModule&#45;&gt;CollapseAccordionComponent </title>
<path fill="none" stroke="black" stroke-dasharray="5,2" d="M228.94,-175C266.99,-175 303.6,-175 303.6,-175 303.6,-175 303.6,-205.98 303.6,-205.98"/>
<polygon fill="black" stroke="black" points="300.1,-205.98 303.6,-215.98 307.1,-205.98 300.1,-205.98"/>
</g>
<!-- CollapseItemComponent  -->
<g id="node5" class="node">
<title>CollapseItemComponent </title>
<polygon fill="#fb8072" stroke="black" points="222.98,-252 63.02,-252 63.02,-216 222.98,-216 222.98,-252"/>
<text text-anchor="middle" x="143" y="-229.8" font-family="Times,serif" font-size="14.00">CollapseItemComponent </text>
</g>
<!-- CollapseAccordionModule&#45;&gt;CollapseItemComponent  -->
<g id="edge4" class="edge">
<title>CollapseAccordionModule&#45;&gt;CollapseItemComponent </title>
<path fill="none" stroke="black" stroke-dasharray="5,2" d="M143,-187.11C143,-187.11 143,-205.99 143,-205.99"/>
<polygon fill="black" stroke="black" points="139.5,-205.99 143,-215.99 146.5,-205.99 139.5,-205.99"/>
</g>
</g>
</svg>
