<?xml version="1.0" encoding="UTF-8" standalone="no"?>
<!DOCTYPE svg PUBLIC "-//W3C//DTD SVG 1.1//EN"
 "http://www.w3.org/Graphics/SVG/1.1/DTD/svg11.dtd">
<!-- Generated by graphviz version 2.47.0 (20210316.0004)
 -->
<!-- Title: dependencies Pages: 1 -->
<svg width="2158pt" height="284pt"
 viewBox="0.00 0.00 2158.00 284.00" xmlns="http://www.w3.org/2000/svg" xmlns:xlink="http://www.w3.org/1999/xlink">
<g id="graph0" class="graph" transform="scale(1 1) rotate(0) translate(4 280)">
<title>dependencies</title>
<polygon fill="white" stroke="transparent" points="-4,4 -4,-280 2154,-280 2154,4 -4,4"/>
<text text-anchor="start" x="1054.01" y="-42.4" font-family="Times-12" font-weight="bold" font-size="14.00">Legend</text>
<polygon fill="#ffffb3" stroke="transparent" points="841,-10 841,-30 861,-30 861,-10 841,-10"/>
<text text-anchor="start" x="864.63" y="-15.4" font-family="Times-12" font-size="14.00"> &#160;Declarations</text>
<polygon fill="#8dd3c7" stroke="transparent" points="954,-10 954,-30 974,-30 974,-10 954,-10"/>
<text text-anchor="start" x="977.73" y="-15.4" font-family="Times-12" font-size="14.00"> &#160;Module</text>
<polygon fill="#80b1d3" stroke="transparent" points="1040,-10 1040,-30 1060,-30 1060,-10 1040,-10"/>
<text text-anchor="start" x="1063.78" y="-15.4" font-family="Times-12" font-size="14.00"> &#160;Bootstrap</text>
<polygon fill="#fdb462" stroke="transparent" points="1137,-10 1137,-30 1157,-30 1157,-10 1137,-10"/>
<text text-anchor="start" x="1160.67" y="-15.4" font-family="Times-12" font-size="14.00"> &#160;Providers</text>
<polygon fill="#fb8072" stroke="transparent" points="1233,-10 1233,-30 1253,-30 1253,-10 1233,-10"/>
<text text-anchor="start" x="1256.73" y="-15.4" font-family="Times-12" font-size="14.00"> &#160;Exports</text>
<g id="clust1" class="cluster">
<title>cluster_CorrecaoModule</title>
<polygon fill="none" stroke="black" stroke-dasharray="1,5" points="8,-70 8,-268 2142,-268 2142,-70 8,-70"/>
</g>
<g id="clust2" class="cluster">
<title>cluster_CorrecaoModule_declarations</title>
<polygon fill="none" stroke="black" points="1221,-78 1221,-130 2134,-130 2134,-78 1221,-78"/>
</g>
<g id="clust9" class="cluster">
<title>cluster_CorrecaoModule_exports</title>
<polygon fill="none" stroke="black" points="569,-208 569,-260 1281,-260 1281,-208 569,-208"/>
</g>
<g id="clust8" class="cluster">
<title>cluster_CorrecaoModule_imports</title>
<polygon fill="none" stroke="black" points="16,-78 16,-130 1213,-130 1213,-78 16,-78"/>
</g>
<!-- CorrecaoComponent -->
<g id="node1" class="node">
<title>CorrecaoComponent</title>
<polygon fill="#ffffb3" stroke="black" points="2126.13,-122 1993.87,-122 1993.87,-86 2126.13,-86 2126.13,-122"/>
<text text-anchor="middle" x="2060" y="-99.8" font-family="Times,serif" font-size="14.00">CorrecaoComponent</text>
</g>
<!-- CorrecaoModule -->
<g id="node6" class="node">
<title>CorrecaoModule</title>
<polygon fill="#8dd3c7" stroke="black" points="996.35,-187 993.35,-191 972.35,-191 969.35,-187 885.65,-187 885.65,-151 996.35,-151 996.35,-187"/>
<text text-anchor="middle" x="941" y="-164.8" font-family="Times,serif" font-size="14.00">CorrecaoModule</text>
</g>
<!-- CorrecaoComponent&#45;&gt;CorrecaoModule -->
<g id="edge1" class="edge">
<title>CorrecaoComponent&#45;&gt;CorrecaoModule</title>
<path fill="none" stroke="black" d="M2060,-122.29C2060,-144.21 2060,-178 2060,-178 2060,-178 1006.49,-178 1006.49,-178"/>
<polygon fill="black" stroke="black" points="1006.49,-174.5 996.49,-178 1006.49,-181.5 1006.49,-174.5"/>
</g>
<!-- CreateCorrecaoComponent -->
<g id="node2" class="node">
<title>CreateCorrecaoComponent</title>
<polygon fill="#ffffb3" stroke="black" points="1975.67,-122 1806.33,-122 1806.33,-86 1975.67,-86 1975.67,-122"/>
<text text-anchor="middle" x="1891" y="-99.8" font-family="Times,serif" font-size="14.00">CreateCorrecaoComponent</text>
</g>
<!-- CreateCorrecaoComponent&#45;&gt;CorrecaoModule -->
<g id="edge2" class="edge">
<title>CreateCorrecaoComponent&#45;&gt;CorrecaoModule</title>
<path fill="none" stroke="black" d="M1891,-122.03C1891,-142.77 1891,-174 1891,-174 1891,-174 1006.53,-174 1006.53,-174"/>
<polygon fill="black" stroke="black" points="1006.53,-170.5 996.53,-174 1006.53,-177.5 1006.53,-170.5"/>
</g>
<!-- CreateQuestionLinkComponent -->
<g id="node3" class="node">
<title>CreateQuestionLinkComponent</title>
<polygon fill="#ffffb3" stroke="black" points="1788.35,-122 1593.65,-122 1593.65,-86 1788.35,-86 1788.35,-122"/>
<text text-anchor="middle" x="1691" y="-99.8" font-family="Times,serif" font-size="14.00">CreateQuestionLinkComponent</text>
</g>
<!-- CreateQuestionLinkComponent&#45;&gt;CorrecaoModule -->
<g id="edge3" class="edge">
<title>CreateQuestionLinkComponent&#45;&gt;CorrecaoModule</title>
<path fill="none" stroke="black" d="M1691,-122.11C1691,-141.34 1691,-169 1691,-169 1691,-169 1006.45,-169 1006.45,-169"/>
<polygon fill="black" stroke="black" points="1006.45,-165.5 996.45,-169 1006.45,-172.5 1006.45,-165.5"/>
</g>
<!-- ListCorrecaoComponent -->
<g id="node4" class="node">
<title>ListCorrecaoComponent</title>
<polygon fill="#ffffb3" stroke="black" points="1575.41,-122 1420.59,-122 1420.59,-86 1575.41,-86 1575.41,-122"/>
<text text-anchor="middle" x="1498" y="-99.8" font-family="Times,serif" font-size="14.00">ListCorrecaoComponent</text>
</g>
<!-- ListCorrecaoComponent&#45;&gt;CorrecaoModule -->
<g id="edge4" class="edge">
<title>ListCorrecaoComponent&#45;&gt;CorrecaoModule</title>
<path fill="none" stroke="black" d="M1498,-122.3C1498,-140.27 1498,-165 1498,-165 1498,-165 1006.44,-165 1006.44,-165"/>
<polygon fill="black" stroke="black" points="1006.44,-161.5 996.44,-165 1006.44,-168.5 1006.44,-161.5"/>
</g>
<!-- UpdateCorrecaoComponent -->
<g id="node5" class="node">
<title>UpdateCorrecaoComponent</title>
<polygon fill="#ffffb3" stroke="black" points="1402.56,-122 1229.44,-122 1229.44,-86 1402.56,-86 1402.56,-122"/>
<text text-anchor="middle" x="1316" y="-99.8" font-family="Times,serif" font-size="14.00">UpdateCorrecaoComponent</text>
</g>
<!-- UpdateCorrecaoComponent&#45;&gt;CorrecaoModule -->
<g id="edge5" class="edge">
<title>UpdateCorrecaoComponent&#45;&gt;CorrecaoModule</title>
<path fill="none" stroke="black" d="M1251.27,-122.03C1251.27,-138.4 1251.27,-160 1251.27,-160 1251.27,-160 1006.47,-160 1006.47,-160"/>
<polygon fill="black" stroke="black" points="1006.47,-156.5 996.47,-160 1006.47,-163.5 1006.47,-156.5"/>
</g>
<!-- CorrecaoComponent  -->
<g id="node15" class="node">
<title>CorrecaoComponent </title>
<polygon fill="#fb8072" stroke="black" points="1273.13,-252 1136.87,-252 1136.87,-216 1273.13,-216 1273.13,-252"/>
<text text-anchor="middle" x="1205" y="-229.8" font-family="Times,serif" font-size="14.00">CorrecaoComponent </text>
</g>
<!-- CorrecaoModule&#45;&gt;CorrecaoComponent  -->
<g id="edge14" class="edge">
<title>CorrecaoModule&#45;&gt;CorrecaoComponent </title>
<path fill="none" stroke="black" stroke-dasharray="5,2" d="M996.35,-183C1064.37,-183 1170.87,-183 1170.87,-183 1170.87,-183 1170.87,-205.88 1170.87,-205.88"/>
<polygon fill="black" stroke="black" points="1167.37,-205.88 1170.87,-215.88 1174.37,-205.88 1167.37,-205.88"/>
</g>
<!-- CreateCorrecaoComponent  -->
<g id="node16" class="node">
<title>CreateCorrecaoComponent </title>
<polygon fill="#fb8072" stroke="black" points="1119.17,-252 946.83,-252 946.83,-216 1119.17,-216 1119.17,-252"/>
<text text-anchor="middle" x="1033" y="-229.8" font-family="Times,serif" font-size="14.00">CreateCorrecaoComponent </text>
</g>
<!-- CorrecaoModule&#45;&gt;CreateCorrecaoComponent  -->
<g id="edge15" class="edge">
<title>CorrecaoModule&#45;&gt;CreateCorrecaoComponent </title>
<path fill="none" stroke="black" stroke-dasharray="5,2" d="M971.55,-187.11C971.55,-187.11 971.55,-205.99 971.55,-205.99"/>
<polygon fill="black" stroke="black" points="968.05,-205.99 971.55,-215.99 975.05,-205.99 968.05,-205.99"/>
</g>
<!-- ListCorrecaoComponent  -->
<g id="node17" class="node">
<title>ListCorrecaoComponent </title>
<polygon fill="#fb8072" stroke="black" points="928.91,-252 771.09,-252 771.09,-216 928.91,-216 928.91,-252"/>
<text text-anchor="middle" x="850" y="-229.8" font-family="Times,serif" font-size="14.00">ListCorrecaoComponent </text>
</g>
<!-- CorrecaoModule&#45;&gt;ListCorrecaoComponent  -->
<g id="edge16" class="edge">
<title>CorrecaoModule&#45;&gt;ListCorrecaoComponent </title>
<path fill="none" stroke="black" stroke-dasharray="5,2" d="M907.27,-187.11C907.27,-187.11 907.27,-205.99 907.27,-205.99"/>
<polygon fill="black" stroke="black" points="903.77,-205.99 907.27,-215.99 910.77,-205.99 903.77,-205.99"/>
</g>
<!-- UpdateCorrecaoComponent  -->
<g id="node18" class="node">
<title>UpdateCorrecaoComponent </title>
<polygon fill="#fb8072" stroke="black" points="753.06,-252 576.94,-252 576.94,-216 753.06,-216 753.06,-252"/>
<text text-anchor="middle" x="665" y="-229.8" font-family="Times,serif" font-size="14.00">UpdateCorrecaoComponent </text>
</g>
<!-- CorrecaoModule&#45;&gt;UpdateCorrecaoComponent  -->
<g id="edge17" class="edge">
<title>CorrecaoModule&#45;&gt;UpdateCorrecaoComponent </title>
<path fill="none" stroke="black" stroke-dasharray="5,2" d="M885.5,-183C816.59,-183 708.04,-183 708.04,-183 708.04,-183 708.04,-205.88 708.04,-205.88"/>
<polygon fill="black" stroke="black" points="704.54,-205.88 708.04,-215.88 711.54,-205.88 704.54,-205.88"/>
</g>
<!-- CollapseAccordionModule -->
<g id="node7" class="node">
<title>CollapseAccordionModule</title>
<polygon fill="#8dd3c7" stroke="black" points="1204.63,-122 1201.63,-126 1180.63,-126 1177.63,-122 1037.37,-122 1037.37,-86 1204.63,-86 1204.63,-122"/>
<text text-anchor="middle" x="1121" y="-99.8" font-family="Times,serif" font-size="14.00">CollapseAccordionModule</text>
</g>
<!-- CollapseAccordionModule&#45;&gt;CorrecaoModule -->
<g id="edge6" class="edge">
<title>CollapseAccordionModule&#45;&gt;CorrecaoModule</title>
<path fill="none" stroke="black" d="M1078.26,-122.19C1078.26,-137.18 1078.26,-156 1078.26,-156 1078.26,-156 1006.43,-156 1006.43,-156"/>
<polygon fill="black" stroke="black" points="1006.43,-152.5 996.43,-156 1006.43,-159.5 1006.43,-152.5"/>
</g>
<!-- CorrecaoRoutingModule -->
<g id="node8" class="node">
<title>CorrecaoRoutingModule</title>
<polygon fill="#8dd3c7" stroke="black" points="1018.97,-122 1015.97,-126 994.97,-126 991.97,-122 863.03,-122 863.03,-86 1018.97,-86 1018.97,-122"/>
<text text-anchor="middle" x="941" y="-99.8" font-family="Times,serif" font-size="14.00">CorrecaoRoutingModule</text>
</g>
<!-- CorrecaoRoutingModule&#45;&gt;CorrecaoModule -->
<g id="edge7" class="edge">
<title>CorrecaoRoutingModule&#45;&gt;CorrecaoModule</title>
<path fill="none" stroke="black" d="M941,-122.11C941,-122.11 941,-140.99 941,-140.99"/>
<polygon fill="black" stroke="black" points="937.5,-140.99 941,-150.99 944.5,-140.99 937.5,-140.99"/>
</g>
<!-- CustomSelectableListModule -->
<g id="node9" class="node">
<title>CustomSelectableListModule</title>
<polygon fill="#8dd3c7" stroke="black" points="845.42,-122 842.42,-126 821.42,-126 818.42,-122 662.58,-122 662.58,-86 845.42,-86 845.42,-122"/>
<text text-anchor="middle" x="754" y="-99.8" font-family="Times,serif" font-size="14.00">CustomSelectableListModule</text>
</g>
<!-- CustomSelectableListModule&#45;&gt;CorrecaoModule -->
<g id="edge8" class="edge">
<title>CustomSelectableListModule&#45;&gt;CorrecaoModule</title>
<path fill="none" stroke="black" d="M808.13,-122.19C808.13,-137.18 808.13,-156 808.13,-156 808.13,-156 875.42,-156 875.42,-156"/>
<polygon fill="black" stroke="black" points="875.42,-159.5 885.42,-156 875.42,-152.5 875.42,-159.5"/>
</g>
<!-- DyamicSelectModule -->
<g id="node10" class="node">
<title>DyamicSelectModule</title>
<polygon fill="#8dd3c7" stroke="black" points="645.07,-122 642.07,-126 621.07,-126 618.07,-122 506.93,-122 506.93,-86 645.07,-86 645.07,-122"/>
<text text-anchor="middle" x="576" y="-99.8" font-family="Times,serif" font-size="14.00">DyamicSelectModule</text>
</g>
<!-- DyamicSelectModule&#45;&gt;CorrecaoModule -->
<g id="edge9" class="edge">
<title>DyamicSelectModule&#45;&gt;CorrecaoModule</title>
<path fill="none" stroke="black" d="M610.88,-122.03C610.88,-138.4 610.88,-160 610.88,-160 610.88,-160 875.37,-160 875.37,-160"/>
<polygon fill="black" stroke="black" points="875.37,-163.5 885.37,-160 875.37,-156.5 875.37,-163.5"/>
</g>
<!-- DynamicTableModule -->
<g id="node11" class="node">
<title>DynamicTableModule</title>
<polygon fill="#8dd3c7" stroke="black" points="489.24,-122 486.24,-126 465.24,-126 462.24,-122 346.76,-122 346.76,-86 489.24,-86 489.24,-122"/>
<text text-anchor="middle" x="418" y="-99.8" font-family="Times,serif" font-size="14.00">DynamicTableModule</text>
</g>
<!-- DynamicTableModule&#45;&gt;CorrecaoModule -->
<g id="edge10" class="edge">
<title>DynamicTableModule&#45;&gt;CorrecaoModule</title>
<path fill="none" stroke="black" d="M418,-122.3C418,-140.27 418,-165 418,-165 418,-165 875.52,-165 875.52,-165"/>
<polygon fill="black" stroke="black" points="875.53,-168.5 885.52,-165 875.52,-161.5 875.53,-168.5"/>
</g>
<!-- ModalModule -->
<g id="node12" class="node">
<title>ModalModule</title>
<polygon fill="#8dd3c7" stroke="black" points="329.1,-122 326.1,-126 305.1,-126 302.1,-122 232.9,-122 232.9,-86 329.1,-86 329.1,-122"/>
<text text-anchor="middle" x="281" y="-99.8" font-family="Times,serif" font-size="14.00">ModalModule</text>
</g>
<!-- ModalModule&#45;&gt;CorrecaoModule -->
<g id="edge11" class="edge">
<title>ModalModule&#45;&gt;CorrecaoModule</title>
<path fill="none" stroke="black" d="M281,-122.11C281,-141.34 281,-169 281,-169 281,-169 875.58,-169 875.58,-169"/>
<polygon fill="black" stroke="black" points="875.58,-172.5 885.58,-169 875.58,-165.5 875.58,-172.5"/>
</g>
<!-- PdfModule -->
<g id="node13" class="node">
<title>PdfModule</title>
<polygon fill="#8dd3c7" stroke="black" points="214.49,-122 211.49,-126 190.49,-126 187.49,-122 135.51,-122 135.51,-86 214.49,-86 214.49,-122"/>
<text text-anchor="middle" x="175" y="-99.8" font-family="Times,serif" font-size="14.00">PdfModule</text>
</g>
<!-- PdfModule&#45;&gt;CorrecaoModule -->
<g id="edge12" class="edge">
<title>PdfModule&#45;&gt;CorrecaoModule</title>
<path fill="none" stroke="black" d="M175,-122.03C175,-142.77 175,-174 175,-174 175,-174 875.6,-174 875.6,-174"/>
<polygon fill="black" stroke="black" points="875.6,-177.5 885.6,-174 875.6,-170.5 875.6,-177.5"/>
</g>
<!-- VideoModule -->
<g id="node14" class="node">
<title>VideoModule</title>
<polygon fill="#8dd3c7" stroke="black" points="117.76,-122 114.76,-126 93.76,-126 90.76,-122 24.24,-122 24.24,-86 117.76,-86 117.76,-122"/>
<text text-anchor="middle" x="71" y="-99.8" font-family="Times,serif" font-size="14.00">VideoModule</text>
</g>
<!-- VideoModule&#45;&gt;CorrecaoModule -->
<g id="edge13" class="edge">
<title>VideoModule&#45;&gt;CorrecaoModule</title>
<path fill="none" stroke="black" d="M71,-122.29C71,-144.21 71,-178 71,-178 71,-178 875.59,-178 875.59,-178"/>
<polygon fill="black" stroke="black" points="875.59,-181.5 885.59,-178 875.59,-174.5 875.59,-181.5"/>
</g>
</g>
</svg>
