<?xml version="1.0" encoding="UTF-8" standalone="no"?>
<!DOCTYPE svg PUBLIC "-//W3C//DTD SVG 1.1//EN"
 "http://www.w3.org/Graphics/SVG/1.1/DTD/svg11.dtd">
<!-- Generated by graphviz version 2.47.0 (20210316.0004)
 -->
<!-- Title: dependencies Pages: 1 -->
<svg width="1804pt" height="211pt"
 viewBox="0.00 0.00 1804.00 211.00" xmlns="http://www.w3.org/2000/svg" xmlns:xlink="http://www.w3.org/1999/xlink">
<g id="graph0" class="graph" transform="scale(1 1) rotate(0) translate(4 207)">
<title>dependencies</title>
<polygon fill="white" stroke="transparent" points="-4,4 -4,-207 1800,-207 1800,4 -4,4"/>
<text text-anchor="start" x="877.01" y="-42.4" font-family="Times-12" font-weight="bold" font-size="14.00">Legend</text>
<polygon fill="#ffffb3" stroke="transparent" points="664,-10 664,-30 684,-30 684,-10 664,-10"/>
<text text-anchor="start" x="687.63" y="-15.4" font-family="Times-12" font-size="14.00"> &#160;Declarations</text>
<polygon fill="#8dd3c7" stroke="transparent" points="777,-10 777,-30 797,-30 797,-10 777,-10"/>
<text text-anchor="start" x="800.73" y="-15.4" font-family="Times-12" font-size="14.00"> &#160;Module</text>
<polygon fill="#80b1d3" stroke="transparent" points="863,-10 863,-30 883,-30 883,-10 863,-10"/>
<text text-anchor="start" x="886.78" y="-15.4" font-family="Times-12" font-size="14.00"> &#160;Bootstrap</text>
<polygon fill="#fdb462" stroke="transparent" points="960,-10 960,-30 980,-30 980,-10 960,-10"/>
<text text-anchor="start" x="983.67" y="-15.4" font-family="Times-12" font-size="14.00"> &#160;Providers</text>
<polygon fill="#fb8072" stroke="transparent" points="1056,-10 1056,-30 1076,-30 1076,-10 1056,-10"/>
<text text-anchor="start" x="1079.73" y="-15.4" font-family="Times-12" font-size="14.00"> &#160;Exports</text>
<g id="clust1" class="cluster">
<title>cluster_RolesPermissionsModule</title>
<polygon fill="none" stroke="black" stroke-dasharray="1,5" points="8,-70 8,-195 1788,-195 1788,-70 8,-70"/>
</g>
<g id="clust10" class="cluster">
<title>cluster_RolesPermissionsModule_imports</title>
<polygon fill="none" stroke="black" points="1244,-78 1244,-130 1780,-130 1780,-78 1244,-78"/>
</g>
<g id="clust2" class="cluster">
<title>cluster_RolesPermissionsModule_declarations</title>
<polygon fill="none" stroke="black" points="16,-78 16,-130 1236,-130 1236,-78 16,-78"/>
</g>
<!-- CreateRoleComponent -->
<g id="node1" class="node">
<title>CreateRoleComponent</title>
<polygon fill="#ffffb3" stroke="black" points="1228.31,-122 1083.69,-122 1083.69,-86 1228.31,-86 1228.31,-122"/>
<text text-anchor="middle" x="1156" y="-99.8" font-family="Times,serif" font-size="14.00">CreateRoleComponent</text>
</g>
<!-- RolesPermissionsModule -->
<g id="node8" class="node">
<title>RolesPermissionsModule</title>
<polygon fill="#8dd3c7" stroke="black" points="970.6,-187 967.6,-191 946.6,-191 943.6,-187 811.4,-187 811.4,-151 970.6,-151 970.6,-187"/>
<text text-anchor="middle" x="891" y="-164.8" font-family="Times,serif" font-size="14.00">RolesPermissionsModule</text>
</g>
<!-- CreateRoleComponent&#45;&gt;RolesPermissionsModule -->
<g id="edge1" class="edge">
<title>CreateRoleComponent&#45;&gt;RolesPermissionsModule</title>
<path fill="none" stroke="black" d="M1156,-122.01C1156,-138.05 1156,-159 1156,-159 1156,-159 980.87,-159 980.87,-159"/>
<polygon fill="black" stroke="black" points="980.87,-155.5 970.87,-159 980.87,-162.5 980.87,-155.5"/>
</g>
<!-- ListPermissionsComponent -->
<g id="node2" class="node">
<title>ListPermissionsComponent</title>
<polygon fill="#ffffb3" stroke="black" points="1065.27,-122 894.73,-122 894.73,-86 1065.27,-86 1065.27,-122"/>
<text text-anchor="middle" x="980" y="-99.8" font-family="Times,serif" font-size="14.00">ListPermissionsComponent</text>
</g>
<!-- ListPermissionsComponent&#45;&gt;RolesPermissionsModule -->
<g id="edge2" class="edge">
<title>ListPermissionsComponent&#45;&gt;RolesPermissionsModule</title>
<path fill="none" stroke="black" d="M932.58,-122.11C932.58,-122.11 932.58,-140.99 932.58,-140.99"/>
<polygon fill="black" stroke="black" points="929.08,-140.99 932.58,-150.99 936.08,-140.99 929.08,-140.99"/>
</g>
<!-- PermissionsComponent -->
<g id="node3" class="node">
<title>PermissionsComponent</title>
<polygon fill="#ffffb3" stroke="black" points="876.5,-122 727.5,-122 727.5,-86 876.5,-86 876.5,-122"/>
<text text-anchor="middle" x="802" y="-99.8" font-family="Times,serif" font-size="14.00">PermissionsComponent</text>
</g>
<!-- PermissionsComponent&#45;&gt;RolesPermissionsModule -->
<g id="edge3" class="edge">
<title>PermissionsComponent&#45;&gt;RolesPermissionsModule</title>
<path fill="none" stroke="black" d="M843.97,-122.11C843.97,-122.11 843.97,-140.99 843.97,-140.99"/>
<polygon fill="black" stroke="black" points="840.47,-140.99 843.97,-150.99 847.47,-140.99 840.47,-140.99"/>
</g>
<!-- RolesComponent -->
<g id="node4" class="node">
<title>RolesComponent</title>
<polygon fill="#ffffb3" stroke="black" points="709.72,-122 596.28,-122 596.28,-86 709.72,-86 709.72,-122"/>
<text text-anchor="middle" x="653" y="-99.8" font-family="Times,serif" font-size="14.00">RolesComponent</text>
</g>
<!-- RolesComponent&#45;&gt;RolesPermissionsModule -->
<g id="edge4" class="edge">
<title>RolesComponent&#45;&gt;RolesPermissionsModule</title>
<path fill="none" stroke="black" d="M653,-122.01C653,-138.05 653,-159 653,-159 653,-159 801.42,-159 801.42,-159"/>
<polygon fill="black" stroke="black" points="801.42,-162.5 811.42,-159 801.42,-155.5 801.42,-162.5"/>
</g>
<!-- RolesPermissionsComponent -->
<g id="node5" class="node">
<title>RolesPermissionsComponent</title>
<polygon fill="#ffffb3" stroke="black" points="578.38,-122 397.62,-122 397.62,-86 578.38,-86 578.38,-122"/>
<text text-anchor="middle" x="488" y="-99.8" font-family="Times,serif" font-size="14.00">RolesPermissionsComponent</text>
</g>
<!-- RolesPermissionsComponent&#45;&gt;RolesPermissionsModule -->
<g id="edge5" class="edge">
<title>RolesPermissionsComponent&#45;&gt;RolesPermissionsModule</title>
<path fill="none" stroke="black" d="M488,-122.27C488,-140.56 488,-166 488,-166 488,-166 801.38,-166 801.38,-166"/>
<polygon fill="black" stroke="black" points="801.38,-169.5 811.38,-166 801.38,-162.5 801.38,-169.5"/>
</g>
<!-- UpdatePermisssionComponent -->
<g id="node6" class="node">
<title>UpdatePermisssionComponent</title>
<polygon fill="#ffffb3" stroke="black" points="379.92,-122 190.08,-122 190.08,-86 379.92,-86 379.92,-122"/>
<text text-anchor="middle" x="285" y="-99.8" font-family="Times,serif" font-size="14.00">UpdatePermisssionComponent</text>
</g>
<!-- UpdatePermisssionComponent&#45;&gt;RolesPermissionsModule -->
<g id="edge6" class="edge">
<title>UpdatePermisssionComponent&#45;&gt;RolesPermissionsModule</title>
<path fill="none" stroke="black" d="M285,-122.13C285,-142.57 285,-173 285,-173 285,-173 801.15,-173 801.15,-173"/>
<polygon fill="black" stroke="black" points="801.15,-176.5 811.15,-173 801.15,-169.5 801.15,-176.5"/>
</g>
<!-- UpdateRoleComponent -->
<g id="node7" class="node">
<title>UpdateRoleComponent</title>
<polygon fill="#ffffb3" stroke="black" points="172.2,-122 23.8,-122 23.8,-86 172.2,-86 172.2,-122"/>
<text text-anchor="middle" x="98" y="-99.8" font-family="Times,serif" font-size="14.00">UpdateRoleComponent</text>
</g>
<!-- UpdateRoleComponent&#45;&gt;RolesPermissionsModule -->
<g id="edge7" class="edge">
<title>UpdateRoleComponent&#45;&gt;RolesPermissionsModule</title>
<path fill="none" stroke="black" d="M98,-122.01C98,-144.49 98,-180 98,-180 98,-180 801.33,-180 801.33,-180"/>
<polygon fill="black" stroke="black" points="801.33,-183.5 811.33,-180 801.33,-176.5 801.33,-183.5"/>
</g>
<!-- DyamicSelectModule -->
<g id="node9" class="node">
<title>DyamicSelectModule</title>
<polygon fill="#8dd3c7" stroke="black" points="1772.07,-122 1769.07,-126 1748.07,-126 1745.07,-122 1633.93,-122 1633.93,-86 1772.07,-86 1772.07,-122"/>
<text text-anchor="middle" x="1703" y="-99.8" font-family="Times,serif" font-size="14.00">DyamicSelectModule</text>
</g>
<!-- DyamicSelectModule&#45;&gt;RolesPermissionsModule -->
<g id="edge8" class="edge">
<title>DyamicSelectModule&#45;&gt;RolesPermissionsModule</title>
<path fill="none" stroke="black" d="M1703,-122.01C1703,-144.49 1703,-180 1703,-180 1703,-180 980.71,-180 980.71,-180"/>
<polygon fill="black" stroke="black" points="980.71,-176.5 970.71,-180 980.71,-183.5 980.71,-176.5"/>
</g>
<!-- DynamicTableModule -->
<g id="node10" class="node">
<title>DynamicTableModule</title>
<polygon fill="#8dd3c7" stroke="black" points="1616.24,-122 1613.24,-126 1592.24,-126 1589.24,-122 1473.76,-122 1473.76,-86 1616.24,-86 1616.24,-122"/>
<text text-anchor="middle" x="1545" y="-99.8" font-family="Times,serif" font-size="14.00">DynamicTableModule</text>
</g>
<!-- DynamicTableModule&#45;&gt;RolesPermissionsModule -->
<g id="edge9" class="edge">
<title>DynamicTableModule&#45;&gt;RolesPermissionsModule</title>
<path fill="none" stroke="black" d="M1545,-122.13C1545,-142.57 1545,-173 1545,-173 1545,-173 980.87,-173 980.87,-173"/>
<polygon fill="black" stroke="black" points="980.87,-169.5 970.87,-173 980.87,-176.5 980.87,-169.5"/>
</g>
<!-- RolesPermissionsRoutingModule -->
<g id="node11" class="node">
<title>RolesPermissionsRoutingModule</title>
<polygon fill="#8dd3c7" stroke="black" points="1456.22,-122 1453.22,-126 1432.22,-126 1429.22,-122 1251.78,-122 1251.78,-86 1456.22,-86 1456.22,-122"/>
<text text-anchor="middle" x="1354" y="-99.8" font-family="Times,serif" font-size="14.00">RolesPermissionsRoutingModule</text>
</g>
<!-- RolesPermissionsRoutingModule&#45;&gt;RolesPermissionsModule -->
<g id="edge10" class="edge">
<title>RolesPermissionsRoutingModule&#45;&gt;RolesPermissionsModule</title>
<path fill="none" stroke="black" d="M1354,-122.27C1354,-140.56 1354,-166 1354,-166 1354,-166 980.59,-166 980.59,-166"/>
<polygon fill="black" stroke="black" points="980.59,-162.5 970.59,-166 980.59,-169.5 980.59,-162.5"/>
</g>
</g>
</svg>
