<?xml version="1.0" encoding="UTF-8" standalone="no"?>
<!DOCTYPE svg PUBLIC "-//W3C//DTD SVG 1.1//EN"
 "http://www.w3.org/Graphics/SVG/1.1/DTD/svg11.dtd">
<!-- Generated by graphviz version 2.47.0 (20210316.0004)
 -->
<!-- Title: dependencies Pages: 1 -->
<svg width="1041pt" height="211pt"
 viewBox="0.00 0.00 1041.00 211.00" xmlns="http://www.w3.org/2000/svg" xmlns:xlink="http://www.w3.org/1999/xlink">
<g id="graph0" class="graph" transform="scale(1 1) rotate(0) translate(4 207)">
<title>dependencies</title>
<polygon fill="white" stroke="transparent" points="-4,4 -4,-207 1037,-207 1037,4 -4,4"/>
<text text-anchor="start" x="495.51" y="-42.4" font-family="Times-12" font-weight="bold" font-size="14.00">Legend</text>
<polygon fill="#ffffb3" stroke="transparent" points="282.5,-10 282.5,-30 302.5,-30 302.5,-10 282.5,-10"/>
<text text-anchor="start" x="306.13" y="-15.4" font-family="Times-12" font-size="14.00"> &#160;Declarations</text>
<polygon fill="#8dd3c7" stroke="transparent" points="395.5,-10 395.5,-30 415.5,-30 415.5,-10 395.5,-10"/>
<text text-anchor="start" x="419.23" y="-15.4" font-family="Times-12" font-size="14.00"> &#160;Module</text>
<polygon fill="#80b1d3" stroke="transparent" points="481.5,-10 481.5,-30 501.5,-30 501.5,-10 481.5,-10"/>
<text text-anchor="start" x="505.28" y="-15.4" font-family="Times-12" font-size="14.00"> &#160;Bootstrap</text>
<polygon fill="#fdb462" stroke="transparent" points="578.5,-10 578.5,-30 598.5,-30 598.5,-10 578.5,-10"/>
<text text-anchor="start" x="602.17" y="-15.4" font-family="Times-12" font-size="14.00"> &#160;Providers</text>
<polygon fill="#fb8072" stroke="transparent" points="674.5,-10 674.5,-30 694.5,-30 694.5,-10 674.5,-10"/>
<text text-anchor="start" x="698.23" y="-15.4" font-family="Times-12" font-size="14.00"> &#160;Exports</text>
<g id="clust1" class="cluster">
<title>cluster_PosicaoModule</title>
<polygon fill="none" stroke="black" stroke-dasharray="1,5" points="8,-70 8,-195 1025,-195 1025,-70 8,-70"/>
</g>
<g id="clust2" class="cluster">
<title>cluster_PosicaoModule_declarations</title>
<polygon fill="none" stroke="black" points="348,-78 348,-130 1017,-130 1017,-78 348,-78"/>
</g>
<g id="clust7" class="cluster">
<title>cluster_PosicaoModule_imports</title>
<polygon fill="none" stroke="black" points="16,-78 16,-130 340,-130 340,-78 16,-78"/>
</g>
<!-- CreatePosicaoComponent -->
<g id="node1" class="node">
<title>CreatePosicaoComponent</title>
<polygon fill="#ffffb3" stroke="black" points="1008.91,-122 847.09,-122 847.09,-86 1008.91,-86 1008.91,-122"/>
<text text-anchor="middle" x="928" y="-99.8" font-family="Times,serif" font-size="14.00">CreatePosicaoComponent</text>
</g>
<!-- PosicaoModule -->
<g id="node5" class="node">
<title>PosicaoModule</title>
<polygon fill="#8dd3c7" stroke="black" points="571.6,-187 568.6,-191 547.6,-191 544.6,-187 468.4,-187 468.4,-151 571.6,-151 571.6,-187"/>
<text text-anchor="middle" x="520" y="-164.8" font-family="Times,serif" font-size="14.00">PosicaoModule</text>
</g>
<!-- CreatePosicaoComponent&#45;&gt;PosicaoModule -->
<g id="edge1" class="edge">
<title>CreatePosicaoComponent&#45;&gt;PosicaoModule</title>
<path fill="none" stroke="black" d="M928,-122.28C928,-143.32 928,-175 928,-175 928,-175 581.67,-175 581.67,-175"/>
<polygon fill="black" stroke="black" points="581.67,-171.5 571.67,-175 581.67,-178.5 581.67,-171.5"/>
</g>
<!-- ListPosicaoComponent -->
<g id="node2" class="node">
<title>ListPosicaoComponent</title>
<polygon fill="#ffffb3" stroke="black" points="829.16,-122 682.84,-122 682.84,-86 829.16,-86 829.16,-122"/>
<text text-anchor="middle" x="756" y="-99.8" font-family="Times,serif" font-size="14.00">ListPosicaoComponent</text>
</g>
<!-- ListPosicaoComponent&#45;&gt;PosicaoModule -->
<g id="edge2" class="edge">
<title>ListPosicaoComponent&#45;&gt;PosicaoModule</title>
<path fill="none" stroke="black" d="M756,-122.02C756,-139.37 756,-163 756,-163 756,-163 581.79,-163 581.79,-163"/>
<polygon fill="black" stroke="black" points="581.79,-159.5 571.79,-163 581.79,-166.5 581.79,-159.5"/>
</g>
<!-- PosicaoComponent -->
<g id="node3" class="node">
<title>PosicaoComponent</title>
<polygon fill="#ffffb3" stroke="black" points="664.38,-122 539.62,-122 539.62,-86 664.38,-86 664.38,-122"/>
<text text-anchor="middle" x="602" y="-99.8" font-family="Times,serif" font-size="14.00">PosicaoComponent</text>
</g>
<!-- PosicaoComponent&#45;&gt;PosicaoModule -->
<g id="edge3" class="edge">
<title>PosicaoComponent&#45;&gt;PosicaoModule</title>
<path fill="none" stroke="black" d="M555.55,-122.11C555.55,-122.11 555.55,-140.99 555.55,-140.99"/>
<polygon fill="black" stroke="black" points="552.05,-140.99 555.55,-150.99 559.05,-140.99 552.05,-140.99"/>
</g>
<!-- UpdatePosicaoComponent -->
<g id="node4" class="node">
<title>UpdatePosicaoComponent</title>
<polygon fill="#ffffb3" stroke="black" points="521.81,-122 356.19,-122 356.19,-86 521.81,-86 521.81,-122"/>
<text text-anchor="middle" x="439" y="-99.8" font-family="Times,serif" font-size="14.00">UpdatePosicaoComponent</text>
</g>
<!-- UpdatePosicaoComponent&#45;&gt;PosicaoModule -->
<g id="edge4" class="edge">
<title>UpdatePosicaoComponent&#45;&gt;PosicaoModule</title>
<path fill="none" stroke="black" d="M495.05,-122.11C495.05,-122.11 495.05,-140.99 495.05,-140.99"/>
<polygon fill="black" stroke="black" points="491.55,-140.99 495.05,-150.99 498.55,-140.99 491.55,-140.99"/>
</g>
<!-- DynamicTableModule -->
<g id="node6" class="node">
<title>DynamicTableModule</title>
<polygon fill="#8dd3c7" stroke="black" points="332.24,-122 329.24,-126 308.24,-126 305.24,-122 189.76,-122 189.76,-86 332.24,-86 332.24,-122"/>
<text text-anchor="middle" x="261" y="-99.8" font-family="Times,serif" font-size="14.00">DynamicTableModule</text>
</g>
<!-- DynamicTableModule&#45;&gt;PosicaoModule -->
<g id="edge5" class="edge">
<title>DynamicTableModule&#45;&gt;PosicaoModule</title>
<path fill="none" stroke="black" d="M261,-122.02C261,-139.37 261,-163 261,-163 261,-163 458.21,-163 458.21,-163"/>
<polygon fill="black" stroke="black" points="458.21,-166.5 468.21,-163 458.21,-159.5 458.21,-166.5"/>
</g>
<!-- PosicaoRoutingModule -->
<g id="node7" class="node">
<title>PosicaoRoutingModule</title>
<polygon fill="#8dd3c7" stroke="black" points="172.21,-122 169.21,-126 148.21,-126 145.21,-122 23.79,-122 23.79,-86 172.21,-86 172.21,-122"/>
<text text-anchor="middle" x="98" y="-99.8" font-family="Times,serif" font-size="14.00">PosicaoRoutingModule</text>
</g>
<!-- PosicaoRoutingModule&#45;&gt;PosicaoModule -->
<g id="edge6" class="edge">
<title>PosicaoRoutingModule&#45;&gt;PosicaoModule</title>
<path fill="none" stroke="black" d="M98,-122.28C98,-143.32 98,-175 98,-175 98,-175 458.25,-175 458.25,-175"/>
<polygon fill="black" stroke="black" points="458.25,-178.5 468.25,-175 458.25,-171.5 458.25,-178.5"/>
</g>
</g>
</svg>
