<?xml version="1.0" encoding="UTF-8" standalone="no"?>
<!DOCTYPE svg PUBLIC "-//W3C//DTD SVG 1.1//EN"
 "http://www.w3.org/Graphics/SVG/1.1/DTD/svg11.dtd">
<!-- Generated by graphviz version 2.47.0 (20210316.0004)
 -->
<!-- Title: dependencies Pages: 1 -->
<svg width="1388pt" height="211pt"
 viewBox="0.00 0.00 1388.00 211.00" xmlns="http://www.w3.org/2000/svg" xmlns:xlink="http://www.w3.org/1999/xlink">
<g id="graph0" class="graph" transform="scale(1 1) rotate(0) translate(4 207)">
<title>dependencies</title>
<polygon fill="white" stroke="transparent" points="-4,4 -4,-207 1384,-207 1384,4 -4,4"/>
<text text-anchor="start" x="669.01" y="-42.4" font-family="Times-12" font-weight="bold" font-size="14.00">Legend</text>
<polygon fill="#ffffb3" stroke="transparent" points="456,-10 456,-30 476,-30 476,-10 456,-10"/>
<text text-anchor="start" x="479.63" y="-15.4" font-family="Times-12" font-size="14.00"> &#160;Declarations</text>
<polygon fill="#8dd3c7" stroke="transparent" points="569,-10 569,-30 589,-30 589,-10 569,-10"/>
<text text-anchor="start" x="592.73" y="-15.4" font-family="Times-12" font-size="14.00"> &#160;Module</text>
<polygon fill="#80b1d3" stroke="transparent" points="655,-10 655,-30 675,-30 675,-10 655,-10"/>
<text text-anchor="start" x="678.78" y="-15.4" font-family="Times-12" font-size="14.00"> &#160;Bootstrap</text>
<polygon fill="#fdb462" stroke="transparent" points="752,-10 752,-30 772,-30 772,-10 752,-10"/>
<text text-anchor="start" x="775.67" y="-15.4" font-family="Times-12" font-size="14.00"> &#160;Providers</text>
<polygon fill="#fb8072" stroke="transparent" points="848,-10 848,-30 868,-30 868,-10 848,-10"/>
<text text-anchor="start" x="871.73" y="-15.4" font-family="Times-12" font-size="14.00"> &#160;Exports</text>
<g id="clust1" class="cluster">
<title>cluster_ConcursoModule</title>
<polygon fill="none" stroke="black" stroke-dasharray="1,5" points="8,-70 8,-195 1372,-195 1372,-70 8,-70"/>
</g>
<g id="clust2" class="cluster">
<title>cluster_ConcursoModule_declarations</title>
<polygon fill="none" stroke="black" points="656,-78 656,-130 1364,-130 1364,-78 656,-78"/>
</g>
<g id="clust7" class="cluster">
<title>cluster_ConcursoModule_imports</title>
<polygon fill="none" stroke="black" points="16,-78 16,-130 648,-130 648,-78 16,-78"/>
</g>
<!-- ConcursoComponent -->
<g id="node1" class="node">
<title>ConcursoComponent</title>
<polygon fill="#ffffb3" stroke="black" points="1356.49,-122 1221.51,-122 1221.51,-86 1356.49,-86 1356.49,-122"/>
<text text-anchor="middle" x="1289" y="-99.8" font-family="Times,serif" font-size="14.00">ConcursoComponent</text>
</g>
<!-- ConcursoModule -->
<g id="node5" class="node">
<title>ConcursoModule</title>
<polygon fill="#8dd3c7" stroke="black" points="712.71,-187 709.71,-191 688.71,-191 685.71,-187 599.29,-187 599.29,-151 712.71,-151 712.71,-187"/>
<text text-anchor="middle" x="656" y="-164.8" font-family="Times,serif" font-size="14.00">ConcursoModule</text>
</g>
<!-- ConcursoComponent&#45;&gt;ConcursoModule -->
<g id="edge1" class="edge">
<title>ConcursoComponent&#45;&gt;ConcursoModule</title>
<path fill="none" stroke="black" d="M1289,-122.29C1289,-144.21 1289,-178 1289,-178 1289,-178 722.73,-178 722.73,-178"/>
<polygon fill="black" stroke="black" points="722.73,-174.5 712.73,-178 722.73,-181.5 722.73,-174.5"/>
</g>
<!-- CreateConcursoComponent -->
<g id="node2" class="node">
<title>CreateConcursoComponent</title>
<polygon fill="#ffffb3" stroke="black" points="1203.52,-122 1032.48,-122 1032.48,-86 1203.52,-86 1203.52,-122"/>
<text text-anchor="middle" x="1118" y="-99.8" font-family="Times,serif" font-size="14.00">CreateConcursoComponent</text>
</g>
<!-- CreateConcursoComponent&#45;&gt;ConcursoModule -->
<g id="edge2" class="edge">
<title>CreateConcursoComponent&#45;&gt;ConcursoModule</title>
<path fill="none" stroke="black" d="M1118,-122.11C1118,-141.34 1118,-169 1118,-169 1118,-169 722.65,-169 722.65,-169"/>
<polygon fill="black" stroke="black" points="722.65,-165.5 712.65,-169 722.65,-172.5 722.65,-165.5"/>
</g>
<!-- ListConcursoComponent -->
<g id="node3" class="node">
<title>ListConcursoComponent</title>
<polygon fill="#ffffb3" stroke="black" points="1014.27,-122 857.73,-122 857.73,-86 1014.27,-86 1014.27,-122"/>
<text text-anchor="middle" x="936" y="-99.8" font-family="Times,serif" font-size="14.00">ListConcursoComponent</text>
</g>
<!-- ListConcursoComponent&#45;&gt;ConcursoModule -->
<g id="edge3" class="edge">
<title>ListConcursoComponent&#45;&gt;ConcursoModule</title>
<path fill="none" stroke="black" d="M936,-122.03C936,-138.4 936,-160 936,-160 936,-160 722.66,-160 722.66,-160"/>
<polygon fill="black" stroke="black" points="722.66,-156.5 712.66,-160 722.66,-163.5 722.66,-156.5"/>
</g>
<!-- UpdateConcursoComponent -->
<g id="node4" class="node">
<title>UpdateConcursoComponent</title>
<polygon fill="#ffffb3" stroke="black" points="839.92,-122 664.08,-122 664.08,-86 839.92,-86 839.92,-122"/>
<text text-anchor="middle" x="752" y="-99.8" font-family="Times,serif" font-size="14.00">UpdateConcursoComponent</text>
</g>
<!-- UpdateConcursoComponent&#45;&gt;ConcursoModule -->
<g id="edge4" class="edge">
<title>UpdateConcursoComponent&#45;&gt;ConcursoModule</title>
<path fill="none" stroke="black" d="M688.45,-122.11C688.45,-122.11 688.45,-140.99 688.45,-140.99"/>
<polygon fill="black" stroke="black" points="684.95,-140.99 688.45,-150.99 691.95,-140.99 684.95,-140.99"/>
</g>
<!-- ConcursoRoutingModule -->
<g id="node6" class="node">
<title>ConcursoRoutingModule</title>
<polygon fill="#8dd3c7" stroke="black" points="640.32,-122 637.32,-126 616.32,-126 613.32,-122 481.68,-122 481.68,-86 640.32,-86 640.32,-122"/>
<text text-anchor="middle" x="561" y="-99.8" font-family="Times,serif" font-size="14.00">ConcursoRoutingModule</text>
</g>
<!-- ConcursoRoutingModule&#45;&gt;ConcursoModule -->
<g id="edge5" class="edge">
<title>ConcursoRoutingModule&#45;&gt;ConcursoModule</title>
<path fill="none" stroke="black" d="M619.78,-122.11C619.78,-122.11 619.78,-140.99 619.78,-140.99"/>
<polygon fill="black" stroke="black" points="616.28,-140.99 619.78,-150.99 623.28,-140.99 616.28,-140.99"/>
</g>
<!-- DyamicSelectModule -->
<g id="node7" class="node">
<title>DyamicSelectModule</title>
<polygon fill="#8dd3c7" stroke="black" points="464.07,-122 461.07,-126 440.07,-126 437.07,-122 325.93,-122 325.93,-86 464.07,-86 464.07,-122"/>
<text text-anchor="middle" x="395" y="-99.8" font-family="Times,serif" font-size="14.00">DyamicSelectModule</text>
</g>
<!-- DyamicSelectModule&#45;&gt;ConcursoModule -->
<g id="edge6" class="edge">
<title>DyamicSelectModule&#45;&gt;ConcursoModule</title>
<path fill="none" stroke="black" d="M395,-122.03C395,-138.4 395,-160 395,-160 395,-160 589.37,-160 589.37,-160"/>
<polygon fill="black" stroke="black" points="589.37,-163.5 599.37,-160 589.37,-156.5 589.37,-163.5"/>
</g>
<!-- DynamicTableModule -->
<g id="node8" class="node">
<title>DynamicTableModule</title>
<polygon fill="#8dd3c7" stroke="black" points="308.24,-122 305.24,-126 284.24,-126 281.24,-122 165.76,-122 165.76,-86 308.24,-86 308.24,-122"/>
<text text-anchor="middle" x="237" y="-99.8" font-family="Times,serif" font-size="14.00">DynamicTableModule</text>
</g>
<!-- DynamicTableModule&#45;&gt;ConcursoModule -->
<g id="edge7" class="edge">
<title>DynamicTableModule&#45;&gt;ConcursoModule</title>
<path fill="none" stroke="black" d="M237,-122.11C237,-141.34 237,-169 237,-169 237,-169 589.06,-169 589.06,-169"/>
<polygon fill="black" stroke="black" points="589.06,-172.5 599.06,-169 589.06,-165.5 589.06,-172.5"/>
</g>
<!-- ImageInputModule -->
<g id="node9" class="node">
<title>ImageInputModule</title>
<polygon fill="#8dd3c7" stroke="black" points="148.08,-122 145.08,-126 124.08,-126 121.08,-122 23.92,-122 23.92,-86 148.08,-86 148.08,-122"/>
<text text-anchor="middle" x="86" y="-99.8" font-family="Times,serif" font-size="14.00">ImageInputModule</text>
</g>
<!-- ImageInputModule&#45;&gt;ConcursoModule -->
<g id="edge8" class="edge">
<title>ImageInputModule&#45;&gt;ConcursoModule</title>
<path fill="none" stroke="black" d="M86,-122.29C86,-144.21 86,-178 86,-178 86,-178 589.26,-178 589.26,-178"/>
<polygon fill="black" stroke="black" points="589.26,-181.5 599.26,-178 589.26,-174.5 589.26,-181.5"/>
</g>
</g>
</svg>
