<?xml version="1.0" encoding="UTF-8" standalone="no"?>
<!DOCTYPE svg PUBLIC "-//W3C//DTD SVG 1.1//EN"
 "http://www.w3.org/Graphics/SVG/1.1/DTD/svg11.dtd">
<!-- Generated by graphviz version 2.47.0 (20210316.0004)
 -->
<!-- Title: dependencies Pages: 1 -->
<svg width="1388pt" height="284pt"
 viewBox="0.00 0.00 1388.00 284.00" xmlns="http://www.w3.org/2000/svg" xmlns:xlink="http://www.w3.org/1999/xlink">
<g id="graph0" class="graph" transform="scale(1 1) rotate(0) translate(4 280)">
<title>dependencies</title>
<polygon fill="white" stroke="transparent" points="-4,4 -4,-280 1384,-280 1384,4 -4,4"/>
<text text-anchor="start" x="669.01" y="-42.4" font-family="Times-12" font-weight="bold" font-size="14.00">Legend</text>
<polygon fill="#ffffb3" stroke="transparent" points="456,-10 456,-30 476,-30 476,-10 456,-10"/>
<text text-anchor="start" x="479.63" y="-15.4" font-family="Times-12" font-size="14.00"> &#160;Declarations</text>
<polygon fill="#8dd3c7" stroke="transparent" points="569,-10 569,-30 589,-30 589,-10 569,-10"/>
<text text-anchor="start" x="592.73" y="-15.4" font-family="Times-12" font-size="14.00"> &#160;Module</text>
<polygon fill="#80b1d3" stroke="transparent" points="655,-10 655,-30 675,-30 675,-10 655,-10"/>
<text text-anchor="start" x="678.78" y="-15.4" font-family="Times-12" font-size="14.00"> &#160;Bootstrap</text>
<polygon fill="#fdb462" stroke="transparent" points="752,-10 752,-30 772,-30 772,-10 752,-10"/>
<text text-anchor="start" x="775.67" y="-15.4" font-family="Times-12" font-size="14.00"> &#160;Providers</text>
<polygon fill="#fb8072" stroke="transparent" points="848,-10 848,-30 868,-30 868,-10 848,-10"/>
<text text-anchor="start" x="871.73" y="-15.4" font-family="Times-12" font-size="14.00"> &#160;Exports</text>
<g id="clust1" class="cluster">
<title>cluster_ModuloModule</title>
<polygon fill="none" stroke="black" stroke-dasharray="1,5" points="8,-70 8,-268 1372,-268 1372,-70 8,-70"/>
</g>
<g id="clust7" class="cluster">
<title>cluster_ModuloModule_imports</title>
<polygon fill="none" stroke="black" points="696,-78 696,-130 1364,-130 1364,-78 696,-78"/>
</g>
<g id="clust2" class="cluster">
<title>cluster_ModuloModule_declarations</title>
<polygon fill="none" stroke="black" points="16,-78 16,-130 688,-130 688,-78 16,-78"/>
</g>
<g id="clust8" class="cluster">
<title>cluster_ModuloModule_exports</title>
<polygon fill="none" stroke="black" points="418,-208 418,-260 956,-260 956,-208 418,-208"/>
</g>
<!-- CreateModuloComponent -->
<g id="node1" class="node">
<title>CreateModuloComponent</title>
<polygon fill="#ffffb3" stroke="black" points="680.2,-122 517.8,-122 517.8,-86 680.2,-86 680.2,-122"/>
<text text-anchor="middle" x="599" y="-99.8" font-family="Times,serif" font-size="14.00">CreateModuloComponent</text>
</g>
<!-- ModuloModule -->
<g id="node5" class="node">
<title>ModuloModule</title>
<polygon fill="#8dd3c7" stroke="black" points="740.89,-187 737.89,-191 716.89,-191 713.89,-187 637.11,-187 637.11,-151 740.89,-151 740.89,-187"/>
<text text-anchor="middle" x="689" y="-164.8" font-family="Times,serif" font-size="14.00">ModuloModule</text>
</g>
<!-- CreateModuloComponent&#45;&gt;ModuloModule -->
<g id="edge1" class="edge">
<title>CreateModuloComponent&#45;&gt;ModuloModule</title>
<path fill="none" stroke="black" d="M658.58,-122.11C658.58,-122.11 658.58,-140.99 658.58,-140.99"/>
<polygon fill="black" stroke="black" points="655.08,-140.99 658.58,-150.99 662.08,-140.99 655.08,-140.99"/>
</g>
<!-- ListModuloComponent -->
<g id="node2" class="node">
<title>ListModuloComponent</title>
<polygon fill="#ffffb3" stroke="black" points="499.95,-122 352.05,-122 352.05,-86 499.95,-86 499.95,-122"/>
<text text-anchor="middle" x="426" y="-99.8" font-family="Times,serif" font-size="14.00">ListModuloComponent</text>
</g>
<!-- ListModuloComponent&#45;&gt;ModuloModule -->
<g id="edge2" class="edge">
<title>ListModuloComponent&#45;&gt;ModuloModule</title>
<path fill="none" stroke="black" d="M462.96,-122.01C462.96,-138.05 462.96,-159 462.96,-159 462.96,-159 626.86,-159 626.86,-159"/>
<polygon fill="black" stroke="black" points="626.86,-162.5 636.86,-159 626.86,-155.5 626.86,-162.5"/>
</g>
<!-- ModuloComponent -->
<g id="node3" class="node">
<title>ModuloComponent</title>
<polygon fill="#ffffb3" stroke="black" points="333.67,-122 208.33,-122 208.33,-86 333.67,-86 333.67,-122"/>
<text text-anchor="middle" x="271" y="-99.8" font-family="Times,serif" font-size="14.00">ModuloComponent</text>
</g>
<!-- ModuloComponent&#45;&gt;ModuloModule -->
<g id="edge3" class="edge">
<title>ModuloComponent&#45;&gt;ModuloModule</title>
<path fill="none" stroke="black" d="M271,-122.27C271,-140.56 271,-166 271,-166 271,-166 626.91,-166 626.91,-166"/>
<polygon fill="black" stroke="black" points="626.91,-169.5 636.91,-166 626.91,-162.5 626.91,-169.5"/>
</g>
<!-- UpdateModuloComponent -->
<g id="node4" class="node">
<title>UpdateModuloComponent</title>
<polygon fill="#ffffb3" stroke="black" points="190.09,-122 23.91,-122 23.91,-86 190.09,-86 190.09,-122"/>
<text text-anchor="middle" x="107" y="-99.8" font-family="Times,serif" font-size="14.00">UpdateModuloComponent</text>
</g>
<!-- UpdateModuloComponent&#45;&gt;ModuloModule -->
<g id="edge4" class="edge">
<title>UpdateModuloComponent&#45;&gt;ModuloModule</title>
<path fill="none" stroke="black" d="M107,-122.13C107,-142.57 107,-173 107,-173 107,-173 627.1,-173 627.1,-173"/>
<polygon fill="black" stroke="black" points="627.1,-176.5 637.1,-173 627.1,-169.5 627.1,-176.5"/>
</g>
<!-- CreateModuloComponent  -->
<g id="node10" class="node">
<title>CreateModuloComponent </title>
<polygon fill="#fb8072" stroke="black" points="947.7,-252 782.3,-252 782.3,-216 947.7,-216 947.7,-252"/>
<text text-anchor="middle" x="865" y="-229.8" font-family="Times,serif" font-size="14.00">CreateModuloComponent </text>
</g>
<!-- ModuloModule&#45;&gt;CreateModuloComponent  -->
<g id="edge9" class="edge">
<title>ModuloModule&#45;&gt;CreateModuloComponent </title>
<path fill="none" stroke="black" stroke-dasharray="5,2" d="M741.03,-180C776.78,-180 817.83,-180 817.83,-180 817.83,-180 817.83,-205.72 817.83,-205.72"/>
<polygon fill="black" stroke="black" points="814.33,-205.72 817.83,-215.72 821.33,-205.72 814.33,-205.72"/>
</g>
<!-- ListModuloComponent  -->
<g id="node11" class="node">
<title>ListModuloComponent </title>
<polygon fill="#fb8072" stroke="black" points="764.45,-252 613.55,-252 613.55,-216 764.45,-216 764.45,-252"/>
<text text-anchor="middle" x="689" y="-229.8" font-family="Times,serif" font-size="14.00">ListModuloComponent </text>
</g>
<!-- ModuloModule&#45;&gt;ListModuloComponent  -->
<g id="edge10" class="edge">
<title>ModuloModule&#45;&gt;ListModuloComponent </title>
<path fill="none" stroke="black" stroke-dasharray="5,2" d="M689,-187.11C689,-187.11 689,-205.99 689,-205.99"/>
<polygon fill="black" stroke="black" points="685.5,-205.99 689,-215.99 692.5,-205.99 685.5,-205.99"/>
</g>
<!-- UpdateModuloComponent  -->
<g id="node12" class="node">
<title>UpdateModuloComponent </title>
<polygon fill="#fb8072" stroke="black" points="595.59,-252 426.41,-252 426.41,-216 595.59,-216 595.59,-252"/>
<text text-anchor="middle" x="511" y="-229.8" font-family="Times,serif" font-size="14.00">UpdateModuloComponent </text>
</g>
<!-- ModuloModule&#45;&gt;UpdateModuloComponent  -->
<g id="edge11" class="edge">
<title>ModuloModule&#45;&gt;UpdateModuloComponent </title>
<path fill="none" stroke="black" stroke-dasharray="5,2" d="M636.77,-180C599.83,-180 556.85,-180 556.85,-180 556.85,-180 556.85,-205.72 556.85,-205.72"/>
<polygon fill="black" stroke="black" points="553.35,-205.72 556.85,-215.72 560.35,-205.72 553.35,-205.72"/>
</g>
<!-- CollapseAccordionModule -->
<g id="node6" class="node">
<title>CollapseAccordionModule</title>
<polygon fill="#8dd3c7" stroke="black" points="1355.63,-122 1352.63,-126 1331.63,-126 1328.63,-122 1188.37,-122 1188.37,-86 1355.63,-86 1355.63,-122"/>
<text text-anchor="middle" x="1272" y="-99.8" font-family="Times,serif" font-size="14.00">CollapseAccordionModule</text>
</g>
<!-- CollapseAccordionModule&#45;&gt;ModuloModule -->
<g id="edge5" class="edge">
<title>CollapseAccordionModule&#45;&gt;ModuloModule</title>
<path fill="none" stroke="black" d="M1272,-122.13C1272,-142.57 1272,-173 1272,-173 1272,-173 750.99,-173 750.99,-173"/>
<polygon fill="black" stroke="black" points="750.99,-169.5 740.99,-173 750.99,-176.5 750.99,-169.5"/>
</g>
<!-- DyamicSelectModule -->
<g id="node7" class="node">
<title>DyamicSelectModule</title>
<polygon fill="#8dd3c7" stroke="black" points="1170.07,-122 1167.07,-126 1146.07,-126 1143.07,-122 1031.93,-122 1031.93,-86 1170.07,-86 1170.07,-122"/>
<text text-anchor="middle" x="1101" y="-99.8" font-family="Times,serif" font-size="14.00">DyamicSelectModule</text>
</g>
<!-- DyamicSelectModule&#45;&gt;ModuloModule -->
<g id="edge6" class="edge">
<title>DyamicSelectModule&#45;&gt;ModuloModule</title>
<path fill="none" stroke="black" d="M1101,-122.27C1101,-140.56 1101,-166 1101,-166 1101,-166 751.18,-166 751.18,-166"/>
<polygon fill="black" stroke="black" points="751.18,-162.5 741.18,-166 751.18,-169.5 751.18,-162.5"/>
</g>
<!-- DynamicTableModule -->
<g id="node8" class="node">
<title>DynamicTableModule</title>
<polygon fill="#8dd3c7" stroke="black" points="1014.24,-122 1011.24,-126 990.24,-126 987.24,-122 871.76,-122 871.76,-86 1014.24,-86 1014.24,-122"/>
<text text-anchor="middle" x="943" y="-99.8" font-family="Times,serif" font-size="14.00">DynamicTableModule</text>
</g>
<!-- DynamicTableModule&#45;&gt;ModuloModule -->
<g id="edge7" class="edge">
<title>DynamicTableModule&#45;&gt;ModuloModule</title>
<path fill="none" stroke="black" d="M909.74,-122.01C909.74,-138.05 909.74,-159 909.74,-159 909.74,-159 751.03,-159 751.03,-159"/>
<polygon fill="black" stroke="black" points="751.03,-155.5 741.03,-159 751.03,-162.5 751.03,-155.5"/>
</g>
<!-- ModuloRoutingModule -->
<g id="node9" class="node">
<title>ModuloRoutingModule</title>
<polygon fill="#8dd3c7" stroke="black" points="853.5,-122 850.5,-126 829.5,-126 826.5,-122 704.5,-122 704.5,-86 853.5,-86 853.5,-122"/>
<text text-anchor="middle" x="779" y="-99.8" font-family="Times,serif" font-size="14.00">ModuloRoutingModule</text>
</g>
<!-- ModuloRoutingModule&#45;&gt;ModuloModule -->
<g id="edge8" class="edge">
<title>ModuloRoutingModule&#45;&gt;ModuloModule</title>
<path fill="none" stroke="black" d="M722.72,-122.11C722.72,-122.11 722.72,-140.99 722.72,-140.99"/>
<polygon fill="black" stroke="black" points="719.22,-140.99 722.72,-150.99 726.22,-140.99 719.22,-140.99"/>
</g>
</g>
</svg>
