<?xml version="1.0" encoding="UTF-8" standalone="no"?>
<!DOCTYPE svg PUBLIC "-//W3C//DTD SVG 1.1//EN"
 "http://www.w3.org/Graphics/SVG/1.1/DTD/svg11.dtd">
<!-- Generated by graphviz version 2.47.0 (20210316.0004)
 -->
<!-- Title: dependencies Pages: 1 -->
<svg width="1711pt" height="211pt"
 viewBox="0.00 0.00 1711.00 211.00" xmlns="http://www.w3.org/2000/svg" xmlns:xlink="http://www.w3.org/1999/xlink">
<g id="graph0" class="graph" transform="scale(1 1) rotate(0) translate(4 207)">
<title>dependencies</title>
<polygon fill="white" stroke="transparent" points="-4,4 -4,-207 1707,-207 1707,4 -4,4"/>
<text text-anchor="start" x="830.51" y="-42.4" font-family="Times-12" font-weight="bold" font-size="14.00">Legend</text>
<polygon fill="#ffffb3" stroke="transparent" points="617.5,-10 617.5,-30 637.5,-30 637.5,-10 617.5,-10"/>
<text text-anchor="start" x="641.13" y="-15.4" font-family="Times-12" font-size="14.00"> &#160;Declarations</text>
<polygon fill="#8dd3c7" stroke="transparent" points="730.5,-10 730.5,-30 750.5,-30 750.5,-10 730.5,-10"/>
<text text-anchor="start" x="754.23" y="-15.4" font-family="Times-12" font-size="14.00"> &#160;Module</text>
<polygon fill="#80b1d3" stroke="transparent" points="816.5,-10 816.5,-30 836.5,-30 836.5,-10 816.5,-10"/>
<text text-anchor="start" x="840.28" y="-15.4" font-family="Times-12" font-size="14.00"> &#160;Bootstrap</text>
<polygon fill="#fdb462" stroke="transparent" points="913.5,-10 913.5,-30 933.5,-30 933.5,-10 913.5,-10"/>
<text text-anchor="start" x="937.17" y="-15.4" font-family="Times-12" font-size="14.00"> &#160;Providers</text>
<polygon fill="#fb8072" stroke="transparent" points="1009.5,-10 1009.5,-30 1029.5,-30 1029.5,-10 1009.5,-10"/>
<text text-anchor="start" x="1033.23" y="-15.4" font-family="Times-12" font-size="14.00"> &#160;Exports</text>
<g id="clust1" class="cluster">
<title>cluster_CursoModule</title>
<polygon fill="none" stroke="black" stroke-dasharray="1,5" points="8,-70 8,-195 1695,-195 1695,-70 8,-70"/>
</g>
<g id="clust7" class="cluster">
<title>cluster_CursoModule_imports</title>
<polygon fill="none" stroke="black" points="653,-78 653,-130 1687,-130 1687,-78 653,-78"/>
</g>
<g id="clust2" class="cluster">
<title>cluster_CursoModule_declarations</title>
<polygon fill="none" stroke="black" points="16,-78 16,-130 645,-130 645,-78 16,-78"/>
</g>
<!-- CreateCursoComponent -->
<g id="node1" class="node">
<title>CreateCursoComponent</title>
<polygon fill="#ffffb3" stroke="black" points="636.81,-122 485.19,-122 485.19,-86 636.81,-86 636.81,-122"/>
<text text-anchor="middle" x="561" y="-99.8" font-family="Times,serif" font-size="14.00">CreateCursoComponent</text>
</g>
<!-- CursoModule -->
<g id="node5" class="node">
<title>CursoModule</title>
<polygon fill="#8dd3c7" stroke="black" points="877.49,-187 874.49,-191 853.49,-191 850.49,-187 784.51,-187 784.51,-151 877.49,-151 877.49,-187"/>
<text text-anchor="middle" x="831" y="-164.8" font-family="Times,serif" font-size="14.00">CursoModule</text>
</g>
<!-- CreateCursoComponent&#45;&gt;CursoModule -->
<g id="edge1" class="edge">
<title>CreateCursoComponent&#45;&gt;CursoModule</title>
<path fill="none" stroke="black" d="M561,-122.02C561,-139.37 561,-163 561,-163 561,-163 774.28,-163 774.28,-163"/>
<polygon fill="black" stroke="black" points="774.28,-166.5 784.28,-163 774.28,-159.5 774.28,-166.5"/>
</g>
<!-- CursoComponent -->
<g id="node2" class="node">
<title>CursoComponent</title>
<polygon fill="#ffffb3" stroke="black" points="467.27,-122 352.73,-122 352.73,-86 467.27,-86 467.27,-122"/>
<text text-anchor="middle" x="410" y="-99.8" font-family="Times,serif" font-size="14.00">CursoComponent</text>
</g>
<!-- CursoComponent&#45;&gt;CursoModule -->
<g id="edge2" class="edge">
<title>CursoComponent&#45;&gt;CursoModule</title>
<path fill="none" stroke="black" d="M410,-122.11C410,-141.34 410,-169 410,-169 410,-169 774.34,-169 774.34,-169"/>
<polygon fill="black" stroke="black" points="774.34,-172.5 784.34,-169 774.34,-165.5 774.34,-172.5"/>
</g>
<!-- ListCursoComponent -->
<g id="node3" class="node">
<title>ListCursoComponent</title>
<polygon fill="#ffffb3" stroke="black" points="334.05,-122 197.95,-122 197.95,-86 334.05,-86 334.05,-122"/>
<text text-anchor="middle" x="266" y="-99.8" font-family="Times,serif" font-size="14.00">ListCursoComponent</text>
</g>
<!-- ListCursoComponent&#45;&gt;CursoModule -->
<g id="edge3" class="edge">
<title>ListCursoComponent&#45;&gt;CursoModule</title>
<path fill="none" stroke="black" d="M266,-122.28C266,-143.32 266,-175 266,-175 266,-175 774.28,-175 774.28,-175"/>
<polygon fill="black" stroke="black" points="774.28,-178.5 784.28,-175 774.28,-171.5 774.28,-178.5"/>
</g>
<!-- UpdateCursoComponent -->
<g id="node4" class="node">
<title>UpdateCursoComponent</title>
<polygon fill="#ffffb3" stroke="black" points="179.7,-122 24.3,-122 24.3,-86 179.7,-86 179.7,-122"/>
<text text-anchor="middle" x="102" y="-99.8" font-family="Times,serif" font-size="14.00">UpdateCursoComponent</text>
</g>
<!-- UpdateCursoComponent&#45;&gt;CursoModule -->
<g id="edge4" class="edge">
<title>UpdateCursoComponent&#45;&gt;CursoModule</title>
<path fill="none" stroke="black" d="M102,-122.09C102,-145.13 102,-182 102,-182 102,-182 774.29,-182 774.29,-182"/>
<polygon fill="black" stroke="black" points="774.29,-185.5 784.29,-182 774.29,-178.5 774.29,-185.5"/>
</g>
<!-- CollapseAccordionModule -->
<g id="node6" class="node">
<title>CollapseAccordionModule</title>
<polygon fill="#8dd3c7" stroke="black" points="1678.63,-122 1675.63,-126 1654.63,-126 1651.63,-122 1511.37,-122 1511.37,-86 1678.63,-86 1678.63,-122"/>
<text text-anchor="middle" x="1595" y="-99.8" font-family="Times,serif" font-size="14.00">CollapseAccordionModule</text>
</g>
<!-- CollapseAccordionModule&#45;&gt;CursoModule -->
<g id="edge5" class="edge">
<title>CollapseAccordionModule&#45;&gt;CursoModule</title>
<path fill="none" stroke="black" d="M1595,-122.09C1595,-145.13 1595,-182 1595,-182 1595,-182 887.64,-182 887.64,-182"/>
<polygon fill="black" stroke="black" points="887.64,-178.5 877.64,-182 887.64,-185.5 887.64,-178.5"/>
</g>
<!-- CursoRoutingModule -->
<g id="node7" class="node">
<title>CursoRoutingModule</title>
<polygon fill="#8dd3c7" stroke="black" points="1493.11,-122 1490.11,-126 1469.11,-126 1466.11,-122 1354.89,-122 1354.89,-86 1493.11,-86 1493.11,-122"/>
<text text-anchor="middle" x="1424" y="-99.8" font-family="Times,serif" font-size="14.00">CursoRoutingModule</text>
</g>
<!-- CursoRoutingModule&#45;&gt;CursoModule -->
<g id="edge6" class="edge">
<title>CursoRoutingModule&#45;&gt;CursoModule</title>
<path fill="none" stroke="black" d="M1424,-122.28C1424,-143.32 1424,-175 1424,-175 1424,-175 887.53,-175 887.53,-175"/>
<polygon fill="black" stroke="black" points="887.53,-171.5 877.53,-175 887.53,-178.5 887.53,-171.5"/>
</g>
<!-- DyamicSelectModule -->
<g id="node8" class="node">
<title>DyamicSelectModule</title>
<polygon fill="#8dd3c7" stroke="black" points="1337.07,-122 1334.07,-126 1313.07,-126 1310.07,-122 1198.93,-122 1198.93,-86 1337.07,-86 1337.07,-122"/>
<text text-anchor="middle" x="1268" y="-99.8" font-family="Times,serif" font-size="14.00">DyamicSelectModule</text>
</g>
<!-- DyamicSelectModule&#45;&gt;CursoModule -->
<g id="edge7" class="edge">
<title>DyamicSelectModule&#45;&gt;CursoModule</title>
<path fill="none" stroke="black" d="M1268,-122.11C1268,-141.34 1268,-169 1268,-169 1268,-169 887.77,-169 887.77,-169"/>
<polygon fill="black" stroke="black" points="887.77,-165.5 877.77,-169 887.77,-172.5 887.77,-165.5"/>
</g>
<!-- DynamicTableModule -->
<g id="node9" class="node">
<title>DynamicTableModule</title>
<polygon fill="#8dd3c7" stroke="black" points="1181.24,-122 1178.24,-126 1157.24,-126 1154.24,-122 1038.76,-122 1038.76,-86 1181.24,-86 1181.24,-122"/>
<text text-anchor="middle" x="1110" y="-99.8" font-family="Times,serif" font-size="14.00">DynamicTableModule</text>
</g>
<!-- DynamicTableModule&#45;&gt;CursoModule -->
<g id="edge8" class="edge">
<title>DynamicTableModule&#45;&gt;CursoModule</title>
<path fill="none" stroke="black" d="M1110,-122.02C1110,-139.37 1110,-163 1110,-163 1110,-163 887.7,-163 887.7,-163"/>
<polygon fill="black" stroke="black" points="887.7,-159.5 877.7,-163 887.7,-166.5 887.7,-159.5"/>
</g>
<!-- ImageInputModule -->
<g id="node10" class="node">
<title>ImageInputModule</title>
<polygon fill="#8dd3c7" stroke="black" points="1021.08,-122 1018.08,-126 997.08,-126 994.08,-122 896.92,-122 896.92,-86 1021.08,-86 1021.08,-122"/>
<text text-anchor="middle" x="959" y="-99.8" font-family="Times,serif" font-size="14.00">ImageInputModule</text>
</g>
<!-- ImageInputModule&#45;&gt;CursoModule -->
<g id="edge9" class="edge">
<title>ImageInputModule&#45;&gt;CursoModule</title>
<path fill="none" stroke="black" d="M959,-122.24C959,-137.57 959,-157 959,-157 959,-157 887.57,-157 887.57,-157"/>
<polygon fill="black" stroke="black" points="887.57,-153.5 877.57,-157 887.57,-160.5 887.57,-153.5"/>
</g>
<!-- ModalModule -->
<g id="node11" class="node">
<title>ModalModule</title>
<polygon fill="#8dd3c7" stroke="black" points="879.1,-122 876.1,-126 855.1,-126 852.1,-122 782.9,-122 782.9,-86 879.1,-86 879.1,-122"/>
<text text-anchor="middle" x="831" y="-99.8" font-family="Times,serif" font-size="14.00">ModalModule</text>
</g>
<!-- ModalModule&#45;&gt;CursoModule -->
<g id="edge10" class="edge">
<title>ModalModule&#45;&gt;CursoModule</title>
<path fill="none" stroke="black" d="M831,-122.11C831,-122.11 831,-140.99 831,-140.99"/>
<polygon fill="black" stroke="black" points="827.5,-140.99 831,-150.99 834.5,-140.99 827.5,-140.99"/>
</g>
<!-- ModuloModule -->
<g id="node12" class="node">
<title>ModuloModule</title>
<polygon fill="#8dd3c7" stroke="black" points="764.89,-122 761.89,-126 740.89,-126 737.89,-122 661.11,-122 661.11,-86 764.89,-86 764.89,-122"/>
<text text-anchor="middle" x="713" y="-99.8" font-family="Times,serif" font-size="14.00">ModuloModule</text>
</g>
<!-- ModuloModule&#45;&gt;CursoModule -->
<g id="edge11" class="edge">
<title>ModuloModule&#45;&gt;CursoModule</title>
<path fill="none" stroke="black" d="M713,-122.24C713,-137.57 713,-157 713,-157 713,-157 774.36,-157 774.36,-157"/>
<polygon fill="black" stroke="black" points="774.36,-160.5 784.36,-157 774.36,-153.5 774.36,-160.5"/>
</g>
</g>
</svg>
