<?xml version="1.0" encoding="UTF-8" standalone="no"?>
<!DOCTYPE svg PUBLIC "-//W3C//DTD SVG 1.1//EN"
 "http://www.w3.org/Graphics/SVG/1.1/DTD/svg11.dtd">
<!-- Generated by graphviz version 2.47.0 (20210316.0004)
 -->
<!-- Title: dependencies Pages: 1 -->
<svg width="740pt" height="284pt"
 viewBox="0.00 0.00 740.00 284.00" xmlns="http://www.w3.org/2000/svg" xmlns:xlink="http://www.w3.org/1999/xlink">
<g id="graph0" class="graph" transform="scale(1 1) rotate(0) translate(4 280)">
<title>dependencies</title>
<polygon fill="white" stroke="transparent" points="-4,4 -4,-280 736,-280 736,4 -4,4"/>
<text text-anchor="start" x="345.01" y="-42.4" font-family="Times-12" font-weight="bold" font-size="14.00">Legend</text>
<polygon fill="#ffffb3" stroke="transparent" points="132,-10 132,-30 152,-30 152,-10 132,-10"/>
<text text-anchor="start" x="155.63" y="-15.4" font-family="Times-12" font-size="14.00"> &#160;Declarations</text>
<polygon fill="#8dd3c7" stroke="transparent" points="245,-10 245,-30 265,-30 265,-10 245,-10"/>
<text text-anchor="start" x="268.73" y="-15.4" font-family="Times-12" font-size="14.00"> &#160;Module</text>
<polygon fill="#80b1d3" stroke="transparent" points="331,-10 331,-30 351,-30 351,-10 331,-10"/>
<text text-anchor="start" x="354.78" y="-15.4" font-family="Times-12" font-size="14.00"> &#160;Bootstrap</text>
<polygon fill="#fdb462" stroke="transparent" points="428,-10 428,-30 448,-30 448,-10 428,-10"/>
<text text-anchor="start" x="451.67" y="-15.4" font-family="Times-12" font-size="14.00"> &#160;Providers</text>
<polygon fill="#fb8072" stroke="transparent" points="524,-10 524,-30 544,-30 544,-10 524,-10"/>
<text text-anchor="start" x="547.73" y="-15.4" font-family="Times-12" font-size="14.00"> &#160;Exports</text>
<g id="clust1" class="cluster">
<title>cluster_DynamicTableByIdModule</title>
<polygon fill="none" stroke="black" stroke-dasharray="1,5" points="8,-70 8,-268 724,-268 724,-70 8,-70"/>
</g>
<g id="clust2" class="cluster">
<title>cluster_DynamicTableByIdModule_declarations</title>
<polygon fill="none" stroke="black" points="508,-78 508,-130 716,-130 716,-78 508,-78"/>
</g>
<g id="clust4" class="cluster">
<title>cluster_DynamicTableByIdModule_imports</title>
<polygon fill="none" stroke="black" points="16,-78 16,-130 500,-130 500,-78 16,-78"/>
</g>
<g id="clust5" class="cluster">
<title>cluster_DynamicTableByIdModule_exports</title>
<polygon fill="none" stroke="black" points="232,-208 232,-260 444,-260 444,-208 232,-208"/>
</g>
<!-- DynamicTableByIdComponent -->
<g id="node1" class="node">
<title>DynamicTableByIdComponent</title>
<polygon fill="#ffffb3" stroke="black" points="708.02,-122 515.98,-122 515.98,-86 708.02,-86 708.02,-122"/>
<text text-anchor="middle" x="612" y="-99.8" font-family="Times,serif" font-size="14.00">DynamicTableByIdComponent</text>
</g>
<!-- DynamicTableByIdModule -->
<g id="node2" class="node">
<title>DynamicTableByIdModule</title>
<polygon fill="#8dd3c7" stroke="black" points="423.24,-187 420.24,-191 399.24,-191 396.24,-187 252.76,-187 252.76,-151 423.24,-151 423.24,-187"/>
<text text-anchor="middle" x="338" y="-164.8" font-family="Times,serif" font-size="14.00">DynamicTableByIdModule</text>
</g>
<!-- DynamicTableByIdComponent&#45;&gt;DynamicTableByIdModule -->
<g id="edge1" class="edge">
<title>DynamicTableByIdComponent&#45;&gt;DynamicTableByIdModule</title>
<path fill="none" stroke="black" d="M612,-122.11C612,-141.34 612,-169 612,-169 612,-169 433.57,-169 433.57,-169"/>
<polygon fill="black" stroke="black" points="433.57,-165.5 423.57,-169 433.57,-172.5 433.57,-165.5"/>
</g>
<!-- DynamicTableByIdComponent  -->
<g id="node6" class="node">
<title>DynamicTableByIdComponent </title>
<polygon fill="#fb8072" stroke="black" points="436.02,-252 239.98,-252 239.98,-216 436.02,-216 436.02,-252"/>
<text text-anchor="middle" x="338" y="-229.8" font-family="Times,serif" font-size="14.00">DynamicTableByIdComponent </text>
</g>
<!-- DynamicTableByIdModule&#45;&gt;DynamicTableByIdComponent  -->
<g id="edge5" class="edge">
<title>DynamicTableByIdModule&#45;&gt;DynamicTableByIdComponent </title>
<path fill="none" stroke="black" stroke-dasharray="5,2" d="M338,-187.11C338,-187.11 338,-205.99 338,-205.99"/>
<polygon fill="black" stroke="black" points="334.5,-205.99 338,-215.99 341.5,-205.99 334.5,-205.99"/>
</g>
<!-- DyamicSelectModule -->
<g id="node3" class="node">
<title>DyamicSelectModule</title>
<polygon fill="#8dd3c7" stroke="black" points="492.07,-122 489.07,-126 468.07,-126 465.07,-122 353.93,-122 353.93,-86 492.07,-86 492.07,-122"/>
<text text-anchor="middle" x="423" y="-99.8" font-family="Times,serif" font-size="14.00">DyamicSelectModule</text>
</g>
<!-- DyamicSelectModule&#45;&gt;DynamicTableByIdModule -->
<g id="edge2" class="edge">
<title>DyamicSelectModule&#45;&gt;DynamicTableByIdModule</title>
<path fill="none" stroke="black" d="M388.67,-122.11C388.67,-122.11 388.67,-140.99 388.67,-140.99"/>
<polygon fill="black" stroke="black" points="385.17,-140.99 388.67,-150.99 392.17,-140.99 385.17,-140.99"/>
</g>
<!-- DynamicPaginatorModule -->
<g id="node4" class="node">
<title>DynamicPaginatorModule</title>
<polygon fill="#8dd3c7" stroke="black" points="336.02,-122 333.02,-126 312.02,-126 309.02,-122 171.98,-122 171.98,-86 336.02,-86 336.02,-122"/>
<text text-anchor="middle" x="254" y="-99.8" font-family="Times,serif" font-size="14.00">DynamicPaginatorModule</text>
</g>
<!-- DynamicPaginatorModule&#45;&gt;DynamicTableByIdModule -->
<g id="edge3" class="edge">
<title>DynamicPaginatorModule&#45;&gt;DynamicTableByIdModule</title>
<path fill="none" stroke="black" d="M294.45,-122.11C294.45,-122.11 294.45,-140.99 294.45,-140.99"/>
<polygon fill="black" stroke="black" points="290.95,-140.99 294.45,-150.99 297.95,-140.99 290.95,-140.99"/>
</g>
<!-- SearchTableModule -->
<g id="node5" class="node">
<title>SearchTableModule</title>
<polygon fill="#8dd3c7" stroke="black" points="153.51,-122 150.51,-126 129.51,-126 126.51,-122 24.49,-122 24.49,-86 153.51,-86 153.51,-122"/>
<text text-anchor="middle" x="89" y="-99.8" font-family="Times,serif" font-size="14.00">SearchTableModule</text>
</g>
<!-- SearchTableModule&#45;&gt;DynamicTableByIdModule -->
<g id="edge4" class="edge">
<title>SearchTableModule&#45;&gt;DynamicTableByIdModule</title>
<path fill="none" stroke="black" d="M89,-122.11C89,-141.34 89,-169 89,-169 89,-169 242.66,-169 242.66,-169"/>
<polygon fill="black" stroke="black" points="242.66,-172.5 252.66,-169 242.66,-165.5 242.66,-172.5"/>
</g>
</g>
</svg>
