<?xml version="1.0" encoding="UTF-8" standalone="no"?>
<!DOCTYPE svg PUBLIC "-//W3C//DTD SVG 1.1//EN"
 "http://www.w3.org/Graphics/SVG/1.1/DTD/svg11.dtd">
<!-- Generated by graphviz version 2.47.0 (20210316.0004)
 -->
<!-- Title: dependencies Pages: 1 -->
<svg width="1394pt" height="284pt"
 viewBox="0.00 0.00 1394.00 284.00" xmlns="http://www.w3.org/2000/svg" xmlns:xlink="http://www.w3.org/1999/xlink">
<g id="graph0" class="graph" transform="scale(1 1) rotate(0) translate(4 280)">
<title>dependencies</title>
<polygon fill="white" stroke="transparent" points="-4,4 -4,-280 1390,-280 1390,4 -4,4"/>
<text text-anchor="start" x="672.01" y="-42.4" font-family="Times-12" font-weight="bold" font-size="14.00">Legend</text>
<polygon fill="#ffffb3" stroke="transparent" points="459,-10 459,-30 479,-30 479,-10 459,-10"/>
<text text-anchor="start" x="482.63" y="-15.4" font-family="Times-12" font-size="14.00"> &#160;Declarations</text>
<polygon fill="#8dd3c7" stroke="transparent" points="572,-10 572,-30 592,-30 592,-10 572,-10"/>
<text text-anchor="start" x="595.73" y="-15.4" font-family="Times-12" font-size="14.00"> &#160;Module</text>
<polygon fill="#80b1d3" stroke="transparent" points="658,-10 658,-30 678,-30 678,-10 658,-10"/>
<text text-anchor="start" x="681.78" y="-15.4" font-family="Times-12" font-size="14.00"> &#160;Bootstrap</text>
<polygon fill="#fdb462" stroke="transparent" points="755,-10 755,-30 775,-30 775,-10 755,-10"/>
<text text-anchor="start" x="778.67" y="-15.4" font-family="Times-12" font-size="14.00"> &#160;Providers</text>
<polygon fill="#fb8072" stroke="transparent" points="851,-10 851,-30 871,-30 871,-10 851,-10"/>
<text text-anchor="start" x="874.73" y="-15.4" font-family="Times-12" font-size="14.00"> &#160;Exports</text>
<g id="clust1" class="cluster">
<title>cluster_ResumoModule</title>
<polygon fill="none" stroke="black" stroke-dasharray="1,5" points="8,-70 8,-268 1378,-268 1378,-70 8,-70"/>
</g>
<g id="clust2" class="cluster">
<title>cluster_ResumoModule_declarations</title>
<polygon fill="none" stroke="black" points="693,-78 693,-130 1370,-130 1370,-78 693,-78"/>
</g>
<g id="clust8" class="cluster">
<title>cluster_ResumoModule_exports</title>
<polygon fill="none" stroke="black" points="319,-208 319,-260 863,-260 863,-208 319,-208"/>
</g>
<g id="clust7" class="cluster">
<title>cluster_ResumoModule_imports</title>
<polygon fill="none" stroke="black" points="16,-78 16,-130 685,-130 685,-78 16,-78"/>
</g>
<!-- CreateResumoComponent -->
<g id="node1" class="node">
<title>CreateResumoComponent</title>
<polygon fill="#ffffb3" stroke="black" points="1361.75,-122 1198.25,-122 1198.25,-86 1361.75,-86 1361.75,-122"/>
<text text-anchor="middle" x="1280" y="-99.8" font-family="Times,serif" font-size="14.00">CreateResumoComponent</text>
</g>
<!-- ResumoModule -->
<g id="node5" class="node">
<title>ResumoModule</title>
<polygon fill="#8dd3c7" stroke="black" points="645.94,-187 642.94,-191 621.94,-191 618.94,-187 540.06,-187 540.06,-151 645.94,-151 645.94,-187"/>
<text text-anchor="middle" x="593" y="-164.8" font-family="Times,serif" font-size="14.00">ResumoModule</text>
</g>
<!-- CreateResumoComponent&#45;&gt;ResumoModule -->
<g id="edge1" class="edge">
<title>CreateResumoComponent&#45;&gt;ResumoModule</title>
<path fill="none" stroke="black" d="M1280,-122.28C1280,-143.32 1280,-175 1280,-175 1280,-175 655.77,-175 655.77,-175"/>
<polygon fill="black" stroke="black" points="655.77,-171.5 645.77,-175 655.77,-178.5 655.77,-171.5"/>
</g>
<!-- ListResumoComponent -->
<g id="node2" class="node">
<title>ListResumoComponent</title>
<polygon fill="#ffffb3" stroke="black" points="1180.5,-122 1031.5,-122 1031.5,-86 1180.5,-86 1180.5,-122"/>
<text text-anchor="middle" x="1106" y="-99.8" font-family="Times,serif" font-size="14.00">ListResumoComponent</text>
</g>
<!-- ListResumoComponent&#45;&gt;ResumoModule -->
<g id="edge2" class="edge">
<title>ListResumoComponent&#45;&gt;ResumoModule</title>
<path fill="none" stroke="black" d="M1106,-122.11C1106,-141.34 1106,-169 1106,-169 1106,-169 655.97,-169 655.97,-169"/>
<polygon fill="black" stroke="black" points="655.97,-165.5 645.97,-169 655.97,-172.5 655.97,-165.5"/>
</g>
<!-- ResumoComponent -->
<g id="node3" class="node">
<title>ResumoComponent</title>
<polygon fill="#ffffb3" stroke="black" points="1013.72,-122 886.28,-122 886.28,-86 1013.72,-86 1013.72,-122"/>
<text text-anchor="middle" x="950" y="-99.8" font-family="Times,serif" font-size="14.00">ResumoComponent</text>
</g>
<!-- ResumoComponent&#45;&gt;ResumoModule -->
<g id="edge3" class="edge">
<title>ResumoComponent&#45;&gt;ResumoModule</title>
<path fill="none" stroke="black" d="M950,-122.02C950,-139.37 950,-163 950,-163 950,-163 656.06,-163 656.06,-163"/>
<polygon fill="black" stroke="black" points="656.06,-159.5 646.06,-163 656.06,-166.5 656.06,-159.5"/>
</g>
<!-- UpdateResumoComponent -->
<g id="node4" class="node">
<title>UpdateResumoComponent</title>
<polygon fill="#ffffb3" stroke="black" points="868.65,-122 701.35,-122 701.35,-86 868.65,-86 868.65,-122"/>
<text text-anchor="middle" x="785" y="-99.8" font-family="Times,serif" font-size="14.00">UpdateResumoComponent</text>
</g>
<!-- UpdateResumoComponent&#45;&gt;ResumoModule -->
<g id="edge4" class="edge">
<title>UpdateResumoComponent&#45;&gt;ResumoModule</title>
<path fill="none" stroke="black" d="M777.9,-122.24C777.9,-137.57 777.9,-157 777.9,-157 777.9,-157 655.99,-157 655.99,-157"/>
<polygon fill="black" stroke="black" points="655.99,-153.5 645.99,-157 655.99,-160.5 655.99,-153.5"/>
</g>
<!-- CreateResumoComponent  -->
<g id="node10" class="node">
<title>CreateResumoComponent </title>
<polygon fill="#fb8072" stroke="black" points="854.75,-252 687.25,-252 687.25,-216 854.75,-216 854.75,-252"/>
<text text-anchor="middle" x="771" y="-229.8" font-family="Times,serif" font-size="14.00">CreateResumoComponent </text>
</g>
<!-- ResumoModule&#45;&gt;CreateResumoComponent  -->
<g id="edge10" class="edge">
<title>ResumoModule&#45;&gt;CreateResumoComponent </title>
<path fill="none" stroke="black" stroke-dasharray="5,2" d="M646.01,-181C670.51,-181 694.28,-181 694.28,-181 694.28,-181 694.28,-205.76 694.28,-205.76"/>
<polygon fill="black" stroke="black" points="690.78,-205.76 694.28,-215.76 697.78,-205.76 690.78,-205.76"/>
</g>
<!-- ListResumoComponent  -->
<g id="node11" class="node">
<title>ListResumoComponent </title>
<polygon fill="#fb8072" stroke="black" points="669.5,-252 516.5,-252 516.5,-216 669.5,-216 669.5,-252"/>
<text text-anchor="middle" x="593" y="-229.8" font-family="Times,serif" font-size="14.00">ListResumoComponent </text>
</g>
<!-- ResumoModule&#45;&gt;ListResumoComponent  -->
<g id="edge11" class="edge">
<title>ResumoModule&#45;&gt;ListResumoComponent </title>
<path fill="none" stroke="black" stroke-dasharray="5,2" d="M593,-187.11C593,-187.11 593,-205.99 593,-205.99"/>
<polygon fill="black" stroke="black" points="589.5,-205.99 593,-215.99 596.5,-205.99 589.5,-205.99"/>
</g>
<!-- UpdateResumoComponent  -->
<g id="node12" class="node">
<title>UpdateResumoComponent </title>
<polygon fill="#fb8072" stroke="black" points="498.65,-252 327.35,-252 327.35,-216 498.65,-216 498.65,-252"/>
<text text-anchor="middle" x="413" y="-229.8" font-family="Times,serif" font-size="14.00">UpdateResumoComponent </text>
</g>
<!-- ResumoModule&#45;&gt;UpdateResumoComponent  -->
<g id="edge12" class="edge">
<title>ResumoModule&#45;&gt;UpdateResumoComponent </title>
<path fill="none" stroke="black" stroke-dasharray="5,2" d="M540.17,-181C516.92,-181 494.8,-181 494.8,-181 494.8,-181 494.8,-205.76 494.8,-205.76"/>
<polygon fill="black" stroke="black" points="491.3,-205.76 494.8,-215.76 498.3,-205.76 491.3,-205.76"/>
</g>
<!-- CollapseAccordionModule -->
<g id="node6" class="node">
<title>CollapseAccordionModule</title>
<polygon fill="#8dd3c7" stroke="black" points="676.63,-122 673.63,-126 652.63,-126 649.63,-122 509.37,-122 509.37,-86 676.63,-86 676.63,-122"/>
<text text-anchor="middle" x="593" y="-99.8" font-family="Times,serif" font-size="14.00">CollapseAccordionModule</text>
</g>
<!-- CollapseAccordionModule&#45;&gt;ResumoModule -->
<g id="edge5" class="edge">
<title>CollapseAccordionModule&#45;&gt;ResumoModule</title>
<path fill="none" stroke="black" d="M593,-122.11C593,-122.11 593,-140.99 593,-140.99"/>
<polygon fill="black" stroke="black" points="589.5,-140.99 593,-150.99 596.5,-140.99 589.5,-140.99"/>
</g>
<!-- DyamicSelectModule -->
<g id="node7" class="node">
<title>DyamicSelectModule</title>
<polygon fill="#8dd3c7" stroke="black" points="491.07,-122 488.07,-126 467.07,-126 464.07,-122 352.93,-122 352.93,-86 491.07,-86 491.07,-122"/>
<text text-anchor="middle" x="422" y="-99.8" font-family="Times,serif" font-size="14.00">DyamicSelectModule</text>
</g>
<!-- DyamicSelectModule&#45;&gt;ResumoModule -->
<g id="edge6" class="edge">
<title>DyamicSelectModule&#45;&gt;ResumoModule</title>
<path fill="none" stroke="black" d="M398.99,-122.02C398.99,-139.37 398.99,-163 398.99,-163 398.99,-163 530.24,-163 530.24,-163"/>
<polygon fill="black" stroke="black" points="530.24,-166.5 540.24,-163 530.24,-159.5 530.24,-166.5"/>
</g>
<!-- DyamicSelectModule&#45;&gt;ResumoModule -->
<g id="edge7" class="edge">
<title>DyamicSelectModule&#45;&gt;ResumoModule</title>
<path fill="none" stroke="black" d="M445.01,-122.24C445.01,-137.57 445.01,-157 445.01,-157 445.01,-157 529.99,-157 529.99,-157"/>
<polygon fill="black" stroke="black" points="529.99,-160.5 539.99,-157 529.99,-153.5 529.99,-160.5"/>
</g>
<!-- DynamicTableModule -->
<g id="node8" class="node">
<title>DynamicTableModule</title>
<polygon fill="#8dd3c7" stroke="black" points="335.24,-122 332.24,-126 311.24,-126 308.24,-122 192.76,-122 192.76,-86 335.24,-86 335.24,-122"/>
<text text-anchor="middle" x="264" y="-99.8" font-family="Times,serif" font-size="14.00">DynamicTableModule</text>
</g>
<!-- DynamicTableModule&#45;&gt;ResumoModule -->
<g id="edge8" class="edge">
<title>DynamicTableModule&#45;&gt;ResumoModule</title>
<path fill="none" stroke="black" d="M331.4,-122.11C331.4,-141.34 331.4,-169 331.4,-169 331.4,-169 530.06,-169 530.06,-169"/>
<polygon fill="black" stroke="black" points="530.06,-172.5 540.06,-169 530.06,-165.5 530.06,-172.5"/>
</g>
<!-- ResumoRoutingModule -->
<g id="node9" class="node">
<title>ResumoRoutingModule</title>
<polygon fill="#8dd3c7" stroke="black" points="174.05,-122 171.05,-126 150.05,-126 147.05,-122 23.95,-122 23.95,-86 174.05,-86 174.05,-122"/>
<text text-anchor="middle" x="99" y="-99.8" font-family="Times,serif" font-size="14.00">ResumoRoutingModule</text>
</g>
<!-- ResumoRoutingModule&#45;&gt;ResumoModule -->
<g id="edge9" class="edge">
<title>ResumoRoutingModule&#45;&gt;ResumoModule</title>
<path fill="none" stroke="black" d="M99,-122.28C99,-143.32 99,-175 99,-175 99,-175 530.13,-175 530.13,-175"/>
<polygon fill="black" stroke="black" points="530.13,-178.5 540.13,-175 530.13,-171.5 530.13,-178.5"/>
</g>
</g>
</svg>
