<?xml version="1.0" encoding="UTF-8" standalone="no"?>
<!DOCTYPE svg PUBLIC "-//W3C//DTD SVG 1.1//EN"
 "http://www.w3.org/Graphics/SVG/1.1/DTD/svg11.dtd">
<!-- Generated by graphviz version 2.47.0 (20210316.0004)
 -->
<!-- Title: dependencies Pages: 1 -->
<svg width="776pt" height="396pt"
 viewBox="0.00 0.00 776.00 395.59" xmlns="http://www.w3.org/2000/svg" xmlns:xlink="http://www.w3.org/1999/xlink">
<g id="graph0" class="graph" transform="scale(1 1) rotate(0) translate(4 391.59)">
<title>dependencies</title>
<polygon fill="white" stroke="transparent" points="-4,4 -4,-391.59 772,-391.59 772,4 -4,4"/>
<text text-anchor="start" x="363.01" y="-42.4" font-family="Times-12" font-weight="bold" font-size="14.00">Legend</text>
<polygon fill="#ffffb3" stroke="transparent" points="150,-10 150,-30 170,-30 170,-10 150,-10"/>
<text text-anchor="start" x="173.63" y="-15.4" font-family="Times-12" font-size="14.00"> &#160;Declarations</text>
<polygon fill="#8dd3c7" stroke="transparent" points="263,-10 263,-30 283,-30 283,-10 263,-10"/>
<text text-anchor="start" x="286.73" y="-15.4" font-family="Times-12" font-size="14.00"> &#160;Module</text>
<polygon fill="#80b1d3" stroke="transparent" points="349,-10 349,-30 369,-30 369,-10 349,-10"/>
<text text-anchor="start" x="372.78" y="-15.4" font-family="Times-12" font-size="14.00"> &#160;Bootstrap</text>
<polygon fill="#fdb462" stroke="transparent" points="446,-10 446,-30 466,-30 466,-10 446,-10"/>
<text text-anchor="start" x="469.67" y="-15.4" font-family="Times-12" font-size="14.00"> &#160;Providers</text>
<polygon fill="#fb8072" stroke="transparent" points="542,-10 542,-30 562,-30 562,-10 542,-10"/>
<text text-anchor="start" x="565.73" y="-15.4" font-family="Times-12" font-size="14.00"> &#160;Exports</text>
<g id="clust1" class="cluster">
<title>cluster_ImageInputModule</title>
<polygon fill="none" stroke="black" stroke-dasharray="1,5" points="8,-70 8,-379.59 760,-379.59 760,-70 8,-70"/>
</g>
<g id="clust2" class="cluster">
<title>cluster_ImageInputModule_declarations</title>
<polygon fill="none" stroke="black" points="123,-189.59 123,-241.59 465,-241.59 465,-189.59 123,-189.59"/>
</g>
<g id="clust5" class="cluster">
<title>cluster_ImageInputModule_imports</title>
<polygon fill="none" stroke="black" points="473,-189.59 473,-241.59 617,-241.59 617,-189.59 473,-189.59"/>
</g>
<g id="clust3" class="cluster">
<title>cluster_ImageInputModule_ImageInputComponent_providers</title>
<polygon fill="none" stroke="black" points="16,-78 16,-176.59 752,-176.59 752,-78 16,-78"/>
</g>
<g id="clust6" class="cluster">
<title>cluster_ImageInputModule_exports</title>
<polygon fill="none" stroke="black" points="205,-319.59 205,-371.59 555,-371.59 555,-319.59 205,-319.59"/>
</g>
<!-- ImageInputComponent -->
<g id="node1" class="node">
<title>ImageInputComponent</title>
<polygon fill="#ffffb3" stroke="black" points="456.86,-233.59 311.14,-233.59 311.14,-197.59 456.86,-197.59 456.86,-233.59"/>
<text text-anchor="middle" x="384" y="-211.39" font-family="Times,serif" font-size="14.00">ImageInputComponent</text>
</g>
<!-- ImageInputModule -->
<g id="node3" class="node">
<title>ImageInputModule</title>
<polygon fill="#8dd3c7" stroke="black" points="446.08,-298.59 443.08,-302.59 422.08,-302.59 419.08,-298.59 321.92,-298.59 321.92,-262.59 446.08,-262.59 446.08,-298.59"/>
<text text-anchor="middle" x="384" y="-276.39" font-family="Times,serif" font-size="14.00">ImageInputModule</text>
</g>
<!-- ImageInputComponent&#45;&gt;ImageInputModule -->
<g id="edge1" class="edge">
<title>ImageInputComponent&#45;&gt;ImageInputModule</title>
<path fill="none" stroke="black" d="M384,-233.7C384,-233.7 384,-252.58 384,-252.58"/>
<polygon fill="black" stroke="black" points="380.5,-252.58 384,-262.58 387.5,-252.58 380.5,-252.58"/>
</g>
<!-- ImagePreviewComponent -->
<g id="node2" class="node">
<title>ImagePreviewComponent</title>
<polygon fill="#ffffb3" stroke="black" points="293.18,-233.59 130.82,-233.59 130.82,-197.59 293.18,-197.59 293.18,-233.59"/>
<text text-anchor="middle" x="212" y="-211.39" font-family="Times,serif" font-size="14.00">ImagePreviewComponent</text>
</g>
<!-- ImagePreviewComponent&#45;&gt;ImageInputModule -->
<g id="edge3" class="edge">
<title>ImagePreviewComponent&#45;&gt;ImageInputModule</title>
<path fill="none" stroke="black" d="M253.12,-233.7C253.12,-252.93 253.12,-280.59 253.12,-280.59 253.12,-280.59 311.63,-280.59 311.63,-280.59"/>
<polygon fill="black" stroke="black" points="311.63,-284.09 321.63,-280.59 311.63,-277.09 311.63,-284.09"/>
</g>
<!-- ImageInputComponent  -->
<g id="node6" class="node">
<title>ImageInputComponent </title>
<polygon fill="#fb8072" stroke="black" points="546.86,-363.59 397.14,-363.59 397.14,-327.59 546.86,-327.59 546.86,-363.59"/>
<text text-anchor="middle" x="472" y="-341.39" font-family="Times,serif" font-size="14.00">ImageInputComponent </text>
</g>
<!-- ImageInputModule&#45;&gt;ImageInputComponent  -->
<g id="edge5" class="edge">
<title>ImageInputModule&#45;&gt;ImageInputComponent </title>
<path fill="none" stroke="black" stroke-dasharray="5,2" d="M421.68,-298.7C421.68,-298.7 421.68,-317.58 421.68,-317.58"/>
<polygon fill="black" stroke="black" points="418.18,-317.58 421.68,-327.58 425.18,-317.58 418.18,-317.58"/>
</g>
<!-- ImagePreviewComponent  -->
<g id="node7" class="node">
<title>ImagePreviewComponent </title>
<polygon fill="#fb8072" stroke="black" points="378.68,-363.59 213.32,-363.59 213.32,-327.59 378.68,-327.59 378.68,-363.59"/>
<text text-anchor="middle" x="296" y="-341.39" font-family="Times,serif" font-size="14.00">ImagePreviewComponent </text>
</g>
<!-- ImageInputModule&#45;&gt;ImagePreviewComponent  -->
<g id="edge6" class="edge">
<title>ImageInputModule&#45;&gt;ImagePreviewComponent </title>
<path fill="none" stroke="black" stroke-dasharray="5,2" d="M350.4,-298.7C350.4,-298.7 350.4,-317.58 350.4,-317.58"/>
<polygon fill="black" stroke="black" points="346.9,-317.58 350.4,-327.58 353.9,-317.58 346.9,-317.58"/>
</g>
<!-- {
 &#160;&#160;&#160;provide: NG_VALUE_ACCESSOR, useExisting: ImageInputComponent, multi: true
} -->
<g id="node4" class="node">
<title>{
 &#160;&#160;&#160;provide: NG_VALUE_ACCESSOR, useExisting: ImageInputComponent, multi: true
}</title>
<ellipse fill="#fdb462" stroke="black" cx="384" cy="-127.3" rx="360.45" ry="41.09"/>
<text text-anchor="middle" x="384" y="-139.9" font-family="Times,serif" font-size="14.00">{</text>
<text text-anchor="middle" x="384" y="-123.1" font-family="Times,serif" font-size="14.00"> &#160;&#160;&#160;provide: NG_VALUE_ACCESSOR, useExisting: ImageInputComponent, multi: true</text>
<text text-anchor="middle" x="384" y="-106.3" font-family="Times,serif" font-size="14.00">}</text>
</g>
<!-- {
 &#160;&#160;&#160;provide: NG_VALUE_ACCESSOR, useExisting: ImageInputComponent, multi: true
}&#45;&gt;ImageInputComponent -->
<g id="edge2" class="edge">
<title>{
 &#160;&#160;&#160;provide: NG_VALUE_ACCESSOR, useExisting: ImageInputComponent, multi: true
}&#45;&gt;ImageInputComponent</title>
<path fill="none" stroke="black" d="M384,-168.6C384,-168.6 384,-187.26 384,-187.26"/>
<polygon fill="black" stroke="black" points="380.5,-187.26 384,-197.26 387.5,-187.26 380.5,-187.26"/>
</g>
<!-- ProgressBarModule -->
<g id="node5" class="node">
<title>ProgressBarModule</title>
<polygon fill="#8dd3c7" stroke="black" points="608.97,-233.59 605.97,-237.59 584.97,-237.59 581.97,-233.59 481.03,-233.59 481.03,-197.59 608.97,-197.59 608.97,-233.59"/>
<text text-anchor="middle" x="545" y="-211.39" font-family="Times,serif" font-size="14.00">ProgressBarModule</text>
</g>
<!-- ProgressBarModule&#45;&gt;ImageInputModule -->
<g id="edge4" class="edge">
<title>ProgressBarModule&#45;&gt;ImageInputModule</title>
<path fill="none" stroke="black" d="M513.85,-233.7C513.85,-252.93 513.85,-280.59 513.85,-280.59 513.85,-280.59 456.26,-280.59 456.26,-280.59"/>
<polygon fill="black" stroke="black" points="456.26,-277.09 446.26,-280.59 456.26,-284.09 456.26,-277.09"/>
</g>
</g>
</svg>
