<?xml version="1.0" encoding="UTF-8" standalone="no"?>
<!DOCTYPE svg PUBLIC "-//W3C//DTD SVG 1.1//EN"
 "http://www.w3.org/Graphics/SVG/1.1/DTD/svg11.dtd">
<!-- Generated by graphviz version 2.47.0 (20210316.0004)
 -->
<!-- Title: dependencies Pages: 1 -->
<svg width="504pt" height="284pt"
 viewBox="0.00 0.00 504.00 284.00" xmlns="http://www.w3.org/2000/svg" xmlns:xlink="http://www.w3.org/1999/xlink">
<g id="graph0" class="graph" transform="scale(1 1) rotate(0) translate(4 280)">
<title>dependencies</title>
<polygon fill="white" stroke="transparent" points="-4,4 -4,-280 500,-280 500,4 -4,4"/>
<text text-anchor="start" x="227.01" y="-42.4" font-family="Times-12" font-weight="bold" font-size="14.00">Legend</text>
<polygon fill="#ffffb3" stroke="transparent" points="14,-10 14,-30 34,-30 34,-10 14,-10"/>
<text text-anchor="start" x="37.63" y="-15.4" font-family="Times-12" font-size="14.00"> &#160;Declarations</text>
<polygon fill="#8dd3c7" stroke="transparent" points="127,-10 127,-30 147,-30 147,-10 127,-10"/>
<text text-anchor="start" x="150.73" y="-15.4" font-family="Times-12" font-size="14.00"> &#160;Module</text>
<polygon fill="#80b1d3" stroke="transparent" points="213,-10 213,-30 233,-30 233,-10 213,-10"/>
<text text-anchor="start" x="236.78" y="-15.4" font-family="Times-12" font-size="14.00"> &#160;Bootstrap</text>
<polygon fill="#fdb462" stroke="transparent" points="310,-10 310,-30 330,-30 330,-10 310,-10"/>
<text text-anchor="start" x="333.67" y="-15.4" font-family="Times-12" font-size="14.00"> &#160;Providers</text>
<polygon fill="#fb8072" stroke="transparent" points="406,-10 406,-30 426,-30 426,-10 406,-10"/>
<text text-anchor="start" x="429.73" y="-15.4" font-family="Times-12" font-size="14.00"> &#160;Exports</text>
<g id="clust1" class="cluster">
<title>cluster_CustomSelectableListModule</title>
<polygon fill="none" stroke="black" stroke-dasharray="1,5" points="35,-70 35,-268 461,-268 461,-70 35,-70"/>
</g>
<g id="clust2" class="cluster">
<title>cluster_CustomSelectableListModule_declarations</title>
<polygon fill="none" stroke="black" points="48,-78 48,-130 450,-130 450,-78 48,-78"/>
</g>
<g id="clust6" class="cluster">
<title>cluster_CustomSelectableListModule_exports</title>
<polygon fill="none" stroke="black" points="43,-208 43,-260 453,-260 453,-208 43,-208"/>
</g>
<!-- CustomSelectableListComponent -->
<g id="node1" class="node">
<title>CustomSelectableListComponent</title>
<polygon fill="#ffffb3" stroke="black" points="442.2,-122 237.8,-122 237.8,-86 442.2,-86 442.2,-122"/>
<text text-anchor="middle" x="340" y="-99.8" font-family="Times,serif" font-size="14.00">CustomSelectableListComponent</text>
</g>
<!-- CustomSelectableListModule -->
<g id="node3" class="node">
<title>CustomSelectableListModule</title>
<polygon fill="#8dd3c7" stroke="black" points="229.42,-187 226.42,-191 205.42,-191 202.42,-187 46.58,-187 46.58,-151 229.42,-151 229.42,-187"/>
<text text-anchor="middle" x="138" y="-164.8" font-family="Times,serif" font-size="14.00">CustomSelectableListModule</text>
</g>
<!-- CustomSelectableListComponent&#45;&gt;CustomSelectableListModule -->
<g id="edge1" class="edge">
<title>CustomSelectableListComponent&#45;&gt;CustomSelectableListModule</title>
<path fill="none" stroke="black" d="M237.51,-104C229.67,-104 224.73,-104 224.73,-104 224.73,-104 224.73,-140.89 224.73,-140.89"/>
<polygon fill="black" stroke="black" points="221.23,-140.89 224.73,-150.89 228.23,-140.89 221.23,-140.89"/>
</g>
<!-- SelectableItemComponent -->
<g id="node2" class="node">
<title>SelectableItemComponent</title>
<polygon fill="#ffffb3" stroke="black" points="220.02,-122 55.98,-122 55.98,-86 220.02,-86 220.02,-122"/>
<text text-anchor="middle" x="138" y="-99.8" font-family="Times,serif" font-size="14.00">SelectableItemComponent</text>
</g>
<!-- SelectableItemComponent&#45;&gt;CustomSelectableListModule -->
<g id="edge2" class="edge">
<title>SelectableItemComponent&#45;&gt;CustomSelectableListModule</title>
<path fill="none" stroke="black" d="M165.42,-122.11C165.42,-122.11 165.42,-140.99 165.42,-140.99"/>
<polygon fill="black" stroke="black" points="161.92,-140.99 165.42,-150.99 168.92,-140.99 161.92,-140.99"/>
</g>
<!-- SelectableItemComponent&#45;&gt;CustomSelectableListModule -->
<g id="edge3" class="edge">
<title>SelectableItemComponent&#45;&gt;CustomSelectableListModule</title>
<path fill="none" stroke="black" d="M110.58,-122.11C110.58,-122.11 110.58,-140.99 110.58,-140.99"/>
<polygon fill="black" stroke="black" points="107.08,-140.99 110.58,-150.99 114.08,-140.99 107.08,-140.99"/>
</g>
<!-- CustomSelectableListComponent  -->
<g id="node4" class="node">
<title>CustomSelectableListComponent </title>
<polygon fill="#fb8072" stroke="black" points="444.7,-252 237.3,-252 237.3,-216 444.7,-216 444.7,-252"/>
<text text-anchor="middle" x="341" y="-229.8" font-family="Times,serif" font-size="14.00">CustomSelectableListComponent </text>
</g>
<!-- CustomSelectableListModule&#45;&gt;CustomSelectableListComponent  -->
<g id="edge4" class="edge">
<title>CustomSelectableListModule&#45;&gt;CustomSelectableListComponent </title>
<path fill="none" stroke="black" stroke-dasharray="5,2" d="M224.11,-187.11C224.11,-206.34 224.11,-234 224.11,-234 224.11,-234 227.06,-234 227.06,-234"/>
<polygon fill="black" stroke="black" points="227.06,-237.5 237.06,-234 227.06,-230.5 227.06,-237.5"/>
</g>
<!-- SelectableItemComponent  -->
<g id="node5" class="node">
<title>SelectableItemComponent </title>
<polygon fill="#fb8072" stroke="black" points="219.02,-252 50.98,-252 50.98,-216 219.02,-216 219.02,-252"/>
<text text-anchor="middle" x="135" y="-229.8" font-family="Times,serif" font-size="14.00">SelectableItemComponent </text>
</g>
<!-- CustomSelectableListModule&#45;&gt;SelectableItemComponent  -->
<g id="edge5" class="edge">
<title>CustomSelectableListModule&#45;&gt;SelectableItemComponent </title>
<path fill="none" stroke="black" stroke-dasharray="5,2" d="M135,-187.11C135,-187.11 135,-205.99 135,-205.99"/>
<polygon fill="black" stroke="black" points="131.5,-205.99 135,-215.99 138.5,-205.99 131.5,-205.99"/>
</g>
</g>
</svg>
