<?xml version="1.0" encoding="UTF-8" standalone="no"?>
<!DOCTYPE svg PUBLIC "-//W3C//DTD SVG 1.1//EN"
 "http://www.w3.org/Graphics/SVG/1.1/DTD/svg11.dtd">
<!-- Generated by graphviz version 2.47.0 (20210316.0004)
 -->
<!-- Title: dependencies Pages: 1 -->
<svg width="1484pt" height="211pt"
 viewBox="0.00 0.00 1484.00 211.00" xmlns="http://www.w3.org/2000/svg" xmlns:xlink="http://www.w3.org/1999/xlink">
<g id="graph0" class="graph" transform="scale(1 1) rotate(0) translate(4 207)">
<title>dependencies</title>
<polygon fill="white" stroke="transparent" points="-4,4 -4,-207 1480,-207 1480,4 -4,4"/>
<text text-anchor="start" x="717.01" y="-42.4" font-family="Times-12" font-weight="bold" font-size="14.00">Legend</text>
<polygon fill="#ffffb3" stroke="transparent" points="504,-10 504,-30 524,-30 524,-10 504,-10"/>
<text text-anchor="start" x="527.63" y="-15.4" font-family="Times-12" font-size="14.00"> &#160;Declarations</text>
<polygon fill="#8dd3c7" stroke="transparent" points="617,-10 617,-30 637,-30 637,-10 617,-10"/>
<text text-anchor="start" x="640.73" y="-15.4" font-family="Times-12" font-size="14.00"> &#160;Module</text>
<polygon fill="#80b1d3" stroke="transparent" points="703,-10 703,-30 723,-30 723,-10 703,-10"/>
<text text-anchor="start" x="726.78" y="-15.4" font-family="Times-12" font-size="14.00"> &#160;Bootstrap</text>
<polygon fill="#fdb462" stroke="transparent" points="800,-10 800,-30 820,-30 820,-10 800,-10"/>
<text text-anchor="start" x="823.67" y="-15.4" font-family="Times-12" font-size="14.00"> &#160;Providers</text>
<polygon fill="#fb8072" stroke="transparent" points="896,-10 896,-30 916,-30 916,-10 896,-10"/>
<text text-anchor="start" x="919.73" y="-15.4" font-family="Times-12" font-size="14.00"> &#160;Exports</text>
<g id="clust1" class="cluster">
<title>cluster_UserModule</title>
<polygon fill="none" stroke="black" stroke-dasharray="1,5" points="8,-70 8,-195 1468,-195 1468,-70 8,-70"/>
</g>
<g id="clust6" class="cluster">
<title>cluster_UserModule_imports</title>
<polygon fill="none" stroke="black" points="462,-78 462,-130 1460,-130 1460,-78 462,-78"/>
</g>
<g id="clust2" class="cluster">
<title>cluster_UserModule_declarations</title>
<polygon fill="none" stroke="black" points="16,-78 16,-130 454,-130 454,-78 16,-78"/>
</g>
<!-- ListUserComponent -->
<g id="node1" class="node">
<title>ListUserComponent</title>
<polygon fill="#ffffb3" stroke="black" points="445.54,-122 316.46,-122 316.46,-86 445.54,-86 445.54,-122"/>
<text text-anchor="middle" x="381" y="-99.8" font-family="Times,serif" font-size="14.00">ListUserComponent</text>
</g>
<!-- UserModule -->
<g id="node4" class="node">
<title>UserModule</title>
<polygon fill="#8dd3c7" stroke="black" points="755.98,-187 752.98,-191 731.98,-191 728.98,-187 670.02,-187 670.02,-151 755.98,-151 755.98,-187"/>
<text text-anchor="middle" x="713" y="-164.8" font-family="Times,serif" font-size="14.00">UserModule</text>
</g>
<!-- ListUserComponent&#45;&gt;UserModule -->
<g id="edge1" class="edge">
<title>ListUserComponent&#45;&gt;UserModule</title>
<path fill="none" stroke="black" d="M381,-122.27C381,-140.56 381,-166 381,-166 381,-166 659.94,-166 659.94,-166"/>
<polygon fill="black" stroke="black" points="659.94,-169.5 669.94,-166 659.94,-162.5 659.94,-169.5"/>
</g>
<!-- UpdateUserComponent -->
<g id="node2" class="node">
<title>UpdateUserComponent</title>
<polygon fill="#ffffb3" stroke="black" points="298.19,-122 149.81,-122 149.81,-86 298.19,-86 298.19,-122"/>
<text text-anchor="middle" x="224" y="-99.8" font-family="Times,serif" font-size="14.00">UpdateUserComponent</text>
</g>
<!-- UpdateUserComponent&#45;&gt;UserModule -->
<g id="edge2" class="edge">
<title>UpdateUserComponent&#45;&gt;UserModule</title>
<path fill="none" stroke="black" d="M224,-122.13C224,-142.57 224,-173 224,-173 224,-173 659.6,-173 659.6,-173"/>
<polygon fill="black" stroke="black" points="659.6,-176.5 669.6,-173 659.6,-169.5 659.6,-176.5"/>
</g>
<!-- UserComponent -->
<g id="node3" class="node">
<title>UserComponent</title>
<polygon fill="#ffffb3" stroke="black" points="131.76,-122 24.24,-122 24.24,-86 131.76,-86 131.76,-122"/>
<text text-anchor="middle" x="78" y="-99.8" font-family="Times,serif" font-size="14.00">UserComponent</text>
</g>
<!-- UserComponent&#45;&gt;UserModule -->
<g id="edge3" class="edge">
<title>UserComponent&#45;&gt;UserModule</title>
<path fill="none" stroke="black" d="M78,-122.01C78,-144.49 78,-180 78,-180 78,-180 659.85,-180 659.85,-180"/>
<polygon fill="black" stroke="black" points="659.85,-183.5 669.85,-180 659.85,-176.5 659.85,-183.5"/>
</g>
<!-- CorrecaoModule -->
<g id="node5" class="node">
<title>CorrecaoModule</title>
<polygon fill="#8dd3c7" stroke="black" points="1452.35,-122 1449.35,-126 1428.35,-126 1425.35,-122 1341.65,-122 1341.65,-86 1452.35,-86 1452.35,-122"/>
<text text-anchor="middle" x="1397" y="-99.8" font-family="Times,serif" font-size="14.00">CorrecaoModule</text>
</g>
<!-- CorrecaoModule&#45;&gt;UserModule -->
<g id="edge4" class="edge">
<title>CorrecaoModule&#45;&gt;UserModule</title>
<path fill="none" stroke="black" d="M1397,-122.01C1397,-144.49 1397,-180 1397,-180 1397,-180 766.05,-180 766.05,-180"/>
<polygon fill="black" stroke="black" points="766.05,-176.5 756.05,-180 766.05,-183.5 766.05,-176.5"/>
</g>
<!-- DisciplinaRoutingModule -->
<g id="node6" class="node">
<title>DisciplinaRoutingModule</title>
<polygon fill="#8dd3c7" stroke="black" points="1323.21,-122 1320.21,-126 1299.21,-126 1296.21,-122 1160.79,-122 1160.79,-86 1323.21,-86 1323.21,-122"/>
<text text-anchor="middle" x="1242" y="-99.8" font-family="Times,serif" font-size="14.00">DisciplinaRoutingModule</text>
</g>
<!-- DisciplinaRoutingModule&#45;&gt;UserModule -->
<g id="edge5" class="edge">
<title>DisciplinaRoutingModule&#45;&gt;UserModule</title>
<path fill="none" stroke="black" d="M1242,-122.13C1242,-142.57 1242,-173 1242,-173 1242,-173 766.29,-173 766.29,-173"/>
<polygon fill="black" stroke="black" points="766.29,-169.5 756.29,-173 766.29,-176.5 766.29,-169.5"/>
</g>
<!-- DyamicSelectModule -->
<g id="node7" class="node">
<title>DyamicSelectModule</title>
<polygon fill="#8dd3c7" stroke="black" points="1143.07,-122 1140.07,-126 1119.07,-126 1116.07,-122 1004.93,-122 1004.93,-86 1143.07,-86 1143.07,-122"/>
<text text-anchor="middle" x="1074" y="-99.8" font-family="Times,serif" font-size="14.00">DyamicSelectModule</text>
</g>
<!-- DyamicSelectModule&#45;&gt;UserModule -->
<g id="edge6" class="edge">
<title>DyamicSelectModule&#45;&gt;UserModule</title>
<path fill="none" stroke="black" d="M1074,-122.27C1074,-140.56 1074,-166 1074,-166 1074,-166 766.19,-166 766.19,-166"/>
<polygon fill="black" stroke="black" points="766.19,-162.5 756.19,-166 766.19,-169.5 766.19,-162.5"/>
</g>
<!-- DynamicTableModule -->
<g id="node8" class="node">
<title>DynamicTableModule</title>
<polygon fill="#8dd3c7" stroke="black" points="987.24,-122 984.24,-126 963.24,-126 960.24,-122 844.76,-122 844.76,-86 987.24,-86 987.24,-122"/>
<text text-anchor="middle" x="916" y="-99.8" font-family="Times,serif" font-size="14.00">DynamicTableModule</text>
</g>
<!-- DynamicTableModule&#45;&gt;UserModule -->
<g id="edge7" class="edge">
<title>DynamicTableModule&#45;&gt;UserModule</title>
<path fill="none" stroke="black" d="M916,-122.01C916,-138.05 916,-159 916,-159 916,-159 766.05,-159 766.05,-159"/>
<polygon fill="black" stroke="black" points="766.05,-155.5 756.05,-159 766.05,-162.5 766.05,-155.5"/>
</g>
<!-- ModalModule -->
<g id="node9" class="node">
<title>ModalModule</title>
<polygon fill="#8dd3c7" stroke="black" points="827.1,-122 824.1,-126 803.1,-126 800.1,-122 730.9,-122 730.9,-86 827.1,-86 827.1,-122"/>
<text text-anchor="middle" x="779" y="-99.8" font-family="Times,serif" font-size="14.00">ModalModule</text>
</g>
<!-- ModalModule&#45;&gt;UserModule -->
<g id="edge8" class="edge">
<title>ModalModule&#45;&gt;UserModule</title>
<path fill="none" stroke="black" d="M743.47,-122.11C743.47,-122.11 743.47,-140.99 743.47,-140.99"/>
<polygon fill="black" stroke="black" points="739.97,-140.99 743.47,-150.99 746.97,-140.99 739.97,-140.99"/>
</g>
<!-- UserRoutingModule -->
<g id="node10" class="node">
<title>UserRoutingModule</title>
<polygon fill="#8dd3c7" stroke="black" points="712.59,-122 709.59,-126 688.59,-126 685.59,-122 581.41,-122 581.41,-86 712.59,-86 712.59,-122"/>
<text text-anchor="middle" x="647" y="-99.8" font-family="Times,serif" font-size="14.00">UserRoutingModule</text>
</g>
<!-- UserRoutingModule&#45;&gt;UserModule -->
<g id="edge9" class="edge">
<title>UserRoutingModule&#45;&gt;UserModule</title>
<path fill="none" stroke="black" d="M691.28,-122.11C691.28,-122.11 691.28,-140.99 691.28,-140.99"/>
<polygon fill="black" stroke="black" points="687.78,-140.99 691.28,-150.99 694.78,-140.99 687.78,-140.99"/>
</g>
<!-- VideoModule -->
<g id="node11" class="node">
<title>VideoModule</title>
<polygon fill="#8dd3c7" stroke="black" points="563.76,-122 560.76,-126 539.76,-126 536.76,-122 470.24,-122 470.24,-86 563.76,-86 563.76,-122"/>
<text text-anchor="middle" x="517" y="-99.8" font-family="Times,serif" font-size="14.00">VideoModule</text>
</g>
<!-- VideoModule&#45;&gt;UserModule -->
<g id="edge10" class="edge">
<title>VideoModule&#45;&gt;UserModule</title>
<path fill="none" stroke="black" d="M517,-122.01C517,-138.05 517,-159 517,-159 517,-159 659.99,-159 659.99,-159"/>
<polygon fill="black" stroke="black" points="659.99,-162.5 669.99,-159 659.99,-155.5 659.99,-162.5"/>
</g>
</g>
</svg>
