<?xml version="1.0" encoding="UTF-8" standalone="no"?>
<!DOCTYPE svg PUBLIC "-//W3C//DTD SVG 1.1//EN"
 "http://www.w3.org/Graphics/SVG/1.1/DTD/svg11.dtd">
<!-- Generated by graphviz version 2.47.0 (20210316.0004)
 -->
<!-- Title: dependencies Pages: 1 -->
<svg width="959pt" height="211pt"
 viewBox="0.00 0.00 959.00 211.00" xmlns="http://www.w3.org/2000/svg" xmlns:xlink="http://www.w3.org/1999/xlink">
<g id="graph0" class="graph" transform="scale(1 1) rotate(0) translate(4 207)">
<title>dependencies</title>
<polygon fill="white" stroke="transparent" points="-4,4 -4,-207 955,-207 955,4 -4,4"/>
<text text-anchor="start" x="454.51" y="-42.4" font-family="Times-12" font-weight="bold" font-size="14.00">Legend</text>
<polygon fill="#ffffb3" stroke="transparent" points="241.5,-10 241.5,-30 261.5,-30 261.5,-10 241.5,-10"/>
<text text-anchor="start" x="265.13" y="-15.4" font-family="Times-12" font-size="14.00"> &#160;Declarations</text>
<polygon fill="#8dd3c7" stroke="transparent" points="354.5,-10 354.5,-30 374.5,-30 374.5,-10 354.5,-10"/>
<text text-anchor="start" x="378.23" y="-15.4" font-family="Times-12" font-size="14.00"> &#160;Module</text>
<polygon fill="#80b1d3" stroke="transparent" points="440.5,-10 440.5,-30 460.5,-30 460.5,-10 440.5,-10"/>
<text text-anchor="start" x="464.28" y="-15.4" font-family="Times-12" font-size="14.00"> &#160;Bootstrap</text>
<polygon fill="#fdb462" stroke="transparent" points="537.5,-10 537.5,-30 557.5,-30 557.5,-10 537.5,-10"/>
<text text-anchor="start" x="561.17" y="-15.4" font-family="Times-12" font-size="14.00"> &#160;Providers</text>
<polygon fill="#fb8072" stroke="transparent" points="633.5,-10 633.5,-30 653.5,-30 653.5,-10 633.5,-10"/>
<text text-anchor="start" x="657.23" y="-15.4" font-family="Times-12" font-size="14.00"> &#160;Exports</text>
<g id="clust1" class="cluster">
<title>cluster_AreaModule</title>
<polygon fill="none" stroke="black" stroke-dasharray="1,5" points="8,-70 8,-195 943,-195 943,-70 8,-70"/>
</g>
<g id="clust2" class="cluster">
<title>cluster_AreaModule_declarations</title>
<polygon fill="none" stroke="black" points="332,-78 332,-130 935,-130 935,-78 332,-78"/>
</g>
<g id="clust7" class="cluster">
<title>cluster_AreaModule_imports</title>
<polygon fill="none" stroke="black" points="16,-78 16,-130 324,-130 324,-78 16,-78"/>
</g>
<!-- AreaComponent -->
<g id="node1" class="node">
<title>AreaComponent</title>
<polygon fill="#ffffb3" stroke="black" points="927.03,-122 818.97,-122 818.97,-86 927.03,-86 927.03,-122"/>
<text text-anchor="middle" x="873" y="-99.8" font-family="Times,serif" font-size="14.00">AreaComponent</text>
</g>
<!-- AreaModule -->
<g id="node5" class="node">
<title>AreaModule</title>
<polygon fill="#8dd3c7" stroke="black" points="536.25,-187 533.25,-191 512.25,-191 509.25,-187 449.75,-187 449.75,-151 536.25,-151 536.25,-187"/>
<text text-anchor="middle" x="493" y="-164.8" font-family="Times,serif" font-size="14.00">AreaModule</text>
</g>
<!-- AreaComponent&#45;&gt;AreaModule -->
<g id="edge1" class="edge">
<title>AreaComponent&#45;&gt;AreaModule</title>
<path fill="none" stroke="black" d="M873,-122.28C873,-143.32 873,-175 873,-175 873,-175 546.59,-175 546.59,-175"/>
<polygon fill="black" stroke="black" points="546.59,-171.5 536.59,-175 546.59,-178.5 546.59,-171.5"/>
</g>
<!-- CreateAreaComponent -->
<g id="node2" class="node">
<title>CreateAreaComponent</title>
<polygon fill="#ffffb3" stroke="black" points="800.56,-122 655.44,-122 655.44,-86 800.56,-86 800.56,-122"/>
<text text-anchor="middle" x="728" y="-99.8" font-family="Times,serif" font-size="14.00">CreateAreaComponent</text>
</g>
<!-- CreateAreaComponent&#45;&gt;AreaModule -->
<g id="edge2" class="edge">
<title>CreateAreaComponent&#45;&gt;AreaModule</title>
<path fill="none" stroke="black" d="M728,-122.02C728,-139.37 728,-163 728,-163 728,-163 546.38,-163 546.38,-163"/>
<polygon fill="black" stroke="black" points="546.38,-159.5 536.38,-163 546.38,-166.5 546.38,-159.5"/>
</g>
<!-- ListAreaComponent -->
<g id="node3" class="node">
<title>ListAreaComponent</title>
<polygon fill="#ffffb3" stroke="black" points="637.31,-122 506.69,-122 506.69,-86 637.31,-86 637.31,-122"/>
<text text-anchor="middle" x="572" y="-99.8" font-family="Times,serif" font-size="14.00">ListAreaComponent</text>
</g>
<!-- ListAreaComponent&#45;&gt;AreaModule -->
<g id="edge3" class="edge">
<title>ListAreaComponent&#45;&gt;AreaModule</title>
<path fill="none" stroke="black" d="M521.61,-122.11C521.61,-122.11 521.61,-140.99 521.61,-140.99"/>
<polygon fill="black" stroke="black" points="518.11,-140.99 521.61,-150.99 525.11,-140.99 518.11,-140.99"/>
</g>
<!-- UpdateAreaComponent -->
<g id="node4" class="node">
<title>UpdateAreaComponent</title>
<polygon fill="#ffffb3" stroke="black" points="488.46,-122 339.54,-122 339.54,-86 488.46,-86 488.46,-122"/>
<text text-anchor="middle" x="414" y="-99.8" font-family="Times,serif" font-size="14.00">UpdateAreaComponent</text>
</g>
<!-- UpdateAreaComponent&#45;&gt;AreaModule -->
<g id="edge4" class="edge">
<title>UpdateAreaComponent&#45;&gt;AreaModule</title>
<path fill="none" stroke="black" d="M469.05,-122.11C469.05,-122.11 469.05,-140.99 469.05,-140.99"/>
<polygon fill="black" stroke="black" points="465.55,-140.99 469.05,-150.99 472.55,-140.99 465.55,-140.99"/>
</g>
<!-- AreaRoutingModule -->
<g id="node6" class="node">
<title>AreaRoutingModule</title>
<polygon fill="#8dd3c7" stroke="black" points="315.86,-122 312.86,-126 291.86,-126 288.86,-122 184.14,-122 184.14,-86 315.86,-86 315.86,-122"/>
<text text-anchor="middle" x="250" y="-99.8" font-family="Times,serif" font-size="14.00">AreaRoutingModule</text>
</g>
<!-- AreaRoutingModule&#45;&gt;AreaModule -->
<g id="edge5" class="edge">
<title>AreaRoutingModule&#45;&gt;AreaModule</title>
<path fill="none" stroke="black" d="M250,-122.02C250,-139.37 250,-163 250,-163 250,-163 439.56,-163 439.56,-163"/>
<polygon fill="black" stroke="black" points="439.56,-166.5 449.56,-163 439.56,-159.5 439.56,-166.5"/>
</g>
<!-- DynamicTableModule -->
<g id="node7" class="node">
<title>DynamicTableModule</title>
<polygon fill="#8dd3c7" stroke="black" points="166.24,-122 163.24,-126 142.24,-126 139.24,-122 23.76,-122 23.76,-86 166.24,-86 166.24,-122"/>
<text text-anchor="middle" x="95" y="-99.8" font-family="Times,serif" font-size="14.00">DynamicTableModule</text>
</g>
<!-- DynamicTableModule&#45;&gt;AreaModule -->
<g id="edge6" class="edge">
<title>DynamicTableModule&#45;&gt;AreaModule</title>
<path fill="none" stroke="black" d="M95,-122.28C95,-143.32 95,-175 95,-175 95,-175 439.65,-175 439.65,-175"/>
<polygon fill="black" stroke="black" points="439.65,-178.5 449.65,-175 439.65,-171.5 439.65,-178.5"/>
</g>
</g>
</svg>
