<?xml version="1.0" encoding="UTF-8" standalone="no"?>
<!DOCTYPE svg PUBLIC "-//W3C//DTD SVG 1.1//EN"
 "http://www.w3.org/Graphics/SVG/1.1/DTD/svg11.dtd">
<!-- Generated by graphviz version 2.47.0 (20210316.0004)
 -->
<!-- Title: dependencies Pages: 1 -->
<svg width="1120pt" height="396pt"
 viewBox="0.00 0.00 1120.00 395.59" xmlns="http://www.w3.org/2000/svg" xmlns:xlink="http://www.w3.org/1999/xlink">
<g id="graph0" class="graph" transform="scale(1 1) rotate(0) translate(4 391.59)">
<title>dependencies</title>
<polygon fill="white" stroke="transparent" points="-4,4 -4,-391.59 1116,-391.59 1116,4 -4,4"/>
<text text-anchor="start" x="535.01" y="-42.4" font-family="Times-12" font-weight="bold" font-size="14.00">Legend</text>
<polygon fill="#ffffb3" stroke="transparent" points="322,-10 322,-30 342,-30 342,-10 322,-10"/>
<text text-anchor="start" x="345.63" y="-15.4" font-family="Times-12" font-size="14.00"> &#160;Declarations</text>
<polygon fill="#8dd3c7" stroke="transparent" points="435,-10 435,-30 455,-30 455,-10 435,-10"/>
<text text-anchor="start" x="458.73" y="-15.4" font-family="Times-12" font-size="14.00"> &#160;Module</text>
<polygon fill="#80b1d3" stroke="transparent" points="521,-10 521,-30 541,-30 541,-10 521,-10"/>
<text text-anchor="start" x="544.78" y="-15.4" font-family="Times-12" font-size="14.00"> &#160;Bootstrap</text>
<polygon fill="#fdb462" stroke="transparent" points="618,-10 618,-30 638,-30 638,-10 618,-10"/>
<text text-anchor="start" x="641.67" y="-15.4" font-family="Times-12" font-size="14.00"> &#160;Providers</text>
<polygon fill="#fb8072" stroke="transparent" points="714,-10 714,-30 734,-30 734,-10 714,-10"/>
<text text-anchor="start" x="737.73" y="-15.4" font-family="Times-12" font-size="14.00"> &#160;Exports</text>
<g id="clust1" class="cluster">
<title>cluster_ExternalPdfInputModule</title>
<polygon fill="none" stroke="black" stroke-dasharray="1,5" points="8,-70 8,-379.59 1104,-379.59 1104,-70 8,-70"/>
</g>
<g id="clust3" class="cluster">
<title>cluster_ExternalPdfInputModule_ExternalPdfInputComponent_providers</title>
<polygon fill="none" stroke="black" points="164,-78 164,-241.59 1096,-241.59 1096,-78 164,-78"/>
</g>
<g id="clust5" class="cluster">
<title>cluster_ExternalPdfInputModule_exports</title>
<polygon fill="none" stroke="black" points="89,-319.59 89,-371.59 287,-371.59 287,-319.59 89,-319.59"/>
</g>
<g id="clust4" class="cluster">
<title>cluster_ExternalPdfInputModule_imports</title>
<polygon fill="none" stroke="black" points="16,-189.59 16,-241.59 156,-241.59 156,-189.59 16,-189.59"/>
</g>
<!-- ExternalPdfInputComponent -->
<g id="node1" class="node">
<title>ExternalPdfInputComponent</title>
<polygon fill="#ffffb3" stroke="black" points="533.75,-233.59 356.25,-233.59 356.25,-197.59 533.75,-197.59 533.75,-233.59"/>
<text text-anchor="middle" x="445" y="-211.39" font-family="Times,serif" font-size="14.00">ExternalPdfInputComponent</text>
</g>
<!-- ExternalPdfInputModule -->
<g id="node2" class="node">
<title>ExternalPdfInputModule</title>
<polygon fill="#8dd3c7" stroke="black" points="265.97,-298.59 262.97,-302.59 241.97,-302.59 238.97,-298.59 110.03,-298.59 110.03,-262.59 265.97,-262.59 265.97,-298.59"/>
<text text-anchor="middle" x="188" y="-276.39" font-family="Times,serif" font-size="14.00">ExternalPdfInputModule</text>
</g>
<!-- ExternalPdfInputComponent&#45;&gt;ExternalPdfInputModule -->
<g id="edge1" class="edge">
<title>ExternalPdfInputComponent&#45;&gt;ExternalPdfInputModule</title>
<path fill="none" stroke="black" d="M356.06,-215.59C292.86,-215.59 219.15,-215.59 219.15,-215.59 219.15,-215.59 219.15,-252.48 219.15,-252.48"/>
<polygon fill="black" stroke="black" points="215.65,-252.48 219.15,-262.48 222.65,-252.48 215.65,-252.48"/>
</g>
<!-- ExternalPdfInputComponent  -->
<g id="node5" class="node">
<title>ExternalPdfInputComponent </title>
<polygon fill="#fb8072" stroke="black" points="278.75,-363.59 97.25,-363.59 97.25,-327.59 278.75,-327.59 278.75,-363.59"/>
<text text-anchor="middle" x="188" y="-341.39" font-family="Times,serif" font-size="14.00">ExternalPdfInputComponent </text>
</g>
<!-- ExternalPdfInputModule&#45;&gt;ExternalPdfInputComponent  -->
<g id="edge4" class="edge">
<title>ExternalPdfInputModule&#45;&gt;ExternalPdfInputComponent </title>
<path fill="none" stroke="black" stroke-dasharray="5,2" d="M188,-298.7C188,-298.7 188,-317.58 188,-317.58"/>
<polygon fill="black" stroke="black" points="184.5,-317.58 188,-327.58 191.5,-317.58 184.5,-317.58"/>
</g>
<!-- {
 &#160;&#160;&#160;provide: NG_VALUE_ACCESSOR, useExisting: forwardRef(() =&gt; ExternalPdfInputComponent), multi: true
} -->
<g id="node3" class="node">
<title>{
 &#160;&#160;&#160;provide: NG_VALUE_ACCESSOR, useExisting: forwardRef(() =&gt; ExternalPdfInputComponent), multi: true
}</title>
<ellipse fill="#fdb462" stroke="black" cx="630" cy="-127.3" rx="457.88" ry="41.09"/>
<text text-anchor="middle" x="630" y="-139.9" font-family="Times,serif" font-size="14.00">{</text>
<text text-anchor="middle" x="630" y="-123.1" font-family="Times,serif" font-size="14.00"> &#160;&#160;&#160;provide: NG_VALUE_ACCESSOR, useExisting: forwardRef(() =&gt; ExternalPdfInputComponent), multi: true</text>
<text text-anchor="middle" x="630" y="-106.3" font-family="Times,serif" font-size="14.00">}</text>
</g>
<!-- {
 &#160;&#160;&#160;provide: NG_VALUE_ACCESSOR, useExisting: forwardRef(() =&gt; ExternalPdfInputComponent), multi: true
}&#45;&gt;ExternalPdfInputComponent -->
<g id="edge2" class="edge">
<title>{
 &#160;&#160;&#160;provide: NG_VALUE_ACCESSOR, useExisting: forwardRef(() =&gt; ExternalPdfInputComponent), multi: true
}&#45;&gt;ExternalPdfInputComponent</title>
<path fill="none" stroke="black" d="M445,-165.25C445,-165.25 445,-187.56 445,-187.56"/>
<polygon fill="black" stroke="black" points="441.5,-187.56 445,-197.56 448.5,-187.56 441.5,-187.56"/>
</g>
<!-- PdfPreviewModule -->
<g id="node4" class="node">
<title>PdfPreviewModule</title>
<polygon fill="#8dd3c7" stroke="black" points="148.36,-233.59 145.36,-237.59 124.36,-237.59 121.36,-233.59 23.64,-233.59 23.64,-197.59 148.36,-197.59 148.36,-233.59"/>
<text text-anchor="middle" x="86" y="-211.39" font-family="Times,serif" font-size="14.00">PdfPreviewModule</text>
</g>
<!-- PdfPreviewModule&#45;&gt;ExternalPdfInputModule -->
<g id="edge3" class="edge">
<title>PdfPreviewModule&#45;&gt;ExternalPdfInputModule</title>
<path fill="none" stroke="black" d="M129.22,-233.7C129.22,-233.7 129.22,-252.58 129.22,-252.58"/>
<polygon fill="black" stroke="black" points="125.72,-252.58 129.22,-262.58 132.72,-252.58 125.72,-252.58"/>
</g>
</g>
</svg>
