<?xml version="1.0" encoding="UTF-8" standalone="no"?>
<!DOCTYPE svg PUBLIC "-//W3C//DTD SVG 1.1//EN"
 "http://www.w3.org/Graphics/SVG/1.1/DTD/svg11.dtd">
<!-- Generated by graphviz version 2.47.0 (20210316.0004)
 -->
<!-- Title: dependencies Pages: 1 -->
<svg width="1003pt" height="211pt"
 viewBox="0.00 0.00 1003.00 211.00" xmlns="http://www.w3.org/2000/svg" xmlns:xlink="http://www.w3.org/1999/xlink">
<g id="graph0" class="graph" transform="scale(1 1) rotate(0) translate(4 207)">
<title>dependencies</title>
<polygon fill="white" stroke="transparent" points="-4,4 -4,-207 999,-207 999,4 -4,4"/>
<text text-anchor="start" x="476.51" y="-42.4" font-family="Times-12" font-weight="bold" font-size="14.00">Legend</text>
<polygon fill="#ffffb3" stroke="transparent" points="263.5,-10 263.5,-30 283.5,-30 283.5,-10 263.5,-10"/>
<text text-anchor="start" x="287.13" y="-15.4" font-family="Times-12" font-size="14.00"> &#160;Declarations</text>
<polygon fill="#8dd3c7" stroke="transparent" points="376.5,-10 376.5,-30 396.5,-30 396.5,-10 376.5,-10"/>
<text text-anchor="start" x="400.23" y="-15.4" font-family="Times-12" font-size="14.00"> &#160;Module</text>
<polygon fill="#80b1d3" stroke="transparent" points="462.5,-10 462.5,-30 482.5,-30 482.5,-10 462.5,-10"/>
<text text-anchor="start" x="486.28" y="-15.4" font-family="Times-12" font-size="14.00"> &#160;Bootstrap</text>
<polygon fill="#fdb462" stroke="transparent" points="559.5,-10 559.5,-30 579.5,-30 579.5,-10 559.5,-10"/>
<text text-anchor="start" x="583.17" y="-15.4" font-family="Times-12" font-size="14.00"> &#160;Providers</text>
<polygon fill="#fb8072" stroke="transparent" points="655.5,-10 655.5,-30 675.5,-30 675.5,-10 655.5,-10"/>
<text text-anchor="start" x="679.23" y="-15.4" font-family="Times-12" font-size="14.00"> &#160;Exports</text>
<g id="clust1" class="cluster">
<title>cluster_BancaModule</title>
<polygon fill="none" stroke="black" stroke-dasharray="1,5" points="8,-70 8,-195 987,-195 987,-70 8,-70"/>
</g>
<g id="clust2" class="cluster">
<title>cluster_BancaModule_declarations</title>
<polygon fill="none" stroke="black" points="346,-78 346,-130 979,-130 979,-78 346,-78"/>
</g>
<g id="clust7" class="cluster">
<title>cluster_BancaModule_imports</title>
<polygon fill="none" stroke="black" points="16,-78 16,-130 338,-130 338,-78 16,-78"/>
</g>
<!-- BancaComponent -->
<g id="node1" class="node">
<title>BancaComponent</title>
<polygon fill="#ffffb3" stroke="black" points="971.31,-122 854.69,-122 854.69,-86 971.31,-86 971.31,-122"/>
<text text-anchor="middle" x="913" y="-99.8" font-family="Times,serif" font-size="14.00">BancaComponent</text>
</g>
<!-- BancaModule -->
<g id="node5" class="node">
<title>BancaModule</title>
<polygon fill="#8dd3c7" stroke="black" points="561.03,-187 558.03,-191 537.03,-191 534.03,-187 466.97,-187 466.97,-151 561.03,-151 561.03,-187"/>
<text text-anchor="middle" x="514" y="-164.8" font-family="Times,serif" font-size="14.00">BancaModule</text>
</g>
<!-- BancaComponent&#45;&gt;BancaModule -->
<g id="edge1" class="edge">
<title>BancaComponent&#45;&gt;BancaModule</title>
<path fill="none" stroke="black" d="M913,-122.28C913,-143.32 913,-175 913,-175 913,-175 571.34,-175 571.34,-175"/>
<polygon fill="black" stroke="black" points="571.34,-171.5 561.34,-175 571.34,-178.5 571.34,-171.5"/>
</g>
<!-- CreateBancaComponent -->
<g id="node2" class="node">
<title>CreateBancaComponent</title>
<polygon fill="#ffffb3" stroke="black" points="836.34,-122 683.66,-122 683.66,-86 836.34,-86 836.34,-122"/>
<text text-anchor="middle" x="760" y="-99.8" font-family="Times,serif" font-size="14.00">CreateBancaComponent</text>
</g>
<!-- CreateBancaComponent&#45;&gt;BancaModule -->
<g id="edge2" class="edge">
<title>CreateBancaComponent&#45;&gt;BancaModule</title>
<path fill="none" stroke="black" d="M760,-122.02C760,-139.37 760,-163 760,-163 760,-163 571.14,-163 571.14,-163"/>
<polygon fill="black" stroke="black" points="571.14,-159.5 561.14,-163 571.14,-166.5 571.14,-159.5"/>
</g>
<!-- ListBancaComponent -->
<g id="node3" class="node">
<title>ListBancaComponent</title>
<polygon fill="#ffffb3" stroke="black" points="666.09,-122 527.91,-122 527.91,-86 666.09,-86 666.09,-122"/>
<text text-anchor="middle" x="597" y="-99.8" font-family="Times,serif" font-size="14.00">ListBancaComponent</text>
</g>
<!-- ListBancaComponent&#45;&gt;BancaModule -->
<g id="edge3" class="edge">
<title>ListBancaComponent&#45;&gt;BancaModule</title>
<path fill="none" stroke="black" d="M544.61,-122.11C544.61,-122.11 544.61,-140.99 544.61,-140.99"/>
<polygon fill="black" stroke="black" points="541.11,-140.99 544.61,-150.99 548.11,-140.99 541.11,-140.99"/>
</g>
<!-- UpdateBancaComponent -->
<g id="node4" class="node">
<title>UpdateBancaComponent</title>
<polygon fill="#ffffb3" stroke="black" points="510.24,-122 353.76,-122 353.76,-86 510.24,-86 510.24,-122"/>
<text text-anchor="middle" x="432" y="-99.8" font-family="Times,serif" font-size="14.00">UpdateBancaComponent</text>
</g>
<!-- UpdateBancaComponent&#45;&gt;BancaModule -->
<g id="edge4" class="edge">
<title>UpdateBancaComponent&#45;&gt;BancaModule</title>
<path fill="none" stroke="black" d="M488.55,-122.11C488.55,-122.11 488.55,-140.99 488.55,-140.99"/>
<polygon fill="black" stroke="black" points="485.05,-140.99 488.55,-150.99 492.05,-140.99 485.05,-140.99"/>
</g>
<!-- BancasRoutingModule -->
<g id="node6" class="node">
<title>BancasRoutingModule</title>
<polygon fill="#8dd3c7" stroke="black" points="329.59,-122 326.59,-126 305.59,-126 302.59,-122 184.41,-122 184.41,-86 329.59,-86 329.59,-122"/>
<text text-anchor="middle" x="257" y="-99.8" font-family="Times,serif" font-size="14.00">BancasRoutingModule</text>
</g>
<!-- BancasRoutingModule&#45;&gt;BancaModule -->
<g id="edge5" class="edge">
<title>BancasRoutingModule&#45;&gt;BancaModule</title>
<path fill="none" stroke="black" d="M257,-122.02C257,-139.37 257,-163 257,-163 257,-163 456.86,-163 456.86,-163"/>
<polygon fill="black" stroke="black" points="456.86,-166.5 466.86,-163 456.86,-159.5 456.86,-166.5"/>
</g>
<!-- DynamicTableModule -->
<g id="node7" class="node">
<title>DynamicTableModule</title>
<polygon fill="#8dd3c7" stroke="black" points="166.24,-122 163.24,-126 142.24,-126 139.24,-122 23.76,-122 23.76,-86 166.24,-86 166.24,-122"/>
<text text-anchor="middle" x="95" y="-99.8" font-family="Times,serif" font-size="14.00">DynamicTableModule</text>
</g>
<!-- DynamicTableModule&#45;&gt;BancaModule -->
<g id="edge6" class="edge">
<title>DynamicTableModule&#45;&gt;BancaModule</title>
<path fill="none" stroke="black" d="M95,-122.28C95,-143.32 95,-175 95,-175 95,-175 456.75,-175 456.75,-175"/>
<polygon fill="black" stroke="black" points="456.75,-178.5 466.75,-175 456.75,-171.5 456.75,-178.5"/>
</g>
</g>
</svg>
