<?xml version="1.0" encoding="UTF-8" standalone="no"?>
<!DOCTYPE svg PUBLIC "-//W3C//DTD SVG 1.1//EN"
 "http://www.w3.org/Graphics/SVG/1.1/DTD/svg11.dtd">
<!-- Generated by graphviz version 2.47.0 (20210316.0004)
 -->
<!-- Title: dependencies Pages: 1 -->
<svg width="628pt" height="211pt"
 viewBox="0.00 0.00 628.00 211.00" xmlns="http://www.w3.org/2000/svg" xmlns:xlink="http://www.w3.org/1999/xlink">
<g id="graph0" class="graph" transform="scale(1 1) rotate(0) translate(4 207)">
<title>dependencies</title>
<polygon fill="white" stroke="transparent" points="-4,4 -4,-207 624,-207 624,4 -4,4"/>
<text text-anchor="start" x="289.01" y="-42.4" font-family="Times-12" font-weight="bold" font-size="14.00">Legend</text>
<polygon fill="#ffffb3" stroke="transparent" points="76,-10 76,-30 96,-30 96,-10 76,-10"/>
<text text-anchor="start" x="99.63" y="-15.4" font-family="Times-12" font-size="14.00"> &#160;Declarations</text>
<polygon fill="#8dd3c7" stroke="transparent" points="189,-10 189,-30 209,-30 209,-10 189,-10"/>
<text text-anchor="start" x="212.73" y="-15.4" font-family="Times-12" font-size="14.00"> &#160;Module</text>
<polygon fill="#80b1d3" stroke="transparent" points="275,-10 275,-30 295,-30 295,-10 275,-10"/>
<text text-anchor="start" x="298.78" y="-15.4" font-family="Times-12" font-size="14.00"> &#160;Bootstrap</text>
<polygon fill="#fdb462" stroke="transparent" points="372,-10 372,-30 392,-30 392,-10 372,-10"/>
<text text-anchor="start" x="395.67" y="-15.4" font-family="Times-12" font-size="14.00"> &#160;Providers</text>
<polygon fill="#fb8072" stroke="transparent" points="468,-10 468,-30 488,-30 488,-10 468,-10"/>
<text text-anchor="start" x="491.73" y="-15.4" font-family="Times-12" font-size="14.00"> &#160;Exports</text>
<g id="clust1" class="cluster">
<title>cluster_AdminLayoutModule</title>
<polygon fill="none" stroke="black" stroke-dasharray="1,5" points="8,-70 8,-195 612,-195 612,-70 8,-70"/>
</g>
<g id="clust2" class="cluster">
<title>cluster_AdminLayoutModule_declarations</title>
<polygon fill="none" stroke="black" points="16,-78 16,-130 604,-130 604,-78 16,-78"/>
</g>
<!-- DashboardComponent -->
<g id="node1" class="node">
<title>DashboardComponent</title>
<polygon fill="#ffffb3" stroke="black" points="595.97,-122 454.03,-122 454.03,-86 595.97,-86 595.97,-122"/>
<text text-anchor="middle" x="525" y="-99.8" font-family="Times,serif" font-size="14.00">DashboardComponent</text>
</g>
<!-- AdminLayoutModule -->
<g id="node5" class="node">
<title>AdminLayoutModule</title>
<polygon fill="#8dd3c7" stroke="black" points="382.1,-187 379.1,-191 358.1,-191 355.1,-187 243.9,-187 243.9,-151 382.1,-151 382.1,-187"/>
<text text-anchor="middle" x="313" y="-164.8" font-family="Times,serif" font-size="14.00">AdminLayoutModule</text>
</g>
<!-- DashboardComponent&#45;&gt;AdminLayoutModule -->
<g id="edge1" class="edge">
<title>DashboardComponent&#45;&gt;AdminLayoutModule</title>
<path fill="none" stroke="black" d="M525,-122.11C525,-141.34 525,-169 525,-169 525,-169 392.12,-169 392.12,-169"/>
<polygon fill="black" stroke="black" points="392.12,-165.5 382.12,-169 392.12,-172.5 392.12,-165.5"/>
</g>
<!-- IconsComponent -->
<g id="node2" class="node">
<title>IconsComponent</title>
<polygon fill="#ffffb3" stroke="black" points="435.65,-122 324.35,-122 324.35,-86 435.65,-86 435.65,-122"/>
<text text-anchor="middle" x="380" y="-99.8" font-family="Times,serif" font-size="14.00">IconsComponent</text>
</g>
<!-- IconsComponent&#45;&gt;AdminLayoutModule -->
<g id="edge2" class="edge">
<title>IconsComponent&#45;&gt;AdminLayoutModule</title>
<path fill="none" stroke="black" d="M353.11,-122.11C353.11,-122.11 353.11,-140.99 353.11,-140.99"/>
<polygon fill="black" stroke="black" points="349.61,-140.99 353.11,-150.99 356.61,-140.99 349.61,-140.99"/>
</g>
<!-- TablesComponent -->
<g id="node3" class="node">
<title>TablesComponent</title>
<polygon fill="#ffffb3" stroke="black" points="306.15,-122 187.85,-122 187.85,-86 306.15,-86 306.15,-122"/>
<text text-anchor="middle" x="247" y="-99.8" font-family="Times,serif" font-size="14.00">TablesComponent</text>
</g>
<!-- TablesComponent&#45;&gt;AdminLayoutModule -->
<g id="edge3" class="edge">
<title>TablesComponent&#45;&gt;AdminLayoutModule</title>
<path fill="none" stroke="black" d="M275.14,-122.11C275.14,-122.11 275.14,-140.99 275.14,-140.99"/>
<polygon fill="black" stroke="black" points="271.64,-140.99 275.14,-150.99 278.64,-140.99 271.64,-140.99"/>
</g>
<!-- UserProfileComponent -->
<g id="node4" class="node">
<title>UserProfileComponent</title>
<polygon fill="#ffffb3" stroke="black" points="169.86,-122 24.14,-122 24.14,-86 169.86,-86 169.86,-122"/>
<text text-anchor="middle" x="97" y="-99.8" font-family="Times,serif" font-size="14.00">UserProfileComponent</text>
</g>
<!-- UserProfileComponent&#45;&gt;AdminLayoutModule -->
<g id="edge4" class="edge">
<title>UserProfileComponent&#45;&gt;AdminLayoutModule</title>
<path fill="none" stroke="black" d="M97,-122.11C97,-141.34 97,-169 97,-169 97,-169 233.76,-169 233.76,-169"/>
<polygon fill="black" stroke="black" points="233.77,-172.5 243.76,-169 233.76,-165.5 233.77,-172.5"/>
</g>
</g>
</svg>
