<?xml version="1.0" encoding="UTF-8" standalone="no"?>
<!DOCTYPE svg PUBLIC "-//W3C//DTD SVG 1.1//EN"
 "http://www.w3.org/Graphics/SVG/1.1/DTD/svg11.dtd">
<!-- Generated by graphviz version 2.47.0 (20210316.0004)
 -->
<!-- Title: dependencies Pages: 1 -->
<svg width="736pt" height="284pt"
 viewBox="0.00 0.00 736.00 284.00" xmlns="http://www.w3.org/2000/svg" xmlns:xlink="http://www.w3.org/1999/xlink">
<g id="graph0" class="graph" transform="scale(1 1) rotate(0) translate(4 280)">
<title>dependencies</title>
<polygon fill="white" stroke="transparent" points="-4,4 -4,-280 732,-280 732,4 -4,4"/>
<text text-anchor="start" x="343.01" y="-42.4" font-family="Times-12" font-weight="bold" font-size="14.00">Legend</text>
<polygon fill="#ffffb3" stroke="transparent" points="130,-10 130,-30 150,-30 150,-10 130,-10"/>
<text text-anchor="start" x="153.63" y="-15.4" font-family="Times-12" font-size="14.00"> &#160;Declarations</text>
<polygon fill="#8dd3c7" stroke="transparent" points="243,-10 243,-30 263,-30 263,-10 243,-10"/>
<text text-anchor="start" x="266.73" y="-15.4" font-family="Times-12" font-size="14.00"> &#160;Module</text>
<polygon fill="#80b1d3" stroke="transparent" points="329,-10 329,-30 349,-30 349,-10 329,-10"/>
<text text-anchor="start" x="352.78" y="-15.4" font-family="Times-12" font-size="14.00"> &#160;Bootstrap</text>
<polygon fill="#fdb462" stroke="transparent" points="426,-10 426,-30 446,-30 446,-10 426,-10"/>
<text text-anchor="start" x="449.67" y="-15.4" font-family="Times-12" font-size="14.00"> &#160;Providers</text>
<polygon fill="#fb8072" stroke="transparent" points="522,-10 522,-30 542,-30 542,-10 522,-10"/>
<text text-anchor="start" x="545.73" y="-15.4" font-family="Times-12" font-size="14.00"> &#160;Exports</text>
<g id="clust1" class="cluster">
<title>cluster_DynamicVideoListModule</title>
<polygon fill="none" stroke="black" stroke-dasharray="1,5" points="8,-70 8,-268 720,-268 720,-70 8,-70"/>
</g>
<g id="clust4" class="cluster">
<title>cluster_DynamicVideoListModule_imports</title>
<polygon fill="none" stroke="black" points="228,-78 228,-130 712,-130 712,-78 228,-78"/>
</g>
<g id="clust2" class="cluster">
<title>cluster_DynamicVideoListModule_declarations</title>
<polygon fill="none" stroke="black" points="16,-78 16,-130 220,-130 220,-78 16,-78"/>
</g>
<g id="clust5" class="cluster">
<title>cluster_DynamicVideoListModule_exports</title>
<polygon fill="none" stroke="black" points="279,-208 279,-260 487,-260 487,-208 279,-208"/>
</g>
<!-- DynamicVideoListComponent -->
<g id="node1" class="node">
<title>DynamicVideoListComponent</title>
<polygon fill="#ffffb3" stroke="black" points="212.14,-122 23.86,-122 23.86,-86 212.14,-86 212.14,-122"/>
<text text-anchor="middle" x="118" y="-99.8" font-family="Times,serif" font-size="14.00">DynamicVideoListComponent</text>
</g>
<!-- DynamicVideoListModule -->
<g id="node2" class="node">
<title>DynamicVideoListModule</title>
<polygon fill="#8dd3c7" stroke="black" points="466.36,-187 463.36,-191 442.36,-191 439.36,-187 299.64,-187 299.64,-151 466.36,-151 466.36,-187"/>
<text text-anchor="middle" x="383" y="-164.8" font-family="Times,serif" font-size="14.00">DynamicVideoListModule</text>
</g>
<!-- DynamicVideoListComponent&#45;&gt;DynamicVideoListModule -->
<g id="edge1" class="edge">
<title>DynamicVideoListComponent&#45;&gt;DynamicVideoListModule</title>
<path fill="none" stroke="black" d="M118,-122.11C118,-141.34 118,-169 118,-169 118,-169 289.52,-169 289.52,-169"/>
<polygon fill="black" stroke="black" points="289.52,-172.5 299.52,-169 289.52,-165.5 289.52,-172.5"/>
</g>
<!-- DynamicVideoListComponent  -->
<g id="node6" class="node">
<title>DynamicVideoListComponent </title>
<polygon fill="#fb8072" stroke="black" points="479.14,-252 286.86,-252 286.86,-216 479.14,-216 479.14,-252"/>
<text text-anchor="middle" x="383" y="-229.8" font-family="Times,serif" font-size="14.00">DynamicVideoListComponent </text>
</g>
<!-- DynamicVideoListModule&#45;&gt;DynamicVideoListComponent  -->
<g id="edge5" class="edge">
<title>DynamicVideoListModule&#45;&gt;DynamicVideoListComponent </title>
<path fill="none" stroke="black" stroke-dasharray="5,2" d="M383,-187.11C383,-187.11 383,-205.99 383,-205.99"/>
<polygon fill="black" stroke="black" points="379.5,-205.99 383,-215.99 386.5,-205.99 379.5,-205.99"/>
</g>
<!-- DyamicSelectModule -->
<g id="node3" class="node">
<title>DyamicSelectModule</title>
<polygon fill="#8dd3c7" stroke="black" points="704.07,-122 701.07,-126 680.07,-126 677.07,-122 565.93,-122 565.93,-86 704.07,-86 704.07,-122"/>
<text text-anchor="middle" x="635" y="-99.8" font-family="Times,serif" font-size="14.00">DyamicSelectModule</text>
</g>
<!-- DyamicSelectModule&#45;&gt;DynamicVideoListModule -->
<g id="edge2" class="edge">
<title>DyamicSelectModule&#45;&gt;DynamicVideoListModule</title>
<path fill="none" stroke="black" d="M635,-122.11C635,-141.34 635,-169 635,-169 635,-169 476.56,-169 476.56,-169"/>
<polygon fill="black" stroke="black" points="476.56,-165.5 466.56,-169 476.56,-172.5 476.56,-165.5"/>
</g>
<!-- DynamicPaginatorModule -->
<g id="node4" class="node">
<title>DynamicPaginatorModule</title>
<polygon fill="#8dd3c7" stroke="black" points="548.02,-122 545.02,-126 524.02,-126 521.02,-122 383.98,-122 383.98,-86 548.02,-86 548.02,-122"/>
<text text-anchor="middle" x="466" y="-99.8" font-family="Times,serif" font-size="14.00">DynamicPaginatorModule</text>
</g>
<!-- DynamicPaginatorModule&#45;&gt;DynamicVideoListModule -->
<g id="edge3" class="edge">
<title>DynamicPaginatorModule&#45;&gt;DynamicVideoListModule</title>
<path fill="none" stroke="black" d="M425.08,-122.11C425.08,-122.11 425.08,-140.99 425.08,-140.99"/>
<polygon fill="black" stroke="black" points="421.58,-140.99 425.08,-150.99 428.58,-140.99 421.58,-140.99"/>
</g>
<!-- SearchTableModule -->
<g id="node5" class="node">
<title>SearchTableModule</title>
<polygon fill="#8dd3c7" stroke="black" points="365.51,-122 362.51,-126 341.51,-126 338.51,-122 236.49,-122 236.49,-86 365.51,-86 365.51,-122"/>
<text text-anchor="middle" x="301" y="-99.8" font-family="Times,serif" font-size="14.00">SearchTableModule</text>
</g>
<!-- SearchTableModule&#45;&gt;DynamicVideoListModule -->
<g id="edge4" class="edge">
<title>SearchTableModule&#45;&gt;DynamicVideoListModule</title>
<path fill="none" stroke="black" d="M332.66,-122.11C332.66,-122.11 332.66,-140.99 332.66,-140.99"/>
<polygon fill="black" stroke="black" points="329.16,-140.99 332.66,-150.99 336.16,-140.99 329.16,-140.99"/>
</g>
</g>
</svg>
