<?xml version="1.0" encoding="UTF-8" standalone="no"?>
<!DOCTYPE svg PUBLIC "-//W3C//DTD SVG 1.1//EN"
 "http://www.w3.org/Graphics/SVG/1.1/DTD/svg11.dtd">
<!-- Generated by graphviz version 2.47.0 (20210316.0004)
 -->
<!-- Title: dependencies Pages: 1 -->
<svg width="1479pt" height="284pt"
 viewBox="0.00 0.00 1479.00 284.00" xmlns="http://www.w3.org/2000/svg" xmlns:xlink="http://www.w3.org/1999/xlink">
<g id="graph0" class="graph" transform="scale(1 1) rotate(0) translate(4 280)">
<title>dependencies</title>
<polygon fill="white" stroke="transparent" points="-4,4 -4,-280 1475,-280 1475,4 -4,4"/>
<text text-anchor="start" x="714.51" y="-42.4" font-family="Times-12" font-weight="bold" font-size="14.00">Legend</text>
<polygon fill="#ffffb3" stroke="transparent" points="501.5,-10 501.5,-30 521.5,-30 521.5,-10 501.5,-10"/>
<text text-anchor="start" x="525.13" y="-15.4" font-family="Times-12" font-size="14.00"> &#160;Declarations</text>
<polygon fill="#8dd3c7" stroke="transparent" points="614.5,-10 614.5,-30 634.5,-30 634.5,-10 614.5,-10"/>
<text text-anchor="start" x="638.23" y="-15.4" font-family="Times-12" font-size="14.00"> &#160;Module</text>
<polygon fill="#80b1d3" stroke="transparent" points="700.5,-10 700.5,-30 720.5,-30 720.5,-10 700.5,-10"/>
<text text-anchor="start" x="724.28" y="-15.4" font-family="Times-12" font-size="14.00"> &#160;Bootstrap</text>
<polygon fill="#fdb462" stroke="transparent" points="797.5,-10 797.5,-30 817.5,-30 817.5,-10 797.5,-10"/>
<text text-anchor="start" x="821.17" y="-15.4" font-family="Times-12" font-size="14.00"> &#160;Providers</text>
<polygon fill="#fb8072" stroke="transparent" points="893.5,-10 893.5,-30 913.5,-30 913.5,-10 893.5,-10"/>
<text text-anchor="start" x="917.23" y="-15.4" font-family="Times-12" font-size="14.00"> &#160;Exports</text>
<g id="clust1" class="cluster">
<title>cluster_AlternativaModule</title>
<polygon fill="none" stroke="black" stroke-dasharray="1,5" points="8,-70 8,-268 1463,-268 1463,-70 8,-70"/>
</g>
<g id="clust8" class="cluster">
<title>cluster_AlternativaModule_exports</title>
<polygon fill="none" stroke="black" points="411,-208 411,-260 1005,-260 1005,-208 411,-208"/>
</g>
<g id="clust2" class="cluster">
<title>cluster_AlternativaModule_declarations</title>
<polygon fill="none" stroke="black" points="710,-78 710,-130 1455,-130 1455,-78 710,-78"/>
</g>
<g id="clust7" class="cluster">
<title>cluster_AlternativaModule_imports</title>
<polygon fill="none" stroke="black" points="16,-78 16,-130 702,-130 702,-78 16,-78"/>
</g>
<!-- AlternativaComponent -->
<g id="node1" class="node">
<title>AlternativaComponent</title>
<polygon fill="#ffffb3" stroke="black" points="1447.31,-122 1302.69,-122 1302.69,-86 1447.31,-86 1447.31,-122"/>
<text text-anchor="middle" x="1375" y="-99.8" font-family="Times,serif" font-size="14.00">AlternativaComponent</text>
</g>
<!-- AlternativaModule -->
<g id="node5" class="node">
<title>AlternativaModule</title>
<polygon fill="#8dd3c7" stroke="black" points="771.02,-187 768.02,-191 747.02,-191 744.02,-187 648.98,-187 648.98,-151 771.02,-151 771.02,-187"/>
<text text-anchor="middle" x="710" y="-164.8" font-family="Times,serif" font-size="14.00">AlternativaModule</text>
</g>
<!-- AlternativaComponent&#45;&gt;AlternativaModule -->
<g id="edge1" class="edge">
<title>AlternativaComponent&#45;&gt;AlternativaModule</title>
<path fill="none" stroke="black" d="M1375,-122.13C1375,-142.57 1375,-173 1375,-173 1375,-173 781.07,-173 781.07,-173"/>
<polygon fill="black" stroke="black" points="781.07,-169.5 771.07,-173 781.07,-176.5 781.07,-169.5"/>
</g>
<!-- CreateAlternativaComponent -->
<g id="node2" class="node">
<title>CreateAlternativaComponent</title>
<polygon fill="#ffffb3" stroke="black" points="1284.34,-122 1103.66,-122 1103.66,-86 1284.34,-86 1284.34,-122"/>
<text text-anchor="middle" x="1194" y="-99.8" font-family="Times,serif" font-size="14.00">CreateAlternativaComponent</text>
</g>
<!-- CreateAlternativaComponent&#45;&gt;AlternativaModule -->
<g id="edge2" class="edge">
<title>CreateAlternativaComponent&#45;&gt;AlternativaModule</title>
<path fill="none" stroke="black" d="M1194,-122.27C1194,-140.56 1194,-166 1194,-166 1194,-166 781.3,-166 781.3,-166"/>
<polygon fill="black" stroke="black" points="781.3,-162.5 771.3,-166 781.3,-169.5 781.3,-162.5"/>
</g>
<!-- ListAlternativaComponent -->
<g id="node3" class="node">
<title>ListAlternativaComponent</title>
<polygon fill="#ffffb3" stroke="black" points="1086.08,-122 919.92,-122 919.92,-86 1086.08,-86 1086.08,-122"/>
<text text-anchor="middle" x="1003" y="-99.8" font-family="Times,serif" font-size="14.00">ListAlternativaComponent</text>
</g>
<!-- ListAlternativaComponent&#45;&gt;AlternativaModule -->
<g id="edge3" class="edge">
<title>ListAlternativaComponent&#45;&gt;AlternativaModule</title>
<path fill="none" stroke="black" d="M958.56,-122.01C958.56,-138.05 958.56,-159 958.56,-159 958.56,-159 781.12,-159 781.12,-159"/>
<polygon fill="black" stroke="black" points="781.12,-155.5 771.12,-159 781.12,-162.5 781.12,-155.5"/>
</g>
<!-- UpdateAlternativaComponent -->
<g id="node4" class="node">
<title>UpdateAlternativaComponent</title>
<polygon fill="#ffffb3" stroke="black" points="902.23,-122 717.77,-122 717.77,-86 902.23,-86 902.23,-122"/>
<text text-anchor="middle" x="810" y="-99.8" font-family="Times,serif" font-size="14.00">UpdateAlternativaComponent</text>
</g>
<!-- UpdateAlternativaComponent&#45;&gt;AlternativaModule -->
<g id="edge4" class="edge">
<title>UpdateAlternativaComponent&#45;&gt;AlternativaModule</title>
<path fill="none" stroke="black" d="M744.45,-122.11C744.45,-122.11 744.45,-140.99 744.45,-140.99"/>
<polygon fill="black" stroke="black" points="740.95,-140.99 744.45,-150.99 747.95,-140.99 740.95,-140.99"/>
</g>
<!-- CreateAlternativaComponent  -->
<g id="node10" class="node">
<title>CreateAlternativaComponent </title>
<polygon fill="#fb8072" stroke="black" points="997.34,-252 812.66,-252 812.66,-216 997.34,-216 997.34,-252"/>
<text text-anchor="middle" x="905" y="-229.8" font-family="Times,serif" font-size="14.00">CreateAlternativaComponent </text>
</g>
<!-- AlternativaModule&#45;&gt;CreateAlternativaComponent  -->
<g id="edge9" class="edge">
<title>AlternativaModule&#45;&gt;CreateAlternativaComponent </title>
<path fill="none" stroke="black" stroke-dasharray="5,2" d="M771.31,-180C811.87,-180 857.6,-180 857.6,-180 857.6,-180 857.6,-205.72 857.6,-205.72"/>
<polygon fill="black" stroke="black" points="854.1,-205.72 857.6,-215.72 861.1,-205.72 854.1,-205.72"/>
</g>
<!-- ListAlternativaComponent  -->
<g id="node11" class="node">
<title>ListAlternativaComponent </title>
<polygon fill="#fb8072" stroke="black" points="794.58,-252 625.42,-252 625.42,-216 794.58,-216 794.58,-252"/>
<text text-anchor="middle" x="710" y="-229.8" font-family="Times,serif" font-size="14.00">ListAlternativaComponent </text>
</g>
<!-- AlternativaModule&#45;&gt;ListAlternativaComponent  -->
<g id="edge10" class="edge">
<title>AlternativaModule&#45;&gt;ListAlternativaComponent </title>
<path fill="none" stroke="black" stroke-dasharray="5,2" d="M710,-187.11C710,-187.11 710,-205.99 710,-205.99"/>
<polygon fill="black" stroke="black" points="706.5,-205.99 710,-215.99 713.5,-205.99 706.5,-205.99"/>
</g>
<!-- UpdateAlternativaComponent  -->
<g id="node12" class="node">
<title>UpdateAlternativaComponent </title>
<polygon fill="#fb8072" stroke="black" points="607.23,-252 418.77,-252 418.77,-216 607.23,-216 607.23,-252"/>
<text text-anchor="middle" x="513" y="-229.8" font-family="Times,serif" font-size="14.00">UpdateAlternativaComponent </text>
</g>
<!-- AlternativaModule&#45;&gt;UpdateAlternativaComponent  -->
<g id="edge11" class="edge">
<title>AlternativaModule&#45;&gt;UpdateAlternativaComponent </title>
<path fill="none" stroke="black" stroke-dasharray="5,2" d="M648.79,-180C609.83,-180 566.65,-180 566.65,-180 566.65,-180 566.65,-205.72 566.65,-205.72"/>
<polygon fill="black" stroke="black" points="563.15,-205.72 566.65,-215.72 570.15,-205.72 563.15,-205.72"/>
</g>
<!-- AlternativaRoutingModule -->
<g id="node6" class="node">
<title>AlternativaRoutingModule</title>
<polygon fill="#8dd3c7" stroke="black" points="693.64,-122 690.64,-126 669.64,-126 666.64,-122 526.36,-122 526.36,-86 693.64,-86 693.64,-122"/>
<text text-anchor="middle" x="610" y="-99.8" font-family="Times,serif" font-size="14.00">AlternativaRoutingModule</text>
</g>
<!-- AlternativaRoutingModule&#45;&gt;AlternativaModule -->
<g id="edge5" class="edge">
<title>AlternativaRoutingModule&#45;&gt;AlternativaModule</title>
<path fill="none" stroke="black" d="M671.28,-122.11C671.28,-122.11 671.28,-140.99 671.28,-140.99"/>
<polygon fill="black" stroke="black" points="667.78,-140.99 671.28,-150.99 674.78,-140.99 667.78,-140.99"/>
</g>
<!-- CollapseAccordionModule -->
<g id="node7" class="node">
<title>CollapseAccordionModule</title>
<polygon fill="#8dd3c7" stroke="black" points="507.63,-122 504.63,-126 483.63,-126 480.63,-122 340.37,-122 340.37,-86 507.63,-86 507.63,-122"/>
<text text-anchor="middle" x="424" y="-99.8" font-family="Times,serif" font-size="14.00">CollapseAccordionModule</text>
</g>
<!-- CollapseAccordionModule&#45;&gt;AlternativaModule -->
<g id="edge6" class="edge">
<title>CollapseAccordionModule&#45;&gt;AlternativaModule</title>
<path fill="none" stroke="black" d="M463.35,-122.01C463.35,-138.05 463.35,-159 463.35,-159 463.35,-159 638.71,-159 638.71,-159"/>
<polygon fill="black" stroke="black" points="638.71,-162.5 648.71,-159 638.71,-155.5 638.71,-162.5"/>
</g>
<!-- DyamicSelectModule -->
<g id="node8" class="node">
<title>DyamicSelectModule</title>
<polygon fill="#8dd3c7" stroke="black" points="322.07,-122 319.07,-126 298.07,-126 295.07,-122 183.93,-122 183.93,-86 322.07,-86 322.07,-122"/>
<text text-anchor="middle" x="253" y="-99.8" font-family="Times,serif" font-size="14.00">DyamicSelectModule</text>
</g>
<!-- DyamicSelectModule&#45;&gt;AlternativaModule -->
<g id="edge7" class="edge">
<title>DyamicSelectModule&#45;&gt;AlternativaModule</title>
<path fill="none" stroke="black" d="M253,-122.27C253,-140.56 253,-166 253,-166 253,-166 638.84,-166 638.84,-166"/>
<polygon fill="black" stroke="black" points="638.84,-169.5 648.84,-166 638.84,-162.5 638.84,-169.5"/>
</g>
<!-- DynamicTableModule -->
<g id="node9" class="node">
<title>DynamicTableModule</title>
<polygon fill="#8dd3c7" stroke="black" points="166.24,-122 163.24,-126 142.24,-126 139.24,-122 23.76,-122 23.76,-86 166.24,-86 166.24,-122"/>
<text text-anchor="middle" x="95" y="-99.8" font-family="Times,serif" font-size="14.00">DynamicTableModule</text>
</g>
<!-- DynamicTableModule&#45;&gt;AlternativaModule -->
<g id="edge8" class="edge">
<title>DynamicTableModule&#45;&gt;AlternativaModule</title>
<path fill="none" stroke="black" d="M95,-122.13C95,-142.57 95,-173 95,-173 95,-173 638.78,-173 638.78,-173"/>
<polygon fill="black" stroke="black" points="638.78,-176.5 648.78,-173 638.78,-169.5 638.78,-176.5"/>
</g>
</g>
</svg>
