<?xml version="1.0" encoding="UTF-8" standalone="no"?>
<!DOCTYPE svg PUBLIC "-//W3C//DTD SVG 1.1//EN"
 "http://www.w3.org/Graphics/SVG/1.1/DTD/svg11.dtd">
<!-- Generated by graphviz version 2.47.0 (20210316.0004)
 -->
<!-- Title: dependencies Pages: 1 -->
<svg width="2856pt" height="284pt"
 viewBox="0.00 0.00 2856.00 284.00" xmlns="http://www.w3.org/2000/svg" xmlns:xlink="http://www.w3.org/1999/xlink">
<g id="graph0" class="graph" transform="scale(1 1) rotate(0) translate(4 280)">
<title>dependencies</title>
<polygon fill="white" stroke="transparent" points="-4,4 -4,-280 2852,-280 2852,4 -4,4"/>
<text text-anchor="start" x="1403.01" y="-42.4" font-family="Times-12" font-weight="bold" font-size="14.00">Legend</text>
<polygon fill="#ffffb3" stroke="transparent" points="1190,-10 1190,-30 1210,-30 1210,-10 1190,-10"/>
<text text-anchor="start" x="1213.63" y="-15.4" font-family="Times-12" font-size="14.00"> &#160;Declarations</text>
<polygon fill="#8dd3c7" stroke="transparent" points="1303,-10 1303,-30 1323,-30 1323,-10 1303,-10"/>
<text text-anchor="start" x="1326.73" y="-15.4" font-family="Times-12" font-size="14.00"> &#160;Module</text>
<polygon fill="#80b1d3" stroke="transparent" points="1389,-10 1389,-30 1409,-30 1409,-10 1389,-10"/>
<text text-anchor="start" x="1412.78" y="-15.4" font-family="Times-12" font-size="14.00"> &#160;Bootstrap</text>
<polygon fill="#fdb462" stroke="transparent" points="1486,-10 1486,-30 1506,-30 1506,-10 1486,-10"/>
<text text-anchor="start" x="1509.67" y="-15.4" font-family="Times-12" font-size="14.00"> &#160;Providers</text>
<polygon fill="#fb8072" stroke="transparent" points="1582,-10 1582,-30 1602,-30 1602,-10 1582,-10"/>
<text text-anchor="start" x="1605.73" y="-15.4" font-family="Times-12" font-size="14.00"> &#160;Exports</text>
<g id="clust1" class="cluster">
<title>cluster_ProvaModule</title>
<polygon fill="none" stroke="black" stroke-dasharray="1,5" points="8,-70 8,-268 2840,-268 2840,-70 8,-70"/>
</g>
<g id="clust13" class="cluster">
<title>cluster_ProvaModule_imports</title>
<polygon fill="none" stroke="black" points="1754,-78 1754,-130 2832,-130 2832,-78 1754,-78"/>
</g>
<g id="clust14" class="cluster">
<title>cluster_ProvaModule_exports</title>
<polygon fill="none" stroke="black" points="1223,-208 1223,-260 1727,-260 1727,-208 1223,-208"/>
</g>
<g id="clust2" class="cluster">
<title>cluster_ProvaModule_declarations</title>
<polygon fill="none" stroke="black" points="16,-78 16,-130 1746,-130 1746,-78 16,-78"/>
</g>
<!-- CreateProvaComponent -->
<g id="node1" class="node">
<title>CreateProvaComponent</title>
<polygon fill="#ffffb3" stroke="black" points="1738.02,-122 1587.98,-122 1587.98,-86 1738.02,-86 1738.02,-122"/>
<text text-anchor="middle" x="1663" y="-99.8" font-family="Times,serif" font-size="14.00">CreateProvaComponent</text>
</g>
<!-- ProvaModule -->
<g id="node11" class="node">
<title>ProvaModule</title>
<polygon fill="#8dd3c7" stroke="black" points="1523.21,-187 1520.21,-191 1499.21,-191 1496.21,-187 1430.79,-187 1430.79,-151 1523.21,-151 1523.21,-187"/>
<text text-anchor="middle" x="1477" y="-164.8" font-family="Times,serif" font-size="14.00">ProvaModule</text>
</g>
<!-- CreateProvaComponent&#45;&gt;ProvaModule -->
<g id="edge1" class="edge">
<title>CreateProvaComponent&#45;&gt;ProvaModule</title>
<path fill="none" stroke="black" d="M1653.38,-122.12C1653.38,-136.78 1653.38,-155 1653.38,-155 1653.38,-155 1533.34,-155 1533.34,-155"/>
<polygon fill="black" stroke="black" points="1533.34,-151.5 1523.34,-155 1533.34,-158.5 1533.34,-151.5"/>
</g>
<!-- LinkProvaModuloComponent -->
<g id="node2" class="node">
<title>LinkProvaModuloComponent</title>
<polygon fill="#ffffb3" stroke="black" points="1569.27,-122 1384.73,-122 1384.73,-86 1569.27,-86 1569.27,-122"/>
<text text-anchor="middle" x="1477" y="-99.8" font-family="Times,serif" font-size="14.00">LinkProvaModuloComponent</text>
</g>
<!-- LinkProvaModuloComponent&#45;&gt;ProvaModule -->
<g id="edge2" class="edge">
<title>LinkProvaModuloComponent&#45;&gt;ProvaModule</title>
<path fill="none" stroke="black" d="M1477,-122.11C1477,-122.11 1477,-140.99 1477,-140.99"/>
<polygon fill="black" stroke="black" points="1473.5,-140.99 1477,-150.99 1480.5,-140.99 1473.5,-140.99"/>
</g>
<!-- ListProvaComponent -->
<g id="node3" class="node">
<title>ListProvaComponent</title>
<polygon fill="#ffffb3" stroke="black" points="1366.77,-122 1231.23,-122 1231.23,-86 1366.77,-86 1366.77,-122"/>
<text text-anchor="middle" x="1299" y="-99.8" font-family="Times,serif" font-size="14.00">ListProvaComponent</text>
</g>
<!-- ListProvaComponent&#45;&gt;ProvaModule -->
<g id="edge3" class="edge">
<title>ListProvaComponent&#45;&gt;ProvaModule</title>
<path fill="none" stroke="black" d="M1299,-122.12C1299,-136.78 1299,-155 1299,-155 1299,-155 1420.7,-155 1420.7,-155"/>
<polygon fill="black" stroke="black" points="1420.7,-158.5 1430.7,-155 1420.7,-151.5 1420.7,-158.5"/>
</g>
<!-- PreviewModalComponent -->
<g id="node4" class="node">
<title>PreviewModalComponent</title>
<polygon fill="#ffffb3" stroke="black" points="1212.75,-122 1049.25,-122 1049.25,-86 1212.75,-86 1212.75,-122"/>
<text text-anchor="middle" x="1131" y="-99.8" font-family="Times,serif" font-size="14.00">PreviewModalComponent</text>
</g>
<!-- PreviewModalComponent&#45;&gt;ProvaModule -->
<g id="edge4" class="edge">
<title>PreviewModalComponent&#45;&gt;ProvaModule</title>
<path fill="none" stroke="black" d="M1131,-122.01C1131,-138.05 1131,-159 1131,-159 1131,-159 1420.7,-159 1420.7,-159"/>
<polygon fill="black" stroke="black" points="1420.7,-162.5 1430.7,-159 1420.7,-155.5 1420.7,-162.5"/>
</g>
<!-- ProvaComponent -->
<g id="node5" class="node">
<title>ProvaComponent</title>
<polygon fill="#ffffb3" stroke="black" points="1030.99,-122 917.01,-122 917.01,-86 1030.99,-86 1030.99,-122"/>
<text text-anchor="middle" x="974" y="-99.8" font-family="Times,serif" font-size="14.00">ProvaComponent</text>
</g>
<!-- ProvaComponent&#45;&gt;ProvaModule -->
<g id="edge5" class="edge">
<title>ProvaComponent&#45;&gt;ProvaModule</title>
<path fill="none" stroke="black" d="M974,-122.03C974,-139.06 974,-162 974,-162 974,-162 1420.58,-162 1420.58,-162"/>
<polygon fill="black" stroke="black" points="1420.58,-165.5 1430.58,-162 1420.58,-158.5 1420.58,-165.5"/>
</g>
<!-- ProvaItemComponent -->
<g id="node6" class="node">
<title>ProvaItemComponent</title>
<polygon fill="#ffffb3" stroke="black" points="898.65,-122 759.35,-122 759.35,-86 898.65,-86 898.65,-122"/>
<text text-anchor="middle" x="829" y="-99.8" font-family="Times,serif" font-size="14.00">ProvaItemComponent</text>
</g>
<!-- ProvaItemComponent&#45;&gt;ProvaModule -->
<g id="edge6" class="edge">
<title>ProvaItemComponent&#45;&gt;ProvaModule</title>
<path fill="none" stroke="black" d="M829,-122.27C829,-140.56 829,-166 829,-166 829,-166 1420.66,-166 1420.66,-166"/>
<polygon fill="black" stroke="black" points="1420.66,-169.5 1430.66,-166 1420.66,-162.5 1420.66,-169.5"/>
</g>
<!-- SelectQuestionsComponent -->
<g id="node7" class="node">
<title>SelectQuestionsComponent</title>
<polygon fill="#ffffb3" stroke="black" points="740.53,-122 569.47,-122 569.47,-86 740.53,-86 740.53,-122"/>
<text text-anchor="middle" x="655" y="-99.8" font-family="Times,serif" font-size="14.00">SelectQuestionsComponent</text>
</g>
<!-- SelectQuestionsComponent&#45;&gt;ProvaModule -->
<g id="edge7" class="edge">
<title>SelectQuestionsComponent&#45;&gt;ProvaModule</title>
<path fill="none" stroke="black" d="M655,-122.11C655,-141.34 655,-169 655,-169 655,-169 1420.75,-169 1420.75,-169"/>
<polygon fill="black" stroke="black" points="1420.75,-172.5 1430.75,-169 1420.75,-165.5 1420.75,-172.5"/>
</g>
<!-- SelectableProvaListComponent -->
<g id="node8" class="node">
<title>SelectableProvaListComponent</title>
<polygon fill="#ffffb3" stroke="black" points="551.8,-122 358.2,-122 358.2,-86 551.8,-86 551.8,-122"/>
<text text-anchor="middle" x="455" y="-99.8" font-family="Times,serif" font-size="14.00">SelectableProvaListComponent</text>
</g>
<!-- SelectableProvaListComponent&#45;&gt;ProvaModule -->
<g id="edge8" class="edge">
<title>SelectableProvaListComponent&#45;&gt;ProvaModule</title>
<path fill="none" stroke="black" d="M455,-122.13C455,-142.57 455,-173 455,-173 455,-173 1420.77,-173 1420.77,-173"/>
<polygon fill="black" stroke="black" points="1420.77,-176.5 1430.77,-173 1420.77,-169.5 1420.77,-176.5"/>
</g>
<!-- UpdateProvaComponent -->
<g id="node9" class="node">
<title>UpdateProvaComponent</title>
<polygon fill="#ffffb3" stroke="black" points="340.42,-122 185.58,-122 185.58,-86 340.42,-86 340.42,-122"/>
<text text-anchor="middle" x="263" y="-99.8" font-family="Times,serif" font-size="14.00">UpdateProvaComponent</text>
</g>
<!-- UpdateProvaComponent&#45;&gt;ProvaModule -->
<g id="edge9" class="edge">
<title>UpdateProvaComponent&#45;&gt;ProvaModule</title>
<path fill="none" stroke="black" d="M263,-122.04C263,-143.66 263,-177 263,-177 263,-177 1420.89,-177 1420.89,-177"/>
<polygon fill="black" stroke="black" points="1420.89,-180.5 1430.89,-177 1420.89,-173.5 1420.89,-180.5"/>
</g>
<!-- ViewProvaComponent -->
<g id="node10" class="node">
<title>ViewProvaComponent</title>
<polygon fill="#ffffb3" stroke="black" points="168.31,-122 23.69,-122 23.69,-86 168.31,-86 168.31,-122"/>
<text text-anchor="middle" x="96" y="-99.8" font-family="Times,serif" font-size="14.00">ViewProvaComponent</text>
</g>
<!-- ViewProvaComponent&#45;&gt;ProvaModule -->
<g id="edge10" class="edge">
<title>ViewProvaComponent&#45;&gt;ProvaModule</title>
<path fill="none" stroke="black" d="M96,-122.01C96,-144.49 96,-180 96,-180 96,-180 1420.66,-180 1420.66,-180"/>
<polygon fill="black" stroke="black" points="1420.66,-183.5 1430.66,-180 1420.66,-176.5 1420.66,-183.5"/>
</g>
<!-- CreateProvaComponent  -->
<g id="node19" class="node">
<title>CreateProvaComponent </title>
<polygon fill="#fb8072" stroke="black" points="1719.02,-252 1564.98,-252 1564.98,-216 1719.02,-216 1719.02,-252"/>
<text text-anchor="middle" x="1642" y="-229.8" font-family="Times,serif" font-size="14.00">CreateProvaComponent </text>
</g>
<!-- ProvaModule&#45;&gt;CreateProvaComponent  -->
<g id="edge18" class="edge">
<title>ProvaModule&#45;&gt;CreateProvaComponent </title>
<path fill="none" stroke="black" stroke-dasharray="5,2" d="M1523.32,-184C1550.11,-184 1578.56,-184 1578.56,-184 1578.56,-184 1578.56,-205.95 1578.56,-205.95"/>
<polygon fill="black" stroke="black" points="1575.06,-205.95 1578.56,-215.95 1582.06,-205.95 1575.06,-205.95"/>
</g>
<!-- ListProvaComponent  -->
<g id="node20" class="node">
<title>ListProvaComponent </title>
<polygon fill="#fb8072" stroke="black" points="1546.77,-252 1407.23,-252 1407.23,-216 1546.77,-216 1546.77,-252"/>
<text text-anchor="middle" x="1477" y="-229.8" font-family="Times,serif" font-size="14.00">ListProvaComponent </text>
</g>
<!-- ProvaModule&#45;&gt;ListProvaComponent  -->
<g id="edge19" class="edge">
<title>ProvaModule&#45;&gt;ListProvaComponent </title>
<path fill="none" stroke="black" stroke-dasharray="5,2" d="M1477,-187.11C1477,-187.11 1477,-205.99 1477,-205.99"/>
<polygon fill="black" stroke="black" points="1473.5,-205.99 1477,-215.99 1480.5,-205.99 1473.5,-205.99"/>
</g>
<!-- UpdateProvaComponent  -->
<g id="node21" class="node">
<title>UpdateProvaComponent </title>
<polygon fill="#fb8072" stroke="black" points="1388.92,-252 1231.08,-252 1231.08,-216 1388.92,-216 1388.92,-252"/>
<text text-anchor="middle" x="1310" y="-229.8" font-family="Times,serif" font-size="14.00">UpdateProvaComponent </text>
</g>
<!-- ProvaModule&#45;&gt;UpdateProvaComponent  -->
<g id="edge20" class="edge">
<title>ProvaModule&#45;&gt;UpdateProvaComponent </title>
<path fill="none" stroke="black" stroke-dasharray="5,2" d="M1430.82,-184C1404.12,-184 1375.75,-184 1375.75,-184 1375.75,-184 1375.75,-205.95 1375.75,-205.95"/>
<polygon fill="black" stroke="black" points="1372.25,-205.95 1375.75,-215.95 1379.25,-205.95 1372.25,-205.95"/>
</g>
<!-- CollapseAccordionModule -->
<g id="node12" class="node">
<title>CollapseAccordionModule</title>
<polygon fill="#8dd3c7" stroke="black" points="2823.63,-122 2820.63,-126 2799.63,-126 2796.63,-122 2656.37,-122 2656.37,-86 2823.63,-86 2823.63,-122"/>
<text text-anchor="middle" x="2740" y="-99.8" font-family="Times,serif" font-size="14.00">CollapseAccordionModule</text>
</g>
<!-- CollapseAccordionModule&#45;&gt;ProvaModule -->
<g id="edge11" class="edge">
<title>CollapseAccordionModule&#45;&gt;ProvaModule</title>
<path fill="none" stroke="black" d="M2740,-122.01C2740,-144.49 2740,-180 2740,-180 2740,-180 1533.45,-180 1533.45,-180"/>
<polygon fill="black" stroke="black" points="1533.45,-176.5 1523.45,-180 1533.45,-183.5 1533.45,-176.5"/>
</g>
<!-- DyamicSelectModule -->
<g id="node13" class="node">
<title>DyamicSelectModule</title>
<polygon fill="#8dd3c7" stroke="black" points="2638.07,-122 2635.07,-126 2614.07,-126 2611.07,-122 2499.93,-122 2499.93,-86 2638.07,-86 2638.07,-122"/>
<text text-anchor="middle" x="2569" y="-99.8" font-family="Times,serif" font-size="14.00">DyamicSelectModule</text>
</g>
<!-- DyamicSelectModule&#45;&gt;ProvaModule -->
<g id="edge12" class="edge">
<title>DyamicSelectModule&#45;&gt;ProvaModule</title>
<path fill="none" stroke="black" d="M2569,-122.04C2569,-143.66 2569,-177 2569,-177 2569,-177 1533.22,-177 1533.22,-177"/>
<polygon fill="black" stroke="black" points="1533.22,-173.5 1523.22,-177 1533.22,-180.5 1533.22,-173.5"/>
</g>
<!-- DynamicTableModule -->
<g id="node14" class="node">
<title>DynamicTableModule</title>
<polygon fill="#8dd3c7" stroke="black" points="2482.24,-122 2479.24,-126 2458.24,-126 2455.24,-122 2339.76,-122 2339.76,-86 2482.24,-86 2482.24,-122"/>
<text text-anchor="middle" x="2411" y="-99.8" font-family="Times,serif" font-size="14.00">DynamicTableModule</text>
</g>
<!-- DynamicTableModule&#45;&gt;ProvaModule -->
<g id="edge13" class="edge">
<title>DynamicTableModule&#45;&gt;ProvaModule</title>
<path fill="none" stroke="black" d="M2411,-122.13C2411,-142.57 2411,-173 2411,-173 2411,-173 1533.32,-173 1533.32,-173"/>
<polygon fill="black" stroke="black" points="1533.32,-169.5 1523.32,-173 1533.32,-176.5 1533.32,-169.5"/>
</g>
<!-- DynamicVideoListModule -->
<g id="node15" class="node">
<title>DynamicVideoListModule</title>
<polygon fill="#8dd3c7" stroke="black" points="2321.36,-122 2318.36,-126 2297.36,-126 2294.36,-122 2154.64,-122 2154.64,-86 2321.36,-86 2321.36,-122"/>
<text text-anchor="middle" x="2238" y="-99.8" font-family="Times,serif" font-size="14.00">DynamicVideoListModule</text>
</g>
<!-- DynamicVideoListModule&#45;&gt;ProvaModule -->
<g id="edge14" class="edge">
<title>DynamicVideoListModule&#45;&gt;ProvaModule</title>
<path fill="none" stroke="black" d="M2238,-122.11C2238,-141.34 2238,-169 2238,-169 2238,-169 1533.17,-169 1533.17,-169"/>
<polygon fill="black" stroke="black" points="1533.17,-165.5 1523.17,-169 1533.17,-172.5 1533.17,-165.5"/>
</g>
<!-- ModalModule -->
<g id="node16" class="node">
<title>ModalModule</title>
<polygon fill="#8dd3c7" stroke="black" points="2137.1,-122 2134.1,-126 2113.1,-126 2110.1,-122 2040.9,-122 2040.9,-86 2137.1,-86 2137.1,-122"/>
<text text-anchor="middle" x="2089" y="-99.8" font-family="Times,serif" font-size="14.00">ModalModule</text>
</g>
<!-- ModalModule&#45;&gt;ProvaModule -->
<g id="edge15" class="edge">
<title>ModalModule&#45;&gt;ProvaModule</title>
<path fill="none" stroke="black" d="M2089,-122.27C2089,-140.56 2089,-166 2089,-166 2089,-166 1533.25,-166 1533.25,-166"/>
<polygon fill="black" stroke="black" points="1533.25,-162.5 1523.25,-166 1533.25,-169.5 1533.25,-162.5"/>
</g>
<!-- ProvaRoutingModule -->
<g id="node17" class="node">
<title>ProvaRoutingModule</title>
<polygon fill="#8dd3c7" stroke="black" points="2022.83,-122 2019.83,-126 1998.83,-126 1995.83,-122 1885.17,-122 1885.17,-86 2022.83,-86 2022.83,-122"/>
<text text-anchor="middle" x="1954" y="-99.8" font-family="Times,serif" font-size="14.00">ProvaRoutingModule</text>
</g>
<!-- ProvaRoutingModule&#45;&gt;ProvaModule -->
<g id="edge16" class="edge">
<title>ProvaRoutingModule&#45;&gt;ProvaModule</title>
<path fill="none" stroke="black" d="M1954,-122.03C1954,-139.06 1954,-162 1954,-162 1954,-162 1533.17,-162 1533.17,-162"/>
<polygon fill="black" stroke="black" points="1533.17,-158.5 1523.17,-162 1533.17,-165.5 1533.17,-158.5"/>
</g>
<!-- QuestaoModule -->
<g id="node18" class="node">
<title>QuestaoModule</title>
<polygon fill="#8dd3c7" stroke="black" points="1867.92,-122 1864.92,-126 1843.92,-126 1840.92,-122 1762.08,-122 1762.08,-86 1867.92,-86 1867.92,-122"/>
<text text-anchor="middle" x="1815" y="-99.8" font-family="Times,serif" font-size="14.00">QuestaoModule</text>
</g>
<!-- QuestaoModule&#45;&gt;ProvaModule -->
<g id="edge17" class="edge">
<title>QuestaoModule&#45;&gt;ProvaModule</title>
<path fill="none" stroke="black" d="M1815,-122.01C1815,-138.05 1815,-159 1815,-159 1815,-159 1533.29,-159 1533.29,-159"/>
<polygon fill="black" stroke="black" points="1533.29,-155.5 1523.29,-159 1533.29,-162.5 1533.29,-155.5"/>
</g>
</g>
</svg>
