<?xml version="1.0" encoding="UTF-8" standalone="no"?>
<!DOCTYPE svg PUBLIC "-//W3C//DTD SVG 1.1//EN"
 "http://www.w3.org/Graphics/SVG/1.1/DTD/svg11.dtd">
<!-- Generated by graphviz version 2.47.0 (20210316.0004)
 -->
<!-- Title: dependencies Pages: 1 -->
<svg width="1114pt" height="396pt"
 viewBox="0.00 0.00 1114.00 395.59" xmlns="http://www.w3.org/2000/svg" xmlns:xlink="http://www.w3.org/1999/xlink">
<g id="graph0" class="graph" transform="scale(1 1) rotate(0) translate(4 391.59)">
<title>dependencies</title>
<polygon fill="white" stroke="transparent" points="-4,4 -4,-391.59 1110,-391.59 1110,4 -4,4"/>
<text text-anchor="start" x="532.01" y="-42.4" font-family="Times-12" font-weight="bold" font-size="14.00">Legend</text>
<polygon fill="#ffffb3" stroke="transparent" points="319,-10 319,-30 339,-30 339,-10 319,-10"/>
<text text-anchor="start" x="342.63" y="-15.4" font-family="Times-12" font-size="14.00"> &#160;Declarations</text>
<polygon fill="#8dd3c7" stroke="transparent" points="432,-10 432,-30 452,-30 452,-10 432,-10"/>
<text text-anchor="start" x="455.73" y="-15.4" font-family="Times-12" font-size="14.00"> &#160;Module</text>
<polygon fill="#80b1d3" stroke="transparent" points="518,-10 518,-30 538,-30 538,-10 518,-10"/>
<text text-anchor="start" x="541.78" y="-15.4" font-family="Times-12" font-size="14.00"> &#160;Bootstrap</text>
<polygon fill="#fdb462" stroke="transparent" points="615,-10 615,-30 635,-30 635,-10 615,-10"/>
<text text-anchor="start" x="638.67" y="-15.4" font-family="Times-12" font-size="14.00"> &#160;Providers</text>
<polygon fill="#fb8072" stroke="transparent" points="711,-10 711,-30 731,-30 731,-10 711,-10"/>
<text text-anchor="start" x="734.73" y="-15.4" font-family="Times-12" font-size="14.00"> &#160;Exports</text>
<g id="clust1" class="cluster">
<title>cluster_VideoInputModule</title>
<polygon fill="none" stroke="black" stroke-dasharray="1,5" points="8,-70 8,-379.59 1098,-379.59 1098,-70 8,-70"/>
</g>
<g id="clust3" class="cluster">
<title>cluster_VideoInputModule_VideoInputComponent_providers</title>
<polygon fill="none" stroke="black" points="354,-78 354,-241.59 1090,-241.59 1090,-78 354,-78"/>
</g>
<g id="clust2" class="cluster">
<title>cluster_VideoInputModule_declarations</title>
<polygon fill="none" stroke="black" points="168,-189.59 168,-241.59 346,-241.59 346,-189.59 168,-189.59"/>
</g>
<g id="clust5" class="cluster">
<title>cluster_VideoInputModule_imports</title>
<polygon fill="none" stroke="black" points="16,-189.59 16,-241.59 160,-241.59 160,-189.59 16,-189.59"/>
</g>
<g id="clust6" class="cluster">
<title>cluster_VideoInputModule_exports</title>
<polygon fill="none" stroke="black" points="92,-319.59 92,-371.59 439,-371.59 439,-319.59 92,-319.59"/>
</g>
<!-- VideoInputComponent -->
<g id="node1" class="node">
<title>VideoInputComponent</title>
<polygon fill="#ffffb3" stroke="black" points="650.6,-233.59 505.4,-233.59 505.4,-197.59 650.6,-197.59 650.6,-233.59"/>
<text text-anchor="middle" x="578" y="-211.39" font-family="Times,serif" font-size="14.00">VideoInputComponent</text>
</g>
<!-- VideoInputModule -->
<g id="node3" class="node">
<title>VideoInputModule</title>
<polygon fill="#8dd3c7" stroke="black" points="318.81,-298.59 315.81,-302.59 294.81,-302.59 291.81,-298.59 195.19,-298.59 195.19,-262.59 318.81,-262.59 318.81,-298.59"/>
<text text-anchor="middle" x="257" y="-276.39" font-family="Times,serif" font-size="14.00">VideoInputModule</text>
</g>
<!-- VideoInputComponent&#45;&gt;VideoInputModule -->
<g id="edge1" class="edge">
<title>VideoInputComponent&#45;&gt;VideoInputModule</title>
<path fill="none" stroke="black" d="M578,-233.7C578,-252.93 578,-280.59 578,-280.59 578,-280.59 328.89,-280.59 328.89,-280.59"/>
<polygon fill="black" stroke="black" points="328.89,-277.09 318.89,-280.59 328.89,-284.09 328.89,-277.09"/>
</g>
<!-- VideoPreviewComponent -->
<g id="node2" class="node">
<title>VideoPreviewComponent</title>
<polygon fill="#ffffb3" stroke="black" points="337.91,-233.59 176.09,-233.59 176.09,-197.59 337.91,-197.59 337.91,-233.59"/>
<text text-anchor="middle" x="257" y="-211.39" font-family="Times,serif" font-size="14.00">VideoPreviewComponent</text>
</g>
<!-- VideoPreviewComponent&#45;&gt;VideoInputModule -->
<g id="edge3" class="edge">
<title>VideoPreviewComponent&#45;&gt;VideoInputModule</title>
<path fill="none" stroke="black" d="M257,-233.7C257,-233.7 257,-252.58 257,-252.58"/>
<polygon fill="black" stroke="black" points="253.5,-252.58 257,-262.58 260.5,-252.58 253.5,-252.58"/>
</g>
<!-- VideoInputComponent  -->
<g id="node6" class="node">
<title>VideoInputComponent </title>
<polygon fill="#fb8072" stroke="black" points="431.1,-363.59 282.9,-363.59 282.9,-327.59 431.1,-327.59 431.1,-363.59"/>
<text text-anchor="middle" x="357" y="-341.39" font-family="Times,serif" font-size="14.00">VideoInputComponent </text>
</g>
<!-- VideoInputModule&#45;&gt;VideoInputComponent  -->
<g id="edge5" class="edge">
<title>VideoInputModule&#45;&gt;VideoInputComponent </title>
<path fill="none" stroke="black" stroke-dasharray="5,2" d="M300.68,-298.7C300.68,-298.7 300.68,-317.58 300.68,-317.58"/>
<polygon fill="black" stroke="black" points="297.18,-317.58 300.68,-327.58 304.18,-317.58 297.18,-317.58"/>
</g>
<!-- VideoPreviewComponent  -->
<g id="node7" class="node">
<title>VideoPreviewComponent </title>
<polygon fill="#fb8072" stroke="black" points="264.41,-363.59 99.59,-363.59 99.59,-327.59 264.41,-327.59 264.41,-363.59"/>
<text text-anchor="middle" x="182" y="-341.39" font-family="Times,serif" font-size="14.00">VideoPreviewComponent </text>
</g>
<!-- VideoInputModule&#45;&gt;VideoPreviewComponent  -->
<g id="edge6" class="edge">
<title>VideoInputModule&#45;&gt;VideoPreviewComponent </title>
<path fill="none" stroke="black" stroke-dasharray="5,2" d="M229.9,-298.7C229.9,-298.7 229.9,-317.58 229.9,-317.58"/>
<polygon fill="black" stroke="black" points="226.4,-317.58 229.9,-327.58 233.4,-317.58 226.4,-317.58"/>
</g>
<!-- {
 &#160;&#160;&#160;provide: NG_VALUE_ACCESSOR, useExisting: VideoInputComponent, multi: true
} -->
<g id="node4" class="node">
<title>{
 &#160;&#160;&#160;provide: NG_VALUE_ACCESSOR, useExisting: VideoInputComponent, multi: true
}</title>
<ellipse fill="#fdb462" stroke="black" cx="722" cy="-127.3" rx="359.87" ry="41.09"/>
<text text-anchor="middle" x="722" y="-139.9" font-family="Times,serif" font-size="14.00">{</text>
<text text-anchor="middle" x="722" y="-123.1" font-family="Times,serif" font-size="14.00"> &#160;&#160;&#160;provide: NG_VALUE_ACCESSOR, useExisting: VideoInputComponent, multi: true</text>
<text text-anchor="middle" x="722" y="-106.3" font-family="Times,serif" font-size="14.00">}</text>
</g>
<!-- {
 &#160;&#160;&#160;provide: NG_VALUE_ACCESSOR, useExisting: VideoInputComponent, multi: true
}&#45;&gt;VideoInputComponent -->
<g id="edge2" class="edge">
<title>{
 &#160;&#160;&#160;provide: NG_VALUE_ACCESSOR, useExisting: VideoInputComponent, multi: true
}&#45;&gt;VideoInputComponent</title>
<path fill="none" stroke="black" d="M578,-165.25C578,-165.25 578,-187.56 578,-187.56"/>
<polygon fill="black" stroke="black" points="574.5,-187.56 578,-197.56 581.5,-187.56 574.5,-187.56"/>
</g>
<!-- ProgressBarModule -->
<g id="node5" class="node">
<title>ProgressBarModule</title>
<polygon fill="#8dd3c7" stroke="black" points="151.97,-233.59 148.97,-237.59 127.97,-237.59 124.97,-233.59 24.03,-233.59 24.03,-197.59 151.97,-197.59 151.97,-233.59"/>
<text text-anchor="middle" x="88" y="-211.39" font-family="Times,serif" font-size="14.00">ProgressBarModule</text>
</g>
<!-- ProgressBarModule&#45;&gt;VideoInputModule -->
<g id="edge4" class="edge">
<title>ProgressBarModule&#45;&gt;VideoInputModule</title>
<path fill="none" stroke="black" d="M125.76,-233.7C125.76,-252.93 125.76,-280.59 125.76,-280.59 125.76,-280.59 185.22,-280.59 185.22,-280.59"/>
<polygon fill="black" stroke="black" points="185.22,-284.09 195.22,-280.59 185.22,-277.09 185.22,-284.09"/>
</g>
</g>
</svg>
