<?xml version="1.0" encoding="UTF-8" standalone="no"?>
<!DOCTYPE svg PUBLIC "-//W3C//DTD SVG 1.1//EN"
 "http://www.w3.org/Graphics/SVG/1.1/DTD/svg11.dtd">
<!-- Generated by graphviz version 2.47.0 (20210316.0004)
 -->
<!-- Title: dependencies Pages: 1 -->
<svg width="1290pt" height="211pt"
 viewBox="0.00 0.00 1290.00 211.00" xmlns="http://www.w3.org/2000/svg" xmlns:xlink="http://www.w3.org/1999/xlink">
<g id="graph0" class="graph" transform="scale(1 1) rotate(0) translate(4 207)">
<title>dependencies</title>
<polygon fill="white" stroke="transparent" points="-4,4 -4,-207 1286,-207 1286,4 -4,4"/>
<text text-anchor="start" x="620.01" y="-42.4" font-family="Times-12" font-weight="bold" font-size="14.00">Legend</text>
<polygon fill="#ffffb3" stroke="transparent" points="407,-10 407,-30 427,-30 427,-10 407,-10"/>
<text text-anchor="start" x="430.63" y="-15.4" font-family="Times-12" font-size="14.00"> &#160;Declarations</text>
<polygon fill="#8dd3c7" stroke="transparent" points="520,-10 520,-30 540,-30 540,-10 520,-10"/>
<text text-anchor="start" x="543.73" y="-15.4" font-family="Times-12" font-size="14.00"> &#160;Module</text>
<polygon fill="#80b1d3" stroke="transparent" points="606,-10 606,-30 626,-30 626,-10 606,-10"/>
<text text-anchor="start" x="629.78" y="-15.4" font-family="Times-12" font-size="14.00"> &#160;Bootstrap</text>
<polygon fill="#fdb462" stroke="transparent" points="703,-10 703,-30 723,-30 723,-10 703,-10"/>
<text text-anchor="start" x="726.67" y="-15.4" font-family="Times-12" font-size="14.00"> &#160;Providers</text>
<polygon fill="#fb8072" stroke="transparent" points="799,-10 799,-30 819,-30 819,-10 799,-10"/>
<text text-anchor="start" x="822.73" y="-15.4" font-family="Times-12" font-size="14.00"> &#160;Exports</text>
<g id="clust1" class="cluster">
<title>cluster_PermissionModule</title>
<polygon fill="none" stroke="black" stroke-dasharray="1,5" points="8,-70 8,-195 1274,-195 1274,-70 8,-70"/>
</g>
<g id="clust2" class="cluster">
<title>cluster_PermissionModule_declarations</title>
<polygon fill="none" stroke="black" points="523,-78 523,-130 1266,-130 1266,-78 523,-78"/>
</g>
<g id="clust7" class="cluster">
<title>cluster_PermissionModule_imports</title>
<polygon fill="none" stroke="black" points="16,-78 16,-130 515,-130 515,-78 16,-78"/>
</g>
<!-- CreatePermissionComponent -->
<g id="node1" class="node">
<title>CreatePermissionComponent</title>
<polygon fill="#ffffb3" stroke="black" points="1258.08,-122 1077.92,-122 1077.92,-86 1258.08,-86 1258.08,-122"/>
<text text-anchor="middle" x="1168" y="-99.8" font-family="Times,serif" font-size="14.00">CreatePermissionComponent</text>
</g>
<!-- PermissionModule -->
<g id="node5" class="node">
<title>PermissionModule</title>
<polygon fill="#8dd3c7" stroke="black" points="683.77,-187 680.77,-191 659.77,-191 656.77,-187 562.23,-187 562.23,-151 683.77,-151 683.77,-187"/>
<text text-anchor="middle" x="623" y="-164.8" font-family="Times,serif" font-size="14.00">PermissionModule</text>
</g>
<!-- CreatePermissionComponent&#45;&gt;PermissionModule -->
<g id="edge1" class="edge">
<title>CreatePermissionComponent&#45;&gt;PermissionModule</title>
<path fill="none" stroke="black" d="M1168,-122.29C1168,-144.21 1168,-178 1168,-178 1168,-178 693.93,-178 693.93,-178"/>
<polygon fill="black" stroke="black" points="693.93,-174.5 683.93,-178 693.93,-181.5 693.93,-174.5"/>
</g>
<!-- ListPermissionComponent -->
<g id="node2" class="node">
<title>ListPermissionComponent</title>
<polygon fill="#ffffb3" stroke="black" points="1059.83,-122 894.17,-122 894.17,-86 1059.83,-86 1059.83,-122"/>
<text text-anchor="middle" x="977" y="-99.8" font-family="Times,serif" font-size="14.00">ListPermissionComponent</text>
</g>
<!-- ListPermissionComponent&#45;&gt;PermissionModule -->
<g id="edge2" class="edge">
<title>ListPermissionComponent&#45;&gt;PermissionModule</title>
<path fill="none" stroke="black" d="M977,-122.11C977,-141.34 977,-169 977,-169 977,-169 693.85,-169 693.85,-169"/>
<polygon fill="black" stroke="black" points="693.85,-165.5 683.85,-169 693.85,-172.5 693.85,-165.5"/>
</g>
<!-- PermissionComponent -->
<g id="node3" class="node">
<title>PermissionComponent</title>
<polygon fill="#ffffb3" stroke="black" points="876.55,-122 733.45,-122 733.45,-86 876.55,-86 876.55,-122"/>
<text text-anchor="middle" x="805" y="-99.8" font-family="Times,serif" font-size="14.00">PermissionComponent</text>
</g>
<!-- PermissionComponent&#45;&gt;PermissionModule -->
<g id="edge3" class="edge">
<title>PermissionComponent&#45;&gt;PermissionModule</title>
<path fill="none" stroke="black" d="M805,-122.03C805,-138.4 805,-160 805,-160 805,-160 693.86,-160 693.86,-160"/>
<polygon fill="black" stroke="black" points="693.86,-156.5 683.86,-160 693.86,-163.5 693.86,-156.5"/>
</g>
<!-- UpdatePermissionComponent -->
<g id="node4" class="node">
<title>UpdatePermissionComponent</title>
<polygon fill="#ffffb3" stroke="black" points="714.98,-122 531.02,-122 531.02,-86 714.98,-86 714.98,-122"/>
<text text-anchor="middle" x="623" y="-99.8" font-family="Times,serif" font-size="14.00">UpdatePermissionComponent</text>
</g>
<!-- UpdatePermissionComponent&#45;&gt;PermissionModule -->
<g id="edge4" class="edge">
<title>UpdatePermissionComponent&#45;&gt;PermissionModule</title>
<path fill="none" stroke="black" d="M623,-122.11C623,-122.11 623,-140.99 623,-140.99"/>
<polygon fill="black" stroke="black" points="619.5,-140.99 623,-150.99 626.5,-140.99 619.5,-140.99"/>
</g>
<!-- DyamicSelectModule -->
<g id="node6" class="node">
<title>DyamicSelectModule</title>
<polygon fill="#8dd3c7" stroke="black" points="507.07,-122 504.07,-126 483.07,-126 480.07,-122 368.93,-122 368.93,-86 507.07,-86 507.07,-122"/>
<text text-anchor="middle" x="438" y="-99.8" font-family="Times,serif" font-size="14.00">DyamicSelectModule</text>
</g>
<!-- DyamicSelectModule&#45;&gt;PermissionModule -->
<g id="edge5" class="edge">
<title>DyamicSelectModule&#45;&gt;PermissionModule</title>
<path fill="none" stroke="black" d="M438,-122.03C438,-138.4 438,-160 438,-160 438,-160 552.17,-160 552.17,-160"/>
<polygon fill="black" stroke="black" points="552.17,-163.5 562.17,-160 552.17,-156.5 552.17,-163.5"/>
</g>
<!-- DynamicTableModule -->
<g id="node7" class="node">
<title>DynamicTableModule</title>
<polygon fill="#8dd3c7" stroke="black" points="351.24,-122 348.24,-126 327.24,-126 324.24,-122 208.76,-122 208.76,-86 351.24,-86 351.24,-122"/>
<text text-anchor="middle" x="280" y="-99.8" font-family="Times,serif" font-size="14.00">DynamicTableModule</text>
</g>
<!-- DynamicTableModule&#45;&gt;PermissionModule -->
<g id="edge6" class="edge">
<title>DynamicTableModule&#45;&gt;PermissionModule</title>
<path fill="none" stroke="black" d="M280,-122.11C280,-141.34 280,-169 280,-169 280,-169 552.07,-169 552.07,-169"/>
<polygon fill="black" stroke="black" points="552.07,-172.5 562.07,-169 552.07,-165.5 552.07,-172.5"/>
</g>
<!-- PermissionRoutingModule -->
<g id="node8" class="node">
<title>PermissionRoutingModule</title>
<polygon fill="#8dd3c7" stroke="black" points="190.39,-122 187.39,-126 166.39,-126 163.39,-122 23.61,-122 23.61,-86 190.39,-86 190.39,-122"/>
<text text-anchor="middle" x="107" y="-99.8" font-family="Times,serif" font-size="14.00">PermissionRoutingModule</text>
</g>
<!-- PermissionRoutingModule&#45;&gt;PermissionModule -->
<g id="edge7" class="edge">
<title>PermissionRoutingModule&#45;&gt;PermissionModule</title>
<path fill="none" stroke="black" d="M107,-122.29C107,-144.21 107,-178 107,-178 107,-178 552.04,-178 552.04,-178"/>
<polygon fill="black" stroke="black" points="552.04,-181.5 562.04,-178 552.04,-174.5 552.04,-181.5"/>
</g>
</g>
</svg>
