<?xml version="1.0" encoding="UTF-8" standalone="no"?>
<!DOCTYPE svg PUBLIC "-//W3C//DTD SVG 1.1//EN"
 "http://www.w3.org/Graphics/SVG/1.1/DTD/svg11.dtd">
<!-- Generated by graphviz version 2.47.0 (20210316.0004)
 -->
<!-- Title: dependencies Pages: 1 -->
<svg width="1111pt" height="211pt"
 viewBox="0.00 0.00 1111.00 211.00" xmlns="http://www.w3.org/2000/svg" xmlns:xlink="http://www.w3.org/1999/xlink">
<g id="graph0" class="graph" transform="scale(1 1) rotate(0) translate(4 207)">
<title>dependencies</title>
<polygon fill="white" stroke="transparent" points="-4,4 -4,-207 1107,-207 1107,4 -4,4"/>
<text text-anchor="start" x="530.51" y="-42.4" font-family="Times-12" font-weight="bold" font-size="14.00">Legend</text>
<polygon fill="#ffffb3" stroke="transparent" points="317.5,-10 317.5,-30 337.5,-30 337.5,-10 317.5,-10"/>
<text text-anchor="start" x="341.13" y="-15.4" font-family="Times-12" font-size="14.00"> &#160;Declarations</text>
<polygon fill="#8dd3c7" stroke="transparent" points="430.5,-10 430.5,-30 450.5,-30 450.5,-10 430.5,-10"/>
<text text-anchor="start" x="454.23" y="-15.4" font-family="Times-12" font-size="14.00"> &#160;Module</text>
<polygon fill="#80b1d3" stroke="transparent" points="516.5,-10 516.5,-30 536.5,-30 536.5,-10 516.5,-10"/>
<text text-anchor="start" x="540.28" y="-15.4" font-family="Times-12" font-size="14.00"> &#160;Bootstrap</text>
<polygon fill="#fdb462" stroke="transparent" points="613.5,-10 613.5,-30 633.5,-30 633.5,-10 613.5,-10"/>
<text text-anchor="start" x="637.17" y="-15.4" font-family="Times-12" font-size="14.00"> &#160;Providers</text>
<polygon fill="#fb8072" stroke="transparent" points="709.5,-10 709.5,-30 729.5,-30 729.5,-10 709.5,-10"/>
<text text-anchor="start" x="733.23" y="-15.4" font-family="Times-12" font-size="14.00"> &#160;Exports</text>
<g id="clust1" class="cluster">
<title>cluster_DisciplinaModule</title>
<polygon fill="none" stroke="black" stroke-dasharray="1,5" points="8,-70 8,-195 1095,-195 1095,-70 8,-70"/>
</g>
<g id="clust7" class="cluster">
<title>cluster_DisciplinaModule_imports</title>
<polygon fill="none" stroke="black" points="749,-78 749,-130 1087,-130 1087,-78 749,-78"/>
</g>
<g id="clust2" class="cluster">
<title>cluster_DisciplinaModule_declarations</title>
<polygon fill="none" stroke="black" points="16,-78 16,-130 741,-130 741,-78 16,-78"/>
</g>
<!-- CreateDisciplinaComponent -->
<g id="node1" class="node">
<title>CreateDisciplinaComponent</title>
<polygon fill="#ffffb3" stroke="black" points="732.91,-122 557.09,-122 557.09,-86 732.91,-86 732.91,-122"/>
<text text-anchor="middle" x="645" y="-99.8" font-family="Times,serif" font-size="14.00">CreateDisciplinaComponent</text>
</g>
<!-- DisciplinaModule -->
<g id="node5" class="node">
<title>DisciplinaModule</title>
<polygon fill="#8dd3c7" stroke="black" points="615.59,-187 612.59,-191 591.59,-191 588.59,-187 498.41,-187 498.41,-151 615.59,-151 615.59,-187"/>
<text text-anchor="middle" x="557" y="-164.8" font-family="Times,serif" font-size="14.00">DisciplinaModule</text>
</g>
<!-- CreateDisciplinaComponent&#45;&gt;DisciplinaModule -->
<g id="edge1" class="edge">
<title>CreateDisciplinaComponent&#45;&gt;DisciplinaModule</title>
<path fill="none" stroke="black" d="M586.42,-122.11C586.42,-122.11 586.42,-140.99 586.42,-140.99"/>
<polygon fill="black" stroke="black" points="582.92,-140.99 586.42,-150.99 589.92,-140.99 582.92,-140.99"/>
</g>
<!-- DisciplinaComponent -->
<g id="node2" class="node">
<title>DisciplinaComponent</title>
<polygon fill="#ffffb3" stroke="black" points="539.38,-122 400.62,-122 400.62,-86 539.38,-86 539.38,-122"/>
<text text-anchor="middle" x="470" y="-99.8" font-family="Times,serif" font-size="14.00">DisciplinaComponent</text>
</g>
<!-- DisciplinaComponent&#45;&gt;DisciplinaModule -->
<g id="edge2" class="edge">
<title>DisciplinaComponent&#45;&gt;DisciplinaModule</title>
<path fill="none" stroke="black" d="M518.95,-122.11C518.95,-122.11 518.95,-140.99 518.95,-140.99"/>
<polygon fill="black" stroke="black" points="515.45,-140.99 518.95,-150.99 522.45,-140.99 515.45,-140.99"/>
</g>
<!-- ListDisciplinaComponent -->
<g id="node3" class="node">
<title>ListDisciplinaComponent</title>
<polygon fill="#ffffb3" stroke="black" points="382.15,-122 221.85,-122 221.85,-86 382.15,-86 382.15,-122"/>
<text text-anchor="middle" x="302" y="-99.8" font-family="Times,serif" font-size="14.00">ListDisciplinaComponent</text>
</g>
<!-- ListDisciplinaComponent&#45;&gt;DisciplinaModule -->
<g id="edge3" class="edge">
<title>ListDisciplinaComponent&#45;&gt;DisciplinaModule</title>
<path fill="none" stroke="black" d="M302,-122.02C302,-139.37 302,-163 302,-163 302,-163 488.18,-163 488.18,-163"/>
<polygon fill="black" stroke="black" points="488.18,-166.5 498.18,-163 488.18,-159.5 488.18,-166.5"/>
</g>
<!-- UpdateDisciplinaComponent -->
<g id="node4" class="node">
<title>UpdateDisciplinaComponent</title>
<polygon fill="#ffffb3" stroke="black" points="203.8,-122 24.2,-122 24.2,-86 203.8,-86 203.8,-122"/>
<text text-anchor="middle" x="114" y="-99.8" font-family="Times,serif" font-size="14.00">UpdateDisciplinaComponent</text>
</g>
<!-- UpdateDisciplinaComponent&#45;&gt;DisciplinaModule -->
<g id="edge4" class="edge">
<title>UpdateDisciplinaComponent&#45;&gt;DisciplinaModule</title>
<path fill="none" stroke="black" d="M114,-122.28C114,-143.32 114,-175 114,-175 114,-175 488.17,-175 488.17,-175"/>
<polygon fill="black" stroke="black" points="488.17,-178.5 498.17,-175 488.17,-171.5 488.17,-178.5"/>
</g>
<!-- DisciplinaRoutingModule -->
<g id="node6" class="node">
<title>DisciplinaRoutingModule</title>
<polygon fill="#8dd3c7" stroke="black" points="1079.21,-122 1076.21,-126 1055.21,-126 1052.21,-122 916.79,-122 916.79,-86 1079.21,-86 1079.21,-122"/>
<text text-anchor="middle" x="998" y="-99.8" font-family="Times,serif" font-size="14.00">DisciplinaRoutingModule</text>
</g>
<!-- DisciplinaRoutingModule&#45;&gt;DisciplinaModule -->
<g id="edge5" class="edge">
<title>DisciplinaRoutingModule&#45;&gt;DisciplinaModule</title>
<path fill="none" stroke="black" d="M998,-122.28C998,-143.32 998,-175 998,-175 998,-175 625.56,-175 625.56,-175"/>
<polygon fill="black" stroke="black" points="625.56,-171.5 615.56,-175 625.56,-178.5 625.56,-171.5"/>
</g>
<!-- DynamicTableModule -->
<g id="node7" class="node">
<title>DynamicTableModule</title>
<polygon fill="#8dd3c7" stroke="black" points="899.24,-122 896.24,-126 875.24,-126 872.24,-122 756.76,-122 756.76,-86 899.24,-86 899.24,-122"/>
<text text-anchor="middle" x="828" y="-99.8" font-family="Times,serif" font-size="14.00">DynamicTableModule</text>
</g>
<!-- DynamicTableModule&#45;&gt;DisciplinaModule -->
<g id="edge6" class="edge">
<title>DynamicTableModule&#45;&gt;DisciplinaModule</title>
<path fill="none" stroke="black" d="M828,-122.02C828,-139.37 828,-163 828,-163 828,-163 625.8,-163 625.8,-163"/>
<polygon fill="black" stroke="black" points="625.8,-159.5 615.8,-163 625.8,-166.5 625.8,-159.5"/>
</g>
</g>
</svg>
