<?xml version="1.0" encoding="UTF-8" standalone="no"?>
<!DOCTYPE svg PUBLIC "-//W3C//DTD SVG 1.1//EN"
 "http://www.w3.org/Graphics/SVG/1.1/DTD/svg11.dtd">
<!-- Generated by graphviz version 2.47.0 (20210316.0004)
 -->
<!-- Title: dependencies Pages: 1 -->
<svg width="980pt" height="396pt"
 viewBox="0.00 0.00 980.00 395.59" xmlns="http://www.w3.org/2000/svg" xmlns:xlink="http://www.w3.org/1999/xlink">
<g id="graph0" class="graph" transform="scale(1 1) rotate(0) translate(4 391.59)">
<title>dependencies</title>
<polygon fill="white" stroke="transparent" points="-4,4 -4,-391.59 976,-391.59 976,4 -4,4"/>
<text text-anchor="start" x="465.01" y="-42.4" font-family="Times-12" font-weight="bold" font-size="14.00">Legend</text>
<polygon fill="#ffffb3" stroke="transparent" points="252,-10 252,-30 272,-30 272,-10 252,-10"/>
<text text-anchor="start" x="275.63" y="-15.4" font-family="Times-12" font-size="14.00"> &#160;Declarations</text>
<polygon fill="#8dd3c7" stroke="transparent" points="365,-10 365,-30 385,-30 385,-10 365,-10"/>
<text text-anchor="start" x="388.73" y="-15.4" font-family="Times-12" font-size="14.00"> &#160;Module</text>
<polygon fill="#80b1d3" stroke="transparent" points="451,-10 451,-30 471,-30 471,-10 451,-10"/>
<text text-anchor="start" x="474.78" y="-15.4" font-family="Times-12" font-size="14.00"> &#160;Bootstrap</text>
<polygon fill="#fdb462" stroke="transparent" points="548,-10 548,-30 568,-30 568,-10 548,-10"/>
<text text-anchor="start" x="571.67" y="-15.4" font-family="Times-12" font-size="14.00"> &#160;Providers</text>
<polygon fill="#fb8072" stroke="transparent" points="644,-10 644,-30 664,-30 664,-10 644,-10"/>
<text text-anchor="start" x="667.73" y="-15.4" font-family="Times-12" font-size="14.00"> &#160;Exports</text>
<g id="clust1" class="cluster">
<title>cluster_DynamicFileInputModule</title>
<polygon fill="none" stroke="black" stroke-dasharray="1,5" points="8,-70 8,-379.59 964,-379.59 964,-70 8,-70"/>
</g>
<g id="clust5" class="cluster">
<title>cluster_DynamicFileInputModule_exports</title>
<polygon fill="none" stroke="black" points="384,-319.59 384,-371.59 588,-371.59 588,-319.59 384,-319.59"/>
</g>
<g id="clust3" class="cluster">
<title>cluster_DynamicFileInputModule_DynamicFileInputComponent_providers</title>
<polygon fill="none" stroke="black" points="16,-78 16,-241.59 956,-241.59 956,-78 16,-78"/>
</g>
<!-- DynamicFileInputComponent -->
<g id="node1" class="node">
<title>DynamicFileInputComponent</title>
<polygon fill="#ffffb3" stroke="black" points="577.98,-233.59 394.02,-233.59 394.02,-197.59 577.98,-197.59 577.98,-233.59"/>
<text text-anchor="middle" x="486" y="-211.39" font-family="Times,serif" font-size="14.00">DynamicFileInputComponent</text>
</g>
<!-- DynamicFileInputModule -->
<g id="node2" class="node">
<title>DynamicFileInputModule</title>
<polygon fill="#8dd3c7" stroke="black" points="567.2,-298.59 564.2,-302.59 543.2,-302.59 540.2,-298.59 404.8,-298.59 404.8,-262.59 567.2,-262.59 567.2,-298.59"/>
<text text-anchor="middle" x="486" y="-276.39" font-family="Times,serif" font-size="14.00">DynamicFileInputModule</text>
</g>
<!-- DynamicFileInputComponent&#45;&gt;DynamicFileInputModule -->
<g id="edge1" class="edge">
<title>DynamicFileInputComponent&#45;&gt;DynamicFileInputModule</title>
<path fill="none" stroke="black" d="M486,-233.7C486,-233.7 486,-252.58 486,-252.58"/>
<polygon fill="black" stroke="black" points="482.5,-252.58 486,-262.58 489.5,-252.58 482.5,-252.58"/>
</g>
<!-- DynamicFileInputComponent  -->
<g id="node4" class="node">
<title>DynamicFileInputComponent </title>
<polygon fill="#fb8072" stroke="black" points="579.98,-363.59 392.02,-363.59 392.02,-327.59 579.98,-327.59 579.98,-363.59"/>
<text text-anchor="middle" x="486" y="-341.39" font-family="Times,serif" font-size="14.00">DynamicFileInputComponent </text>
</g>
<!-- DynamicFileInputModule&#45;&gt;DynamicFileInputComponent  -->
<g id="edge3" class="edge">
<title>DynamicFileInputModule&#45;&gt;DynamicFileInputComponent </title>
<path fill="none" stroke="black" stroke-dasharray="5,2" d="M486,-298.7C486,-298.7 486,-317.58 486,-317.58"/>
<polygon fill="black" stroke="black" points="482.5,-317.58 486,-327.58 489.5,-317.58 482.5,-317.58"/>
</g>
<!-- {
 &#160;&#160;&#160;provide: NG_VALUE_ACCESSOR, useExisting: forwardRef(() =&gt; DynamicFileInputComponent), multi: true
} -->
<g id="node3" class="node">
<title>{
 &#160;&#160;&#160;provide: NG_VALUE_ACCESSOR, useExisting: forwardRef(() =&gt; DynamicFileInputComponent), multi: true
}</title>
<ellipse fill="#fdb462" stroke="black" cx="486" cy="-127.3" rx="462.19" ry="41.09"/>
<text text-anchor="middle" x="486" y="-139.9" font-family="Times,serif" font-size="14.00">{</text>
<text text-anchor="middle" x="486" y="-123.1" font-family="Times,serif" font-size="14.00"> &#160;&#160;&#160;provide: NG_VALUE_ACCESSOR, useExisting: forwardRef(() =&gt; DynamicFileInputComponent), multi: true</text>
<text text-anchor="middle" x="486" y="-106.3" font-family="Times,serif" font-size="14.00">}</text>
</g>
<!-- {
 &#160;&#160;&#160;provide: NG_VALUE_ACCESSOR, useExisting: forwardRef(() =&gt; DynamicFileInputComponent), multi: true
}&#45;&gt;DynamicFileInputComponent -->
<g id="edge2" class="edge">
<title>{
 &#160;&#160;&#160;provide: NG_VALUE_ACCESSOR, useExisting: forwardRef(() =&gt; DynamicFileInputComponent), multi: true
}&#45;&gt;DynamicFileInputComponent</title>
<path fill="none" stroke="black" d="M486,-168.6C486,-168.6 486,-187.26 486,-187.26"/>
<polygon fill="black" stroke="black" points="482.5,-187.26 486,-197.26 489.5,-187.26 482.5,-187.26"/>
</g>
</g>
</svg>
