<?xml version="1.0" encoding="UTF-8" standalone="no"?>
<!DOCTYPE svg PUBLIC "-//W3C//DTD SVG 1.1//EN"
 "http://www.w3.org/Graphics/SVG/1.1/DTD/svg11.dtd">
<!-- Generated by graphviz version 2.47.0 (20210316.0004)
 -->
<!-- Title: dependencies Pages: 1 -->
<svg width="1574pt" height="211pt"
 viewBox="0.00 0.00 1574.00 211.00" xmlns="http://www.w3.org/2000/svg" xmlns:xlink="http://www.w3.org/1999/xlink">
<g id="graph0" class="graph" transform="scale(1 1) rotate(0) translate(4 207)">
<title>dependencies</title>
<polygon fill="white" stroke="transparent" points="-4,4 -4,-207 1570,-207 1570,4 -4,4"/>
<text text-anchor="start" x="762.01" y="-42.4" font-family="Times-12" font-weight="bold" font-size="14.00">Legend</text>
<polygon fill="#ffffb3" stroke="transparent" points="549,-10 549,-30 569,-30 569,-10 549,-10"/>
<text text-anchor="start" x="572.63" y="-15.4" font-family="Times-12" font-size="14.00"> &#160;Declarations</text>
<polygon fill="#8dd3c7" stroke="transparent" points="662,-10 662,-30 682,-30 682,-10 662,-10"/>
<text text-anchor="start" x="685.73" y="-15.4" font-family="Times-12" font-size="14.00"> &#160;Module</text>
<polygon fill="#80b1d3" stroke="transparent" points="748,-10 748,-30 768,-30 768,-10 748,-10"/>
<text text-anchor="start" x="771.78" y="-15.4" font-family="Times-12" font-size="14.00"> &#160;Bootstrap</text>
<polygon fill="#fdb462" stroke="transparent" points="845,-10 845,-30 865,-30 865,-10 845,-10"/>
<text text-anchor="start" x="868.67" y="-15.4" font-family="Times-12" font-size="14.00"> &#160;Providers</text>
<polygon fill="#fb8072" stroke="transparent" points="941,-10 941,-30 961,-30 961,-10 941,-10"/>
<text text-anchor="start" x="964.73" y="-15.4" font-family="Times-12" font-size="14.00"> &#160;Exports</text>
<g id="clust1" class="cluster">
<title>cluster_AssuntoModule</title>
<polygon fill="none" stroke="black" stroke-dasharray="1,5" points="8,-70 8,-195 1558,-195 1558,-70 8,-70"/>
</g>
<g id="clust2" class="cluster">
<title>cluster_AssuntoModule_declarations</title>
<polygon fill="none" stroke="black" points="654,-78 654,-130 1550,-130 1550,-78 654,-78"/>
</g>
<g id="clust8" class="cluster">
<title>cluster_AssuntoModule_imports</title>
<polygon fill="none" stroke="black" points="16,-78 16,-130 646,-130 646,-78 16,-78"/>
</g>
<!-- AssuntoComponent -->
<g id="node1" class="node">
<title>AssuntoComponent</title>
<polygon fill="#ffffb3" stroke="black" points="1541.72,-122 1414.28,-122 1414.28,-86 1541.72,-86 1541.72,-122"/>
<text text-anchor="middle" x="1478" y="-99.8" font-family="Times,serif" font-size="14.00">AssuntoComponent</text>
</g>
<!-- AssuntoModule -->
<g id="node6" class="node">
<title>AssuntoModule</title>
<polygon fill="#8dd3c7" stroke="black" points="798.94,-187 795.94,-191 774.94,-191 771.94,-187 693.06,-187 693.06,-151 798.94,-151 798.94,-187"/>
<text text-anchor="middle" x="746" y="-164.8" font-family="Times,serif" font-size="14.00">AssuntoModule</text>
</g>
<!-- AssuntoComponent&#45;&gt;AssuntoModule -->
<g id="edge1" class="edge">
<title>AssuntoComponent&#45;&gt;AssuntoModule</title>
<path fill="none" stroke="black" d="M1478,-122.01C1478,-144.49 1478,-180 1478,-180 1478,-180 808.94,-180 808.94,-180"/>
<polygon fill="black" stroke="black" points="808.94,-176.5 798.94,-180 808.94,-183.5 808.94,-176.5"/>
</g>
<!-- CreateAssuntoComponent -->
<g id="node2" class="node">
<title>CreateAssuntoComponent</title>
<polygon fill="#ffffb3" stroke="black" points="1396.75,-122 1233.25,-122 1233.25,-86 1396.75,-86 1396.75,-122"/>
<text text-anchor="middle" x="1315" y="-99.8" font-family="Times,serif" font-size="14.00">CreateAssuntoComponent</text>
</g>
<!-- CreateAssuntoComponent&#45;&gt;AssuntoModule -->
<g id="edge2" class="edge">
<title>CreateAssuntoComponent&#45;&gt;AssuntoModule</title>
<path fill="none" stroke="black" d="M1315,-122.13C1315,-142.57 1315,-173 1315,-173 1315,-173 808.76,-173 808.76,-173"/>
<polygon fill="black" stroke="black" points="808.76,-169.5 798.76,-173 808.76,-176.5 808.76,-169.5"/>
</g>
<!-- CreateAssuntoModalComponent -->
<g id="node3" class="node">
<title>CreateAssuntoModalComponent</title>
<polygon fill="#ffffb3" stroke="black" points="1215.3,-122 1014.7,-122 1014.7,-86 1215.3,-86 1215.3,-122"/>
<text text-anchor="middle" x="1115" y="-99.8" font-family="Times,serif" font-size="14.00">CreateAssuntoModalComponent</text>
</g>
<!-- CreateAssuntoModalComponent&#45;&gt;AssuntoModule -->
<g id="edge3" class="edge">
<title>CreateAssuntoModalComponent&#45;&gt;AssuntoModule</title>
<path fill="none" stroke="black" d="M1115,-122.27C1115,-140.56 1115,-166 1115,-166 1115,-166 808.87,-166 808.87,-166"/>
<polygon fill="black" stroke="black" points="808.87,-162.5 798.87,-166 808.87,-169.5 808.87,-162.5"/>
</g>
<!-- ListAssuntoComponent -->
<g id="node4" class="node">
<title>ListAssuntoComponent</title>
<polygon fill="#ffffb3" stroke="black" points="996.5,-122 847.5,-122 847.5,-86 996.5,-86 996.5,-122"/>
<text text-anchor="middle" x="922" y="-99.8" font-family="Times,serif" font-size="14.00">ListAssuntoComponent</text>
</g>
<!-- ListAssuntoComponent&#45;&gt;AssuntoModule -->
<g id="edge4" class="edge">
<title>ListAssuntoComponent&#45;&gt;AssuntoModule</title>
<path fill="none" stroke="black" d="M922,-122.01C922,-138.05 922,-159 922,-159 922,-159 808.81,-159 808.81,-159"/>
<polygon fill="black" stroke="black" points="808.81,-155.5 798.81,-159 808.81,-162.5 808.81,-155.5"/>
</g>
<!-- UpdateAssuntoComponent -->
<g id="node5" class="node">
<title>UpdateAssuntoComponent</title>
<polygon fill="#ffffb3" stroke="black" points="829.65,-122 662.35,-122 662.35,-86 829.65,-86 829.65,-122"/>
<text text-anchor="middle" x="746" y="-99.8" font-family="Times,serif" font-size="14.00">UpdateAssuntoComponent</text>
</g>
<!-- UpdateAssuntoComponent&#45;&gt;AssuntoModule -->
<g id="edge5" class="edge">
<title>UpdateAssuntoComponent&#45;&gt;AssuntoModule</title>
<path fill="none" stroke="black" d="M746,-122.11C746,-122.11 746,-140.99 746,-140.99"/>
<polygon fill="black" stroke="black" points="742.5,-140.99 746,-150.99 749.5,-140.99 742.5,-140.99"/>
</g>
<!-- AssuntoRoutingModule -->
<g id="node7" class="node">
<title>AssuntoRoutingModule</title>
<polygon fill="#8dd3c7" stroke="black" points="638.05,-122 635.05,-126 614.05,-126 611.05,-122 487.95,-122 487.95,-86 638.05,-86 638.05,-122"/>
<text text-anchor="middle" x="563" y="-99.8" font-family="Times,serif" font-size="14.00">AssuntoRoutingModule</text>
</g>
<!-- AssuntoRoutingModule&#45;&gt;AssuntoModule -->
<g id="edge6" class="edge">
<title>AssuntoRoutingModule&#45;&gt;AssuntoModule</title>
<path fill="none" stroke="black" d="M563,-122.01C563,-138.05 563,-159 563,-159 563,-159 683.07,-159 683.07,-159"/>
<polygon fill="black" stroke="black" points="683.07,-162.5 693.07,-159 683.07,-155.5 683.07,-162.5"/>
</g>
<!-- DynamicTableByIdModule -->
<g id="node8" class="node">
<title>DynamicTableByIdModule</title>
<polygon fill="#8dd3c7" stroke="black" points="469.24,-122 466.24,-126 445.24,-126 442.24,-122 298.76,-122 298.76,-86 469.24,-86 469.24,-122"/>
<text text-anchor="middle" x="384" y="-99.8" font-family="Times,serif" font-size="14.00">DynamicTableByIdModule</text>
</g>
<!-- DynamicTableByIdModule&#45;&gt;AssuntoModule -->
<g id="edge7" class="edge">
<title>DynamicTableByIdModule&#45;&gt;AssuntoModule</title>
<path fill="none" stroke="black" d="M384,-122.27C384,-140.56 384,-166 384,-166 384,-166 682.97,-166 682.97,-166"/>
<polygon fill="black" stroke="black" points="682.97,-169.5 692.97,-166 682.97,-162.5 682.97,-169.5"/>
</g>
<!-- DynamicTableModule -->
<g id="node9" class="node">
<title>DynamicTableModule</title>
<polygon fill="#8dd3c7" stroke="black" points="280.24,-122 277.24,-126 256.24,-126 253.24,-122 137.76,-122 137.76,-86 280.24,-86 280.24,-122"/>
<text text-anchor="middle" x="209" y="-99.8" font-family="Times,serif" font-size="14.00">DynamicTableModule</text>
</g>
<!-- DynamicTableModule&#45;&gt;AssuntoModule -->
<g id="edge8" class="edge">
<title>DynamicTableModule&#45;&gt;AssuntoModule</title>
<path fill="none" stroke="black" d="M209,-122.13C209,-142.57 209,-173 209,-173 209,-173 683.04,-173 683.04,-173"/>
<polygon fill="black" stroke="black" points="683.04,-176.5 693.04,-173 683.04,-169.5 683.04,-176.5"/>
</g>
<!-- ModalModule -->
<g id="node10" class="node">
<title>ModalModule</title>
<polygon fill="#8dd3c7" stroke="black" points="120.1,-122 117.1,-126 96.1,-126 93.1,-122 23.9,-122 23.9,-86 120.1,-86 120.1,-122"/>
<text text-anchor="middle" x="72" y="-99.8" font-family="Times,serif" font-size="14.00">ModalModule</text>
</g>
<!-- ModalModule&#45;&gt;AssuntoModule -->
<g id="edge9" class="edge">
<title>ModalModule&#45;&gt;AssuntoModule</title>
<path fill="none" stroke="black" d="M72,-122.01C72,-144.49 72,-180 72,-180 72,-180 683.11,-180 683.11,-180"/>
<polygon fill="black" stroke="black" points="683.11,-183.5 693.11,-180 683.11,-176.5 683.11,-183.5"/>
</g>
</g>
</svg>
