<?xml version="1.0" encoding="UTF-8" standalone="no"?>
<!DOCTYPE svg PUBLIC "-//W3C//DTD SVG 1.1//EN"
 "http://www.w3.org/Graphics/SVG/1.1/DTD/svg11.dtd">
<!-- Generated by graphviz version 2.47.0 (20210316.0004)
 -->
<!-- Title: dependencies Pages: 1 -->
<svg width="992pt" height="396pt"
 viewBox="0.00 0.00 992.00 395.59" xmlns="http://www.w3.org/2000/svg" xmlns:xlink="http://www.w3.org/1999/xlink">
<g id="graph0" class="graph" transform="scale(1 1) rotate(0) translate(4 391.59)">
<title>dependencies</title>
<polygon fill="white" stroke="transparent" points="-4,4 -4,-391.59 988,-391.59 988,4 -4,4"/>
<text text-anchor="start" x="471.01" y="-42.4" font-family="Times-12" font-weight="bold" font-size="14.00">Legend</text>
<polygon fill="#ffffb3" stroke="transparent" points="258,-10 258,-30 278,-30 278,-10 258,-10"/>
<text text-anchor="start" x="281.63" y="-15.4" font-family="Times-12" font-size="14.00"> &#160;Declarations</text>
<polygon fill="#8dd3c7" stroke="transparent" points="371,-10 371,-30 391,-30 391,-10 371,-10"/>
<text text-anchor="start" x="394.73" y="-15.4" font-family="Times-12" font-size="14.00"> &#160;Module</text>
<polygon fill="#80b1d3" stroke="transparent" points="457,-10 457,-30 477,-30 477,-10 457,-10"/>
<text text-anchor="start" x="480.78" y="-15.4" font-family="Times-12" font-size="14.00"> &#160;Bootstrap</text>
<polygon fill="#fdb462" stroke="transparent" points="554,-10 554,-30 574,-30 574,-10 554,-10"/>
<text text-anchor="start" x="577.67" y="-15.4" font-family="Times-12" font-size="14.00"> &#160;Providers</text>
<polygon fill="#fb8072" stroke="transparent" points="650,-10 650,-30 670,-30 670,-10 650,-10"/>
<text text-anchor="start" x="673.73" y="-15.4" font-family="Times-12" font-size="14.00"> &#160;Exports</text>
<g id="clust1" class="cluster">
<title>cluster_ExternalVideoInputModule</title>
<polygon fill="none" stroke="black" stroke-dasharray="1,5" points="8,-70 8,-379.59 976,-379.59 976,-70 8,-70"/>
</g>
<g id="clust5" class="cluster">
<title>cluster_ExternalVideoInputModule_exports</title>
<polygon fill="none" stroke="black" points="493,-319.59 493,-371.59 705,-371.59 705,-319.59 493,-319.59"/>
</g>
<g id="clust2" class="cluster">
<title>cluster_ExternalVideoInputModule_declarations</title>
<polygon fill="none" stroke="black" points="388,-189.59 388,-241.59 596,-241.59 596,-189.59 388,-189.59"/>
</g>
<g id="clust4" class="cluster">
<title>cluster_ExternalVideoInputModule_imports</title>
<polygon fill="none" stroke="black" points="604,-189.59 604,-241.59 808,-241.59 808,-189.59 604,-189.59"/>
</g>
<g id="clust3" class="cluster">
<title>cluster_ExternalVideoInputModule_ExternalVideoInputComponent_providers</title>
<polygon fill="none" stroke="black" points="16,-78 16,-176.59 968,-176.59 968,-78 16,-78"/>
</g>
<!-- ExternalVideoInputComponent -->
<g id="node1" class="node">
<title>ExternalVideoInputComponent</title>
<polygon fill="#ffffb3" stroke="black" points="588.02,-233.59 395.98,-233.59 395.98,-197.59 588.02,-197.59 588.02,-233.59"/>
<text text-anchor="middle" x="492" y="-211.39" font-family="Times,serif" font-size="14.00">ExternalVideoInputComponent</text>
</g>
<!-- ExternalVideoInputModule -->
<g id="node2" class="node">
<title>ExternalVideoInputModule</title>
<polygon fill="#8dd3c7" stroke="black" points="684.24,-298.59 681.24,-302.59 660.24,-302.59 657.24,-298.59 513.76,-298.59 513.76,-262.59 684.24,-262.59 684.24,-298.59"/>
<text text-anchor="middle" x="599" y="-276.39" font-family="Times,serif" font-size="14.00">ExternalVideoInputModule</text>
</g>
<!-- ExternalVideoInputComponent&#45;&gt;ExternalVideoInputModule -->
<g id="edge1" class="edge">
<title>ExternalVideoInputComponent&#45;&gt;ExternalVideoInputModule</title>
<path fill="none" stroke="black" d="M550.95,-233.7C550.95,-233.7 550.95,-252.58 550.95,-252.58"/>
<polygon fill="black" stroke="black" points="547.45,-252.58 550.95,-262.58 554.45,-252.58 547.45,-252.58"/>
</g>
<!-- ExternalVideoInputComponent  -->
<g id="node5" class="node">
<title>ExternalVideoInputComponent </title>
<polygon fill="#fb8072" stroke="black" points="697.02,-363.59 500.98,-363.59 500.98,-327.59 697.02,-327.59 697.02,-363.59"/>
<text text-anchor="middle" x="599" y="-341.39" font-family="Times,serif" font-size="14.00">ExternalVideoInputComponent </text>
</g>
<!-- ExternalVideoInputModule&#45;&gt;ExternalVideoInputComponent  -->
<g id="edge4" class="edge">
<title>ExternalVideoInputModule&#45;&gt;ExternalVideoInputComponent </title>
<path fill="none" stroke="black" stroke-dasharray="5,2" d="M599,-298.7C599,-298.7 599,-317.58 599,-317.58"/>
<polygon fill="black" stroke="black" points="595.5,-317.58 599,-327.58 602.5,-317.58 595.5,-317.58"/>
</g>
<!-- {
 &#160;&#160;&#160;provide: NG_VALUE_ACCESSOR, useExisting: forwardRef(() =&gt; ExternalVideoInputComponent), multi: true
} -->
<g id="node3" class="node">
<title>{
 &#160;&#160;&#160;provide: NG_VALUE_ACCESSOR, useExisting: forwardRef(() =&gt; ExternalVideoInputComponent), multi: true
}</title>
<ellipse fill="#fdb462" stroke="black" cx="492" cy="-127.3" rx="468.26" ry="41.09"/>
<text text-anchor="middle" x="492" y="-139.9" font-family="Times,serif" font-size="14.00">{</text>
<text text-anchor="middle" x="492" y="-123.1" font-family="Times,serif" font-size="14.00"> &#160;&#160;&#160;provide: NG_VALUE_ACCESSOR, useExisting: forwardRef(() =&gt; ExternalVideoInputComponent), multi: true</text>
<text text-anchor="middle" x="492" y="-106.3" font-family="Times,serif" font-size="14.00">}</text>
</g>
<!-- {
 &#160;&#160;&#160;provide: NG_VALUE_ACCESSOR, useExisting: forwardRef(() =&gt; ExternalVideoInputComponent), multi: true
}&#45;&gt;ExternalVideoInputComponent -->
<g id="edge2" class="edge">
<title>{
 &#160;&#160;&#160;provide: NG_VALUE_ACCESSOR, useExisting: forwardRef(() =&gt; ExternalVideoInputComponent), multi: true
}&#45;&gt;ExternalVideoInputComponent</title>
<path fill="none" stroke="black" d="M492,-168.6C492,-168.6 492,-187.26 492,-187.26"/>
<polygon fill="black" stroke="black" points="488.5,-187.26 492,-197.26 495.5,-187.26 488.5,-187.26"/>
</g>
<!-- ExternalVideoPreviewModule -->
<g id="node4" class="node">
<title>ExternalVideoPreviewModule</title>
<polygon fill="#8dd3c7" stroke="black" points="799.55,-233.59 796.55,-237.59 775.55,-237.59 772.55,-233.59 612.45,-233.59 612.45,-197.59 799.55,-197.59 799.55,-233.59"/>
<text text-anchor="middle" x="706" y="-211.39" font-family="Times,serif" font-size="14.00">ExternalVideoPreviewModule</text>
</g>
<!-- ExternalVideoPreviewModule&#45;&gt;ExternalVideoInputModule -->
<g id="edge3" class="edge">
<title>ExternalVideoPreviewModule&#45;&gt;ExternalVideoInputModule</title>
<path fill="none" stroke="black" d="M648.42,-233.7C648.42,-233.7 648.42,-252.58 648.42,-252.58"/>
<polygon fill="black" stroke="black" points="644.92,-252.58 648.42,-262.58 651.92,-252.58 644.92,-252.58"/>
</g>
</g>
</svg>
