<?xml version="1.0" encoding="UTF-8" standalone="no"?>
<!DOCTYPE svg PUBLIC "-//W3C//DTD SVG 1.1//EN"
 "http://www.w3.org/Graphics/SVG/1.1/DTD/svg11.dtd">
<!-- Generated by graphviz version 2.47.0 (20210316.0004)
 -->
<!-- Title: dependencies Pages: 1 -->
<svg width="1052pt" height="396pt"
 viewBox="0.00 0.00 1052.00 395.59" xmlns="http://www.w3.org/2000/svg" xmlns:xlink="http://www.w3.org/1999/xlink">
<g id="graph0" class="graph" transform="scale(1 1) rotate(0) translate(4 391.59)">
<title>dependencies</title>
<polygon fill="white" stroke="transparent" points="-4,4 -4,-391.59 1048,-391.59 1048,4 -4,4"/>
<text text-anchor="start" x="501.01" y="-42.4" font-family="Times-12" font-weight="bold" font-size="14.00">Legend</text>
<polygon fill="#ffffb3" stroke="transparent" points="288,-10 288,-30 308,-30 308,-10 288,-10"/>
<text text-anchor="start" x="311.63" y="-15.4" font-family="Times-12" font-size="14.00"> &#160;Declarations</text>
<polygon fill="#8dd3c7" stroke="transparent" points="401,-10 401,-30 421,-30 421,-10 401,-10"/>
<text text-anchor="start" x="424.73" y="-15.4" font-family="Times-12" font-size="14.00"> &#160;Module</text>
<polygon fill="#80b1d3" stroke="transparent" points="487,-10 487,-30 507,-30 507,-10 487,-10"/>
<text text-anchor="start" x="510.78" y="-15.4" font-family="Times-12" font-size="14.00"> &#160;Bootstrap</text>
<polygon fill="#fdb462" stroke="transparent" points="584,-10 584,-30 604,-30 604,-10 584,-10"/>
<text text-anchor="start" x="607.67" y="-15.4" font-family="Times-12" font-size="14.00"> &#160;Providers</text>
<polygon fill="#fb8072" stroke="transparent" points="680,-10 680,-30 700,-30 700,-10 680,-10"/>
<text text-anchor="start" x="703.73" y="-15.4" font-family="Times-12" font-size="14.00"> &#160;Exports</text>
<g id="clust1" class="cluster">
<title>cluster_PdfInputModule</title>
<polygon fill="none" stroke="black" stroke-dasharray="1,5" points="8,-70 8,-379.59 1036,-379.59 1036,-70 8,-70"/>
</g>
<g id="clust3" class="cluster">
<title>cluster_PdfInputModule_PdfInputComponent_providers</title>
<polygon fill="none" stroke="black" points="164,-78 164,-241.59 1028,-241.59 1028,-78 164,-78"/>
</g>
<g id="clust4" class="cluster">
<title>cluster_PdfInputModule_imports</title>
<polygon fill="none" stroke="black" points="16,-189.59 16,-241.59 156,-241.59 156,-189.59 16,-189.59"/>
</g>
<g id="clust5" class="cluster">
<title>cluster_PdfInputModule_exports</title>
<polygon fill="none" stroke="black" points="89,-319.59 89,-371.59 239,-371.59 239,-319.59 89,-319.59"/>
</g>
<!-- PdfInputComponent -->
<g id="node1" class="node">
<title>PdfInputComponent</title>
<polygon fill="#ffffb3" stroke="black" points="481.33,-233.59 350.67,-233.59 350.67,-197.59 481.33,-197.59 481.33,-233.59"/>
<text text-anchor="middle" x="416" y="-211.39" font-family="Times,serif" font-size="14.00">PdfInputComponent</text>
</g>
<!-- PdfInputModule -->
<g id="node2" class="node">
<title>PdfInputModule</title>
<polygon fill="#8dd3c7" stroke="black" points="218.05,-298.59 215.05,-302.59 194.05,-302.59 191.05,-298.59 109.95,-298.59 109.95,-262.59 218.05,-262.59 218.05,-298.59"/>
<text text-anchor="middle" x="164" y="-276.39" font-family="Times,serif" font-size="14.00">PdfInputModule</text>
</g>
<!-- PdfInputComponent&#45;&gt;PdfInputModule -->
<g id="edge1" class="edge">
<title>PdfInputComponent&#45;&gt;PdfInputModule</title>
<path fill="none" stroke="black" d="M350.61,-215.59C285.46,-215.59 195.06,-215.59 195.06,-215.59 195.06,-215.59 195.06,-252.48 195.06,-252.48"/>
<polygon fill="black" stroke="black" points="191.56,-252.48 195.06,-262.48 198.56,-252.48 191.56,-252.48"/>
</g>
<!-- PdfInputComponent  -->
<g id="node5" class="node">
<title>PdfInputComponent </title>
<polygon fill="#fb8072" stroke="black" points="230.83,-363.59 97.17,-363.59 97.17,-327.59 230.83,-327.59 230.83,-363.59"/>
<text text-anchor="middle" x="164" y="-341.39" font-family="Times,serif" font-size="14.00">PdfInputComponent </text>
</g>
<!-- PdfInputModule&#45;&gt;PdfInputComponent  -->
<g id="edge4" class="edge">
<title>PdfInputModule&#45;&gt;PdfInputComponent </title>
<path fill="none" stroke="black" stroke-dasharray="5,2" d="M164,-298.7C164,-298.7 164,-317.58 164,-317.58"/>
<polygon fill="black" stroke="black" points="160.5,-317.58 164,-327.58 167.5,-317.58 160.5,-317.58"/>
</g>
<!-- {
 &#160;&#160;&#160;provide: NG_VALUE_ACCESSOR, useExisting: forwardRef(() =&gt; PdfInputComponent), multi: true
} -->
<g id="node3" class="node">
<title>{
 &#160;&#160;&#160;provide: NG_VALUE_ACCESSOR, useExisting: forwardRef(() =&gt; PdfInputComponent), multi: true
}</title>
<ellipse fill="#fdb462" stroke="black" cx="596" cy="-127.3" rx="424.31" ry="41.09"/>
<text text-anchor="middle" x="596" y="-139.9" font-family="Times,serif" font-size="14.00">{</text>
<text text-anchor="middle" x="596" y="-123.1" font-family="Times,serif" font-size="14.00"> &#160;&#160;&#160;provide: NG_VALUE_ACCESSOR, useExisting: forwardRef(() =&gt; PdfInputComponent), multi: true</text>
<text text-anchor="middle" x="596" y="-106.3" font-family="Times,serif" font-size="14.00">}</text>
</g>
<!-- {
 &#160;&#160;&#160;provide: NG_VALUE_ACCESSOR, useExisting: forwardRef(() =&gt; PdfInputComponent), multi: true
}&#45;&gt;PdfInputComponent -->
<g id="edge2" class="edge">
<title>{
 &#160;&#160;&#160;provide: NG_VALUE_ACCESSOR, useExisting: forwardRef(() =&gt; PdfInputComponent), multi: true
}&#45;&gt;PdfInputComponent</title>
<path fill="none" stroke="black" d="M416,-164.74C416,-164.74 416,-187.34 416,-187.34"/>
<polygon fill="black" stroke="black" points="412.5,-187.34 416,-197.34 419.5,-187.34 412.5,-187.34"/>
</g>
<!-- PdfPreviewModule -->
<g id="node4" class="node">
<title>PdfPreviewModule</title>
<polygon fill="#8dd3c7" stroke="black" points="148.36,-233.59 145.36,-237.59 124.36,-237.59 121.36,-233.59 23.64,-233.59 23.64,-197.59 148.36,-197.59 148.36,-233.59"/>
<text text-anchor="middle" x="86" y="-211.39" font-family="Times,serif" font-size="14.00">PdfPreviewModule</text>
</g>
<!-- PdfPreviewModule&#45;&gt;PdfInputModule -->
<g id="edge3" class="edge">
<title>PdfPreviewModule&#45;&gt;PdfInputModule</title>
<path fill="none" stroke="black" d="M129.08,-233.7C129.08,-233.7 129.08,-252.58 129.08,-252.58"/>
<polygon fill="black" stroke="black" points="125.58,-252.58 129.08,-262.58 132.58,-252.58 125.58,-252.58"/>
</g>
</g>
</svg>
